<svg version="1.0" xmlns="http://www.w3.org/2000/svg"
 width="1024.000000pt" height="768.000000pt" viewBox="0 0 1024.000000 768.000000"
 preserveAspectRatio="xMidYMid meet">

<g transform="translate(0.000000,768.000000) scale(0.100000,-0.100000)"
fill="#000000" stroke="none">
<path d="M0 7646 c0 -31 5 -36 67 -72 89 -51 251 -213 330 -329 70 -104 129
-219 167 -324 l26 -73 -25 -44 c-14 -24 -28 -44 -30 -44 -2 0 -11 24 -21 53
-81 245 -275 498 -486 632 l-28 17 0 -78 0 -79 45 -28 c70 -45 193 -164 258
-252 65 -87 112 -176 147 -275 13 -36 25 -67 27 -70 3 -3 13 6 23 20 l20 25 0
-31 c0 -87 77 -210 226 -361 115 -116 271 -243 298 -243 15 0 15 -3 3 -27 -64
-125 -102 -658 -78 -1063 12 -185 33 -397 47 -466 6 -30 3 -34 -40 -59 -26
-15 -45 -29 -44 -31 2 -2 33 6 68 17 161 51 362 12 545 -106 79 -50 235 -207
235 -235 0 -20 5 -18 46 20 72 66 192 109 399 142 121 19 494 16 635 -6 383
-57 643 -161 690 -277 18 -44 30 -19 30 64 0 85 -18 126 -83 189 -129 127
-401 234 -717 284 -158 25 -478 25 -603 0 -207 -41 -327 -108 -367 -205 l-13
-32 -41 39 c-125 120 -261 199 -384 223 -36 7 -98 10 -145 7 l-82 -6 55 25
c30 14 56 26 58 28 2 1 -8 117 -22 256 -14 140 -30 317 -36 394 -15 188 -23
739 -13 794 9 48 13 51 99 64 41 7 42 6 48 -26 7 -39 175 -1363 176 -1388 0
-3 -42 -19 -92 -35 l-93 -29 95 -6 c52 -4 115 -14 140 -23 61 -23 178 -97 219
-140 19 -20 38 -36 42 -36 4 0 15 35 24 77 16 70 22 81 71 130 60 60 125 94
236 122 428 110 1093 -56 1349 -337 63 -69 88 -118 97 -190 l7 -57 55 93 c29
51 69 110 87 131 18 21 30 41 27 44 -3 3 11 9 32 12 242 42 428 167 587 396
75 107 126 223 169 383 30 110 33 395 4 496 -36 131 -108 262 -190 344 -43 43
-117 97 -150 110 -17 6 -18 9 -5 21 8 7 83 50 168 94 431 224 840 374 1023
376 46 0 78 4 77 10 0 6 -12 35 -27 65 -37 75 -68 90 -193 90 -347 0 -997
-242 -1352 -504 -37 -27 -64 -53 -60 -56 5 -4 35 -12 68 -19 209 -39 405 -227
490 -468 160 -460 -46 -1036 -445 -1242 -78 -40 -171 -71 -212 -71 -12 0 7 11
45 24 128 45 215 103 307 203 110 118 185 261 231 438 31 119 34 378 6 493
-60 249 -179 431 -361 555 -61 41 -179 87 -244 95 -56 7 -57 8 -66 44 -38 155
322 404 809 561 238 77 441 111 630 105 167 -5 226 -23 263 -80 23 -35 100
-76 332 -181 273 -123 702 -274 880 -310 190 -39 215 -35 245 42 l19 49 102
31 c56 18 160 44 231 58 114 24 151 27 338 27 226 1 286 -9 384 -59 66 -33 97
-71 118 -143 l18 -63 125 -50 c442 -175 826 -250 920 -179 13 10 29 35 35 57
7 23 17 37 26 36 8 -1 50 -17 94 -37 107 -47 245 -83 390 -101 148 -19 225
-19 293 -1 52 13 52 13 46 -8 -3 -12 -12 -31 -20 -43 -44 -70 -464 -45 -715
42 -156 54 -141 56 -162 -16 -10 -34 -17 -63 -15 -65 12 -12 182 -58 278 -76
124 -23 401 -31 513 -15 50 7 60 12 70 35 6 15 17 35 25 45 28 32 110 18 225
-39 l67 -33 0 84 0 84 -68 40 c-94 56 -142 66 -217 47 -85 -23 -161 -19 -320
13 -161 33 -274 73 -394 137 -81 44 -84 45 -97 25 -28 -39 -107 -56 -264 -56
-199 1 -389 37 -655 127 -177 60 -208 76 -220 118 -5 19 -14 41 -18 48 -12 18
-1 16 124 -27 208 -72 427 -117 614 -127 189 -10 375 30 443 96 29 27 34 23
23 -17 -11 -40 2 -53 124 -122 130 -74 262 -122 450 -162 116 -24 257 0 307
53 40 43 35 50 -23 28 -105 -42 -220 -36 -359 16 -212 80 -312 133 -423 220
-53 42 -55 46 -50 82 9 67 10 67 73 8 109 -101 201 -158 395 -246 155 -71 262
-86 365 -50 30 10 57 15 60 12 3 -4 33 -26 68 -50 l62 -43 0 302 -1 301 -22
-6 c-58 -17 -123 -18 -161 -2 -21 9 -43 16 -49 16 -13 0 -1 -145 19 -225 20
-83 40 -132 76 -187 16 -26 27 -52 23 -57 -21 -35 -201 -42 -291 -11 -56 19
-185 91 -304 169 -64 42 -202 172 -245 230 -36 48 -50 51 -58 12 -4 -16 -20
-46 -38 -66 -137 -156 -523 -200 -928 -105 -110 26 -328 99 -361 120 -47 32
-95 42 -216 47 -196 9 -433 -29 -676 -106 l-96 -31 -26 -56 c-26 -54 -27 -55
-59 -49 -170 37 -992 409 -1405 638 -86 47 -95 55 -118 104 -60 127 -217 223
-453 276 -82 19 -126 22 -296 21 -178 0 -214 -3 -327 -27 -304 -65 -550 -196
-651 -349 -45 -69 -59 -115 -58 -193 l0 -64 -54 25 c-29 14 -98 37 -152 51
-85 23 -119 26 -258 27 -138 1 -172 -2 -244 -22 -204 -56 -341 -149 -450 -306
-45 -66 -52 -67 -20 -3 96 190 274 330 516 404 82 25 100 27 278 27 175 0 197
-2 280 -26 50 -15 93 -23 96 -20 3 4 3 36 0 72 l-6 65 -49 12 c-268 66 -580
15 -808 -133 -108 -69 -193 -155 -208 -209 -7 -25 -14 -45 -16 -45 -3 0 -22
11 -43 25 -142 89 -710 281 -1081 365 -315 72 -460 87 -479 51 -14 -25 -43
-112 -39 -115 2 -1 100 -35 218 -75 408 -139 793 -278 1190 -431 58 -22 111
-40 118 -40 7 0 50 38 95 84 67 68 97 91 167 124 137 65 191 77 375 77 136 0
173 -3 245 -23 104 -28 237 -84 308 -129 29 -18 54 -33 55 -33 2 0 3 24 4 53
3 215 352 446 814 539 99 20 144 23 339 23 203 0 233 -2 310 -23 166 -44 273
-119 305 -211 22 -64 20 -80 -5 -53 -141 151 -671 144 -1110 -16 -257 -94
-462 -221 -554 -343 -50 -66 -62 -106 -53 -180 l6 -50 -52 51 c-59 58 -203
158 -280 194 -160 75 -293 107 -448 107 -198 0 -331 -47 -464 -166 -22 -19
-43 -35 -46 -35 -8 0 -21 -31 -16 -37 2 -2 22 10 44 26 121 88 279 124 442
101 234 -32 459 -150 647 -339 52 -51 94 -97 94 -102 0 -5 -9 -9 -21 -9 -11 0
-17 -4 -14 -10 3 -5 24 -10 47 -10 78 0 194 -39 295 -101 264 -160 438 -525
420 -879 -13 -257 -110 -487 -265 -632 -58 -55 -172 -131 -181 -122 -3 4 0 9
7 11 7 3 37 25 67 49 118 97 211 246 256 414 20 72 23 109 23 250 0 141 -3
178 -23 249 -85 314 -265 549 -512 665 -96 46 -177 66 -261 66 -52 0 -66 3
-62 13 7 20 -149 165 -250 231 -298 199 -618 225 -799 66 -41 -35 -44 -51 -5
-26 13 8 56 21 95 28 192 32 442 -74 653 -278 l85 -83 -39 -16 c-52 -22 -41
-28 25 -14 74 16 248 5 326 -20 282 -91 515 -334 618 -643 42 -128 55 -204 55
-336 0 -122 -20 -229 -63 -332 -32 -77 -134 -221 -177 -249 -18 -12 -14 -2 19
38 216 274 193 699 -57 1051 -102 144 -243 263 -397 336 -130 61 -199 78 -335
78 -109 1 -135 -3 -247 -40 -10 -3 1 6 25 21 23 14 42 30 42 36 0 5 -32 43
-72 85 -134 141 -292 243 -433 279 -74 19 -119 19 -181 0 -27 -8 -59 -15 -71
-15 -39 0 -346 119 -723 280 -285 122 -627 296 -660 335 -10 12 -8 26 10 70
15 37 20 64 15 82 -14 58 -97 259 -146 354 l-51 99 -89 0 c-49 0 -89 -2 -89
-5 0 -3 18 -28 39 -56 87 -109 188 -299 253 -474 l29 -80 -19 -40 c-29 -60
-30 -68 -16 -97 27 -53 233 -203 449 -328 126 -72 429 -220 565 -275 88 -35
123 -45 147 -40 123 23 326 -209 479 -546 l35 -80 -48 -66 c-70 -98 -72 -102
-18 -55 56 50 145 94 236 119 79 21 255 23 354 4 342 -67 675 -312 822 -606
87 -172 104 -368 44 -497 l-20 -43 6 66 c28 332 -338 732 -792 862 -123 36
-201 47 -328 47 -179 0 -330 -46 -420 -129 -24 -23 -47 -41 -51 -41 -4 0 5 21
20 46 l27 45 -43 127 c-116 349 -270 631 -373 685 -40 20 -59 18 -145 -14
l-24 -9 36 -40 c66 -73 140 -246 222 -520 43 -143 134 -529 134 -569 0 -27 14
-27 33 2 51 78 155 144 284 179 103 28 337 30 458 4 194 -42 383 -121 540
-224 104 -68 252 -222 299 -311 63 -119 82 -231 54 -326 l-11 -40 -17 65 c-20
81 -40 118 -102 197 -156 197 -494 367 -831 417 -205 30 -414 16 -556 -39
-107 -41 -161 -88 -236 -208 -6 -10 -31 -18 -71 -23 l-60 -6 -13 98 c-58 452
-199 1104 -273 1261 -17 37 -24 43 -52 43 -36 0 -246 117 -406 227 -249 170
-430 354 -430 435 0 17 12 51 27 78 l27 47 -28 79 c-70 200 -210 428 -349 566
l-88 88 -94 0 -95 0 0 -34z m10214 -916 c-27 -78 -30 -302 -5 -349 7 -12 11
-27 8 -34 -5 -15 -53 68 -78 133 -23 61 -40 203 -32 269 l5 49 54 -27 c37 -18
51 -31 48 -41z m-7932 -357 c126 -59 311 -227 392 -355 l19 -30 -54 -49 c-30
-26 -51 -48 -48 -49 4 0 27 11 51 25 25 14 80 34 123 45 267 68 595 -47 837
-292 95 -97 155 -182 213 -301 72 -150 90 -227 89 -397 0 -134 -2 -151 -28
-218 -28 -75 -75 -162 -88 -162 -3 0 3 18 14 41 46 95 58 232 34 362 -80 416
-495 793 -931 846 -158 19 -333 -15 -434 -84 -28 -20 -51 -32 -51 -28 0 4 24
31 52 60 l53 54 -30 55 c-48 89 -179 257 -252 322 -78 72 -176 124 -232 126
-49 1 -43 11 23 43 70 33 158 28 248 -14z m-478 -1633 c83 -13 87 -18 69 -89
l-15 -59 -52 33 c-73 46 -122 65 -191 74 l-60 7 45 13 c25 7 65 17 90 21 25 4
47 8 50 9 3 0 31 -3 64 -9z m1913 -252 c-3 -8 -6 -5 -6 6 -1 11 2 17 5 13 3
-3 4 -12 1 -19z"/>
<path d="M720 7671 c0 -4 13 -39 28 -77 16 -38 39 -100 52 -139 12 -38 26 -74
30 -78 5 -5 15 16 24 46 13 45 21 57 48 68 48 20 331 17 478 -4 469 -70 990
-239 1091 -354 l31 -36 36 36 c216 205 574 313 882 264 l75 -12 6 -40 c4 -32
7 -36 13 -20 4 11 17 45 29 75 26 70 133 179 232 238 l70 42 -138 0 -137 0
-21 -32 -20 -33 6 33 7 33 -329 -3 -328 -3 -65 -34 c-81 -42 -198 -121 -226
-152 -12 -13 -25 -45 -28 -71 -4 -27 -9 -48 -12 -48 -2 0 -22 18 -44 39 -39
37 -196 122 -253 136 -36 9 -35 25 1 25 36 0 141 52 172 85 l23 25 -92 0 c-82
0 -96 -3 -124 -24 -90 -67 -179 -90 -307 -80 l-85 7 62 13 c34 7 81 23 105 35
23 12 58 27 77 34 34 13 31 14 -60 14 -53 1 -109 -3 -125 -9 -48 -16 -194 -34
-269 -34 -44 0 -97 9 -142 23 -66 21 -86 22 -285 19 -203 -3 -215 -4 -253 -27
-22 -12 -44 -29 -48 -37 -14 -24 -24 -15 -31 26 l-6 40 -75 0 c-41 0 -75 -4
-75 -9z m2743 -53 c55 -9 67 -14 62 -27 -4 -9 -9 -31 -12 -49 -5 -29 -9 -33
-27 -27 -12 4 -89 10 -171 12 -137 5 -160 3 -255 -20 -181 -44 -353 -131 -494
-248 -37 -32 -38 -32 -31 -9 5 14 11 40 16 58 7 33 16 42 118 119 78 59 239
138 346 168 153 44 285 51 448 23z"/>
<path d="M1578 7673 c18 -2 45 -2 60 0 15 2 0 4 -33 4 -33 0 -45 -2 -27 -4z"/>
<path d="M2595 7660 c-10 -11 -37 -29 -61 -41 -24 -11 -44 -23 -44 -26 0 -3
20 -3 44 -1 26 3 49 1 56 -6 8 -8 14 -6 21 7 6 9 22 17 37 17 29 0 95 28 127
54 19 14 14 15 -71 16 -78 0 -93 -3 -109 -20z"/>
<path d="M5040 7676 c0 -2 17 -15 38 -27 107 -65 206 -183 218 -260 10 -60 24
-46 24 22 0 39 5 65 14 75 8 7 16 19 18 25 4 13 221 -96 693 -349 368 -197
831 -455 849 -473 6 -5 16 -9 22 -9 14 0 74 99 74 122 0 21 -87 101 -210 193
-120 89 -431 297 -527 353 -36 20 -77 44 -91 53 -107 65 -312 179 -403 225
l-110 55 -111 -3 -111 -3 -14 -40 c-7 -22 -18 -44 -24 -50 -7 -7 -7 -2 -1 15
23 63 23 80 2 80 -16 0 -20 -7 -21 -32 0 -18 -4 -42 -9 -53 -6 -15 -9 -6 -9
33 -1 51 -1 52 -32 52 -26 0 -30 -3 -24 -17 14 -38 26 -113 23 -145 -3 -32 -4
-31 -21 21 -10 30 -32 74 -48 98 l-30 43 -89 0 c-50 0 -90 -2 -90 -4z"/>
<path d="M6327 7581 c356 -238 662 -505 721 -628 15 -32 15 -34 -17 -79 -18
-25 -30 -49 -26 -52 3 -3 56 11 118 31 240 77 439 117 575 117 103 -1 147 -20
175 -80 21 -42 27 -47 107 -77 181 -68 376 -104 575 -105 204 -1 374 34 508
105 71 37 151 115 168 162 13 35 29 47 29 22 0 -23 122 -198 184 -265 59 -63
238 -203 331 -260 74 -45 164 -72 240 -72 37 0 75 5 86 10 18 10 16 15 -30 74
-84 110 -127 222 -151 391 -8 54 -18 93 -26 98 -22 13 -17 29 5 17 65 -34 201
7 294 90 l47 42 0 176 0 177 -28 -43 c-81 -122 -220 -241 -322 -277 -50 -18
-117 -19 -157 -4 -15 5 -49 31 -75 57 -46 45 -48 45 -48 20 0 -47 38 -212 70
-303 71 -201 169 -342 292 -425 61 -40 64 -54 5 -24 -78 41 -187 144 -251 239
-118 176 -202 388 -231 582 l-7 42 38 -20 c117 -59 299 14 464 187 75 78 140
156 140 168 0 3 -68 6 -150 6 l-151 0 -79 -60 c-132 -101 -300 -166 -369 -142
l-30 11 5 -47 c23 -206 60 -346 130 -484 79 -157 303 -413 414 -473 30 -16 82
-37 115 -47 l60 -18 -50 5 c-131 15 -216 66 -382 228 -142 139 -193 203 -253
314 -86 160 -130 327 -135 501 -2 99 -5 115 -24 135 -11 13 -21 26 -21 29 0 3
19 8 43 10 23 3 58 12 77 21 l35 15 -86 1 c-97 1 -99 -1 -99 -69 0 -22 -10
-65 -21 -97 -78 -209 -291 -377 -580 -455 -74 -20 -107 -23 -279 -23 -183 0
-201 2 -295 28 -54 15 -131 43 -170 62 -65 31 -77 33 -150 31 -95 -4 -241 -40
-411 -102 -68 -24 -124 -44 -126 -44 -2 0 -4 20 -4 44 -3 104 -178 327 -425
542 l-97 84 -221 0 -222 0 148 -99z m2912 -278 c2 -133 -55 -229 -189 -318
-145 -96 -310 -144 -525 -152 -215 -8 -399 22 -593 97 -72 28 -80 33 -100 75
-12 25 -19 45 -15 45 3 0 29 -11 57 -25 29 -14 106 -39 171 -55 330 -84 656
-46 909 104 129 77 250 223 264 318 6 42 6 42 13 13 4 -16 7 -62 8 -102z m533
-220 c31 -33 38 -48 48 -113 31 -202 97 -354 199 -464 24 -25 29 -35 15 -28
-35 19 -131 129 -174 200 -50 84 -96 209 -121 327 -28 134 -26 139 33 78z"/>
<path d="M6964 7648 c97 -119 182 -242 218 -316 36 -73 42 -97 43 -149 0 -35
2 -63 5 -63 14 0 81 79 95 112 31 76 9 186 -69 342 l-51 101 -134 3 -134 3 27
-33z"/>
<path d="M7390 7675 c0 -3 10 -40 22 -82 37 -133 27 -252 -25 -310 -11 -13
-18 -25 -16 -28 3 -2 44 10 91 29 46 18 112 40 146 49 l61 15 53 -28 c166 -89
392 -109 604 -54 90 23 214 77 280 120 80 53 191 160 243 234 l42 60 -67 0
-67 0 -89 -94 c-131 -140 -259 -217 -433 -261 -177 -45 -384 -30 -529 39 -87
42 -86 39 -30 93 46 45 98 132 119 201 6 21 4 22 -54 22 -34 0 -61 -2 -61 -4
0 -28 -35 -156 -51 -187 -20 -39 -102 -129 -118 -129 -5 0 3 23 17 51 21 43
26 69 30 160 l5 109 -87 0 c-47 0 -86 -2 -86 -5z"/>
<path d="M7861 7625 c-43 -76 -95 -131 -165 -176 l-58 -37 23 -15 c32 -20 110
-44 189 -57 79 -14 216 -5 319 21 141 36 318 148 419 267 l45 52 -68 0 -67 0
-44 -49 c-55 -61 -159 -139 -241 -180 -114 -57 -288 -88 -408 -73 l-60 8 100
7 c142 9 284 58 380 130 50 38 155 139 155 149 0 4 -23 8 -51 8 -50 0 -53 -2
-131 -75 -112 -106 -284 -186 -390 -184 -28 0 -25 2 22 15 114 30 243 111 313
197 l38 47 -53 0 c-53 0 -55 -1 -89 -46 -40 -53 -94 -100 -167 -143 -44 -26
-122 -55 -122 -46 0 2 24 17 53 33 54 31 138 114 170 171 l18 31 -49 0 -50 0
-31 -55z"/>
<path d="M8970 7617 c-43 -75 -205 -242 -275 -281 -113 -65 -139 -77 -213
-101 -102 -34 -227 -55 -321 -55 -160 0 -339 47 -443 115 -22 15 -42 24 -45
22 -2 -3 3 -19 12 -36 31 -61 169 -127 335 -161 178 -37 434 -17 587 46 143
59 280 151 364 243 55 61 149 223 149 257 0 10 -14 14 -57 14 l-58 -1 -35 -62z"/>
<path d="M0 7118 l0 -63 57 -40 c119 -85 241 -242 299 -385 l26 -65 -18 -50
c-31 -82 -19 -208 30 -325 5 -12 -4 -15 -44 -17 -96 -3 -206 -57 -308 -149
l-43 -39 3 -139 3 -139 54 92 c61 102 176 233 248 280 69 46 138 65 206 57 32
-4 57 -12 57 -17 0 -5 -7 -9 -15 -9 -55 0 -178 -106 -250 -215 -274 -418 -374
-1152 -192 -1421 39 -58 75 -80 153 -95 32 -7 62 -15 66 -18 10 -8 -50 -247
-102 -406 -50 -154 -120 -333 -184 -470 l-46 -99 2 -155 3 -156 74 92 c41 51
80 94 87 97 8 3 14 12 14 20 0 7 19 51 42 97 52 104 176 234 284 297 275 163
616 174 910 30 186 -91 333 -257 398 -451 25 -76 19 -100 -9 -32 -35 84 -106
184 -181 255 -72 67 -224 148 -329 174 -236 60 -476 33 -700 -79 -225 -112
-378 -289 -430 -496 l-17 -67 -60 -31 c-34 -17 -67 -31 -75 -31 -22 0 -13 -83
22 -205 24 -84 28 -120 29 -225 1 -112 -1 -129 -21 -162 -16 -27 -18 -38 -9
-38 9 0 15 -26 19 -92 28 -417 275 -816 615 -993 67 -35 74 -36 90 -22 36 33
132 68 214 79 150 20 336 -29 509 -133 46 -27 97 -64 114 -82 17 -17 64 -63
104 -101 296 -281 434 -665 345 -958 -4 -13 0 -18 16 -18 47 0 100 178 100
337 0 280 -126 562 -354 788 -182 181 -296 253 -469 297 -65 16 -102 19 -186
16 -134 -6 -174 -22 -316 -122 -37 -27 -241 98 -371 228 -200 200 -326 464
-343 719 l-6 98 30 44 c52 73 61 114 44 203 -18 101 -16 232 6 307 82 282 335
509 672 602 88 25 115 28 258 28 182 0 258 -16 388 -81 119 -60 234 -176 291
-293 24 -51 14 -47 -30 11 -80 107 -203 186 -349 224 -110 28 -312 24 -437 -9
-376 -99 -672 -363 -753 -672 -17 -62 -19 -274 -4 -305 4 -8 15 -48 23 -89 21
-98 90 -241 162 -336 33 -43 74 -98 91 -124 38 -52 39 -51 17 33 -31 117 -4
259 81 431 68 136 131 222 255 345 254 252 565 391 806 361 88 -11 142 -30
192 -68 18 -14 35 -23 38 -21 7 8 -62 92 -97 120 -89 67 -192 99 -319 99 -121
0 -188 -12 -305 -51 -289 -98 -565 -332 -702 -596 -68 -131 -102 -288 -85
-392 5 -28 7 -52 5 -52 -11 0 -83 172 -93 225 -23 110 6 257 75 395 131 260
429 487 742 566 75 19 126 25 218 25 200 2 317 -42 439 -165 58 -58 68 -65 64
-42 -3 14 -3 26 -1 26 2 0 129 22 281 50 368 65 887 152 1206 200 142 22 261
41 263 44 3 3 2 36 -2 75 -7 69 -7 70 -42 82 -48 15 -483 6 -698 -15 -445 -44
-899 -120 -1021 -171 -20 -8 -38 -15 -40 -15 -2 0 -4 22 -4 48 0 42 -7 59 -53
126 -135 196 -317 321 -557 382 -110 28 -326 26 -435 -3 -203 -55 -374 -172
-462 -315 -20 -32 -38 -57 -40 -54 -5 4 31 97 58 152 77 154 249 284 444 335
115 31 298 31 418 1 232 -58 426 -187 555 -372 25 -36 47 -67 49 -69 2 -3 13
5 26 16 51 47 159 83 352 117 495 88 1194 86 1381 -5 43 -21 44 -21 44 -72 0
-87 12 -86 69 9 178 290 449 573 549 574 13 0 40 -10 62 -22 l38 -22 79 22
c164 47 401 182 570 323 255 214 418 486 399 669 -7 62 -7 62 54 -42 61 -102
63 -176 8 -297 -132 -291 -655 -660 -1057 -747 -114 -24 -235 -108 -392 -271
-160 -166 -355 -438 -344 -480 3 -13 8 -43 11 -67 l6 -44 -81 -31 c-232 -89
-870 -244 -1344 -326 -184 -31 -213 -31 -268 -1 -119 67 -310 46 -507 -53
-377 -190 -735 -660 -759 -995 -5 -76 4 -131 34 -205 12 -30 -122 77 -200 159
-132 139 -213 283 -258 457 -10 42 -19 96 -19 120 0 47 -2 48 -31 33 -25 -14
-25 -74 0 -196 24 -118 74 -240 142 -350 68 -111 236 -284 338 -349 67 -43
221 -118 229 -111 1 2 -12 27 -30 56 -32 51 -33 57 -33 159 0 151 41 276 151
468 224 389 611 710 880 730 39 3 87 3 107 -1 32 -6 136 -72 137 -87 0 -3 -24
-4 -52 -1 -293 24 -830 -538 -1007 -1056 -28 -79 -55 -220 -45 -231 2 -2 24
11 50 28 113 74 263 99 409 66 86 -19 113 -30 202 -83 220 -130 386 -318 490
-553 131 -299 130 -623 -2 -839 -29 -47 -31 -56 -17 -59 35 -7 124 124 167
248 109 311 43 698 -170 996 -133 186 -280 298 -490 370 -73 25 -88 27 -190
23 -61 -3 -121 -10 -133 -17 -30 -16 -28 -5 11 81 56 122 145 272 264 443 103
149 297 346 416 423 105 69 166 85 221 61 27 -13 83 -5 276 37 266 59 653 179
856 265 129 55 269 136 285 165 10 19 10 35 0 80 l-13 56 38 56 c263 400 643
705 856 690 55 -4 68 -10 155 -74 21 -15 32 -13 188 40 185 63 365 136 495
201 183 92 360 233 360 287 0 12 -12 57 -27 98 l-27 77 88 89 c349 353 558
839 461 1070 -8 21 -13 39 -11 42 3 2 30 -20 60 -50 74 -74 98 -149 97 -298
-1 -334 -252 -805 -556 -1045 -27 -21 -53 -42 -58 -45 -4 -3 2 -33 13 -66 27
-82 26 -98 -14 -131 -96 -79 -455 -223 -793 -318 -139 -40 -153 -41 -193 -20
-85 44 -239 21 -402 -60 -239 -119 -500 -362 -663 -619 l-37 -59 17 -62 c15
-56 15 -66 2 -91 -73 -139 -524 -370 -985 -504 -42 -12 -85 -19 -101 -15 -20
4 -32 0 -48 -17 -39 -42 -133 -210 -251 -450 l-117 -237 -65 5 -65 5 68 -25
c103 -38 163 -74 239 -145 285 -263 384 -740 238 -1138 -26 -70 -92 -200 -124
-242 l-26 -35 32 -15 c17 -8 51 -41 76 -73 l45 -58 159 0 c87 0 158 2 158 6 0
3 -18 31 -39 63 -48 70 -123 147 -154 157 -18 6 -11 11 43 29 60 20 67 26 97
76 43 70 89 189 120 309 47 179 34 421 -30 575 -28 68 -82 152 -125 198 -41
42 -34 49 14 12 18 -14 35 -25 38 -25 13 0 75 288 106 493 21 140 29 299 16
354 -6 28 -5 31 12 27 25 -7 324 146 440 225 156 107 292 248 292 303 0 27 17
22 27 -9 9 -26 11 -24 72 64 184 269 500 480 831 555 30 7 114 12 185 13 109
0 142 -4 205 -23 90 -28 157 -69 208 -127 l37 -42 105 -12 c285 -33 499 -104
540 -182 8 -14 9 -51 5 -113 l-7 -93 -47 46 c-60 61 -184 121 -339 166 -68 19
-131 35 -139 35 -9 0 -45 28 -81 62 -117 109 -268 160 -472 160 -251 -1 -487
-79 -715 -238 -92 -64 -231 -202 -285 -284 -24 -36 -45 -67 -47 -70 -2 -2 -8
2 -13 10 -8 12 -10 9 -10 -11 0 -47 -30 -126 -69 -186 -71 -105 -289 -302
-336 -303 -15 0 -12 -5 16 -24 161 -110 249 -520 208 -979 -13 -149 -59 -389
-94 -484 l-25 -71 26 -57 c16 -34 29 -83 31 -120 l5 -62 -62 -6 c-35 -4 -64
-6 -66 -5 -1 2 4 28 12 58 20 78 18 195 -6 272 -11 36 -41 94 -71 136 l-51 73
16 72 c81 377 91 858 21 1057 -42 118 -78 151 -182 165 -54 7 -67 -1 -39 -24
50 -41 63 -347 27 -631 -20 -154 -56 -358 -65 -368 -3 -3 -35 23 -72 57 -36
34 -68 60 -71 57 -3 -3 10 -24 30 -48 88 -109 130 -245 130 -428 1 -105 -4
-143 -27 -235 -34 -133 -109 -301 -138 -308 -27 -7 -16 -23 21 -30 40 -8 126
-96 189 -193 28 -42 53 -81 54 -86 2 -5 72 -7 156 -6 l152 3 -52 89 c-60 104
-161 216 -222 245 -23 12 -59 21 -79 21 -20 0 -37 2 -37 4 0 2 14 36 30 77 96
232 104 473 21 638 -17 33 -29 61 -27 61 2 0 29 -31 60 -68 142 -174 169 -363
85 -604 -15 -45 -27 -84 -25 -86 2 -1 33 2 68 8 95 17 152 -1 238 -74 58 -49
124 -138 171 -230 l44 -86 138 0 137 0 -15 38 c-53 126 -148 261 -225 317 -49
36 -148 78 -162 69 -15 -9 -8 13 11 37 67 86 138 281 171 471 88 518 -37 1103
-269 1249 l-45 29 60 0 c303 -1 556 -567 514 -1153 -17 -238 -72 -424 -167
-565 -24 -36 -43 -66 -43 -67 0 -2 17 -6 37 -10 130 -24 263 -154 350 -341
l34 -74 119 0 120 0 -17 43 c-53 132 -176 278 -274 324 -55 26 -59 30 -54 57
15 85 131 249 210 298 58 35 -5 20 -73 -18 -53 -30 -64 -33 -58 -18 21 53 56
213 66 305 29 258 -33 597 -153 835 -55 109 -146 235 -213 292 -60 52 -157
102 -213 109 -22 3 -41 7 -41 8 0 2 18 30 40 63 22 32 52 90 66 128 22 58 25
81 22 141 -5 70 -4 75 30 125 19 29 71 89 116 133 362 359 970 453 1329 207
41 -29 99 -87 145 -147 13 -16 21 -22 18 -12 -8 24 7 22 88 -15 81 -36 197
-108 240 -147 37 -33 86 -110 86 -133 0 -10 4 -18 9 -18 8 0 18 75 23 173 1
21 5 40 9 43 4 2 31 -7 60 -20 179 -79 627 -207 723 -207 l48 0 -72 -34 c-266
-128 -442 -415 -469 -767 -26 -331 78 -642 284 -850 52 -52 74 -68 106 -73 21
-4 41 -11 44 -15 3 -5 -8 -35 -24 -67 -38 -74 -64 -139 -113 -283 -42 -125
-138 -437 -138 -452 0 -5 64 -7 146 -6 l145 3 113 336 c62 184 115 343 119
353 6 14 10 15 28 6 35 -19 33 -3 -5 42 -82 95 -120 220 -120 393 1 302 145
609 406 861 144 139 297 224 463 259 93 19 152 19 233 0 78 -18 120 -40 196
-99 33 -26 63 -45 67 -44 14 5 250 210 407 352 151 137 222 215 222 243 0 8
-15 35 -32 61 -18 25 -36 50 -39 55 -6 8 -68 -28 -139 -81 -97 -71 -454 -329
-539 -389 l-104 -73 -31 21 c-342 228 -842 -5 -1096 -511 -100 -201 -135 -353
-127 -560 8 -205 52 -330 155 -442 82 -88 41 -69 -53 25 -64 64 -91 100 -124
167 -67 137 -85 227 -85 410 0 136 4 168 28 263 124 487 498 837 869 814 45
-2 108 -14 139 -24 l58 -20 97 60 c399 245 772 452 838 463 28 4 33 0 63 -50
37 -63 34 -61 227 -100 359 -73 668 -58 779 39 16 14 32 25 36 25 4 0 40 19
79 42 40 22 111 56 159 74 l87 33 -3 48 -3 48 25 -68 c24 -68 103 -204 131
-227 13 -11 15 -3 15 60 0 61 -4 78 -23 104 -71 94 -127 229 -148 355 -11 65
-13 70 -28 56 -9 -9 -67 -47 -130 -84 -63 -37 -118 -77 -122 -87 -4 -10 -8
-35 -9 -54 -3 -150 -173 -238 -493 -256 -172 -10 -355 12 -614 73 -13 3 -30
22 -42 47 -10 23 -27 48 -35 55 -75 62 -633 -174 -1146 -484 -80 -49 -91 -52
-173 -59 -370 -30 -684 -372 -773 -842 -23 -123 -15 -365 16 -479 40 -146 125
-295 220 -384 36 -34 137 -101 151 -101 7 0 9 -3 6 -7 -9 -8 -80 23 -147 67
-174 111 -300 312 -353 560 -26 122 -27 318 -3 443 74 383 308 672 611 752 41
11 93 15 167 13 61 -1 112 2 117 7 9 9 53 137 48 141 -1 1 -22 -2 -47 -6 -171
-33 -780 141 -1227 350 l-103 49 0 81 c0 45 -4 90 -10 100 -12 23 -93 54 -180
68 -94 16 -316 32 -451 32 -115 0 -117 0 -134 27 -10 15 -33 41 -52 58 l-34
31 158 13 c216 17 590 25 633 14 29 -8 35 -14 38 -39 6 -69 5 -68 184 -157
429 -213 1064 -466 1217 -484 47 -5 52 -4 79 25 33 35 236 136 427 212 229 92
409 140 547 147 128 7 146 -1 179 -77 20 -47 25 -51 73 -65 84 -24 214 -44
342 -55 281 -23 572 38 721 151 51 38 80 81 106 160 4 13 124 98 228 162 20
12 29 28 35 64 l8 48 7 -82 c4 -45 15 -110 23 -145 16 -63 90 -225 120 -263
14 -19 15 -13 16 78 0 83 -4 106 -24 152 -65 142 -91 269 -84 419 3 58 2 106
-2 106 -5 0 -27 -79 -45 -162 -3 -15 -13 -32 -23 -37 -9 -5 -69 -48 -132 -95
-109 -80 -136 -94 -123 -61 3 8 1 15 -4 15 -4 0 -17 -23 -27 -52 -22 -62 -101
-145 -190 -197 -67 -40 -219 -93 -328 -115 -170 -35 -409 -31 -598 10 -102 22
-123 35 -143 84 -16 42 -16 42 6 36 256 -70 536 -67 781 11 221 70 413 215
461 350 32 90 34 92 34 26 1 -35 4 -63 9 -63 4 0 54 41 112 92 58 50 132 114
165 141 51 43 63 60 81 111 22 66 52 124 38 76 -3 -14 -9 -82 -11 -151 -5
-121 10 -247 37 -314 5 -11 9 175 9 415 l0 435 -29 -34 -30 -35 26 -44 c30
-50 27 -65 -29 -136 -62 -82 -363 -406 -376 -406 -4 0 -8 33 -9 73 l-2 72 70
85 c126 151 260 361 260 407 0 10 27 45 60 78 60 59 60 60 60 117 l0 58 -40
-29 c-36 -26 -46 -28 -102 -24 -46 3 -59 1 -48 -6 8 -6 32 -11 53 -11 44 0 46
-7 6 -39 l-31 -24 -24 29 c-13 16 -23 34 -24 40 0 20 95 96 168 133 41 21 42
23 42 71 0 36 -4 50 -14 50 -44 0 -265 -137 -265 -165 0 -5 8 -21 19 -35 28
-36 25 -40 -23 -40 -64 0 -73 12 -69 95 l4 70 58 43 c66 48 189 108 247 120
38 8 38 8 41 60 l3 52 -33 0 c-89 0 -223 -54 -326 -132 l-66 -50 -28 33 c-15
19 -28 38 -28 44 0 5 25 33 56 62 91 86 234 143 362 143 l63 0 -3 63 -3 62
-55 3 c-75 5 -192 -15 -268 -45 -75 -30 -152 -97 -193 -167 l-30 -51 6 45 c4
25 9 53 11 63 7 22 -9 21 -71 -7 l-50 -22 -57 40 c-57 41 -69 56 -45 56 7 0
60 16 118 35 57 19 107 35 112 35 4 0 7 -10 8 -22 0 -22 1 -22 12 -4 77 125
194 173 394 163 l113 -5 0 63 0 64 -57 13 c-32 7 -103 13 -158 13 -147 0 -194
-23 -275 -134 -15 -20 -139 -56 -375 -107 -78 -17 -79 -17 -55 -32 55 -35 118
-110 139 -166 22 -59 48 -242 36 -254 -3 -4 -13 2 -21 12 -20 28 -18 13 12
-73 52 -150 41 -343 -30 -517 -69 -170 -217 -354 -365 -453 -80 -54 -227 -124
-306 -146 -77 -21 -254 -30 -325 -17 -30 6 -57 9 -59 7 -2 -2 -1 -15 3 -29 8
-34 86 -50 241 -51 188 0 352 52 534 169 89 57 222 188 281 275 113 169 171
385 143 538 -6 29 -6 56 -2 60 5 5 16 44 25 88 22 106 16 256 -13 314 -11 23
-19 41 -16 41 5 0 76 -56 110 -86 55 -50 73 -155 49 -292 -18 -101 -66 -238
-83 -235 -8 2 -9 -22 -6 -75 9 -135 -40 -300 -127 -427 -150 -218 -423 -381
-714 -426 -91 -15 -263 -6 -342 16 -51 14 -63 22 -80 52 -10 20 -41 53 -69 73
-49 37 -177 90 -216 90 -22 0 -25 22 -5 39 20 17 54 92 66 148 16 68 13 225
-5 318 -16 85 -52 202 -67 222 -6 7 -5 20 4 35 8 15 13 59 13 128 -1 92 -5
117 -34 203 -19 53 -37 97 -42 97 -5 0 -9 29 -9 64 0 329 -275 675 -658 827
-153 61 -222 74 -402 74 -199 0 -295 -19 -303 -61 -6 -31 4 -37 40 -23 43 17
259 23 339 10 344 -59 662 -290 813 -588 92 -183 112 -351 65 -543 l-6 -25 20
24 20 25 7 -78 c13 -134 -11 -252 -62 -308 -22 -24 -8 -36 16 -14 19 17 20 17
35 -12 53 -102 96 -277 96 -388 0 -114 -20 -172 -81 -236 -28 -29 -47 -44 -44
-33 32 90 26 184 -21 324 -23 71 -95 225 -114 244 -4 5 -21 1 -36 -10 l-29
-18 27 35 c14 19 36 60 47 90 25 64 44 182 31 190 -5 3 1 32 13 65 16 46 22
91 25 191 4 118 1 141 -23 229 -98 362 -421 680 -779 770 -118 30 -224 38
-311 26 -40 -6 -74 -6 -79 -1 -5 5 -21 -16 -37 -48 -16 -32 -29 -57 -29 -58 0
-1 35 -4 78 -7 107 -9 183 -30 282 -80 319 -159 541 -518 557 -902 8 -200 -20
-335 -104 -484 -52 -93 -217 -252 -312 -300 -54 -28 -49 -35 12 -17 46 14 47
14 84 -16 85 -67 246 -224 304 -296 85 -105 109 -144 129 -204 l17 -51 41 58
c36 49 42 66 42 107 0 56 -26 124 -84 218 -43 71 -166 228 -215 274 l-31 30
-37 -18 c-38 -18 -38 -18 20 42 31 33 57 65 57 71 0 5 22 35 48 65 62 70 117
184 143 294 30 127 23 339 -15 467 -33 110 -99 251 -157 336 -68 101 -194 225
-299 294 -143 95 -274 140 -430 148 -86 4 -75 22 15 25 196 8 371 -51 571
-193 72 -52 200 -185 256 -268 60 -89 133 -250 159 -352 32 -126 32 -298 1
-408 -24 -86 -60 -164 -100 -216 -20 -27 -22 -33 -8 -28 14 6 16 3 11 -14 -13
-41 -73 -134 -105 -162 -43 -38 -30 -46 20 -13 22 15 45 24 50 21 15 -9 116
-166 148 -230 62 -124 89 -265 61 -317 -15 -28 -5 -33 25 -13 21 14 54 17 183
18 171 2 233 -8 318 -50 28 -13 60 -36 72 -51 19 -23 22 -24 23 -8 0 13 5 16
18 11 94 -37 295 -52 432 -31 314 48 583 203 727 419 66 99 94 182 101 295 4
87 8 100 49 175 24 45 59 124 76 174 l32 93 58 0 57 0 0 -39 c0 -76 -101 -290
-201 -426 -35 -49 -37 -54 -41 -152 -3 -91 -7 -107 -40 -174 -103 -208 -344
-367 -658 -435 -65 -14 -124 -18 -250 -17 -143 0 -177 4 -253 25 -48 14 -90
21 -93 17 -3 -5 0 -18 6 -29 13 -25 13 -25 -46 3 -44 20 -64 22 -189 21 -111
-1 -165 -7 -262 -28 -150 -33 -370 -102 -377 -119 -3 -8 -8 -7 -16 6 -75 119
-312 323 -607 522 l-101 69 96 46 c127 62 212 127 277 214 64 87 95 146 128
251 104 332 23 738 -203 1022 -97 122 -264 237 -400 277 -68 20 -217 31 -250
18 -17 -6 -34 -5 -58 5 -49 20 -62 11 -20 -15 89 -55 161 -171 198 -316 25
-99 27 -293 5 -422 -31 -174 -112 -374 -220 -540 -52 -79 -236 -261 -307 -302
-59 -35 -167 -75 -229 -86 l-36 -6 -17 64 c-19 77 -20 86 -5 86 6 0 48 24 94
54 223 146 423 416 525 712 63 181 86 402 56 544 -17 83 -65 187 -102 221 -32
30 -30 36 9 44 101 23 211 94 253 165 26 45 35 52 90 69 106 33 248 46 376 33
416 -43 786 -288 911 -603 26 -64 51 -218 40 -246 -3 -7 0 -13 6 -13 6 0 11 6
11 13 1 18 46 -57 87 -143 38 -81 73 -204 73 -255 0 -18 -5 -46 -11 -64 -9
-26 -8 -41 5 -74 34 -89 56 -229 56 -356 0 -196 -35 -305 -132 -408 -49 -51
-50 -53 -19 -42 17 6 33 14 36 18 2 5 21 5 42 2 49 -8 153 5 220 29 120 42
260 154 342 274 203 295 237 731 82 1061 -22 47 -54 106 -71 132 -28 41 -30
49 -19 75 6 15 15 31 20 34 24 15 142 -136 194 -248 66 -145 102 -331 90 -478
-28 -370 -219 -692 -485 -821 -70 -34 -190 -69 -236 -69 -43 0 -47 -8 -20 -44
13 -17 27 -42 31 -55 4 -13 10 -19 14 -14 3 5 58 9 121 10 139 0 206 17 346
84 233 111 414 312 509 564 77 205 74 470 -8 633 -13 26 -22 53 -19 60 7 21
-19 114 -48 172 -37 74 -94 134 -158 169 l-53 28 103 7 c164 11 434 53 556 85
37 10 40 14 46 56 8 53 46 102 93 121 61 26 231 10 336 -31 16 -7 18 -1 15 66
l-3 74 -70 27 c-107 41 -191 53 -246 34 -81 -28 -232 -39 -443 -33 -195 6
-277 16 -400 52 -46 14 -56 20 -51 33 20 48 19 51 -23 45 -106 -14 -465 101
-816 260 -83 38 -103 51 -117 80 -10 19 -41 55 -69 80 -173 156 -611 197
-1015 96 -88 -22 -163 -47 -182 -61 -7 -5 -19 -32 -29 -60 -13 -41 -22 -53
-52 -65 -79 -33 -327 -8 -574 57 -278 73 -578 180 -578 206 0 66 -406 -102
-908 -378 -152 -83 -166 -89 -194 -79 -17 6 -33 11 -35 11 -2 0 23 -25 56 -56
74 -68 123 -142 157 -231 168 -441 -83 -1052 -526 -1282 -79 -42 -203 -81
-255 -81 -16 0 -37 -5 -45 -10 -12 -7 -6 -12 24 -25 32 -13 50 -14 105 -6 194
30 372 131 537 303 212 222 328 479 341 753 8 182 -32 327 -119 438 l-33 42
32 -23 32 -23 398 239 c219 131 419 250 444 265 l47 26 36 -54 c20 -30 36 -59
36 -64 0 -27 -306 -269 -613 -485 l-139 -98 -26 23 c-15 13 -44 39 -64 58 -43
40 -50 33 -14 -13 37 -49 72 -126 85 -184 16 -76 14 -230 -5 -320 -87 -421
-480 -832 -874 -914 -35 -7 -73 -20 -84 -30 -12 -9 -37 -31 -58 -48 -65 -55
-257 -322 -325 -453 -14 -29 -17 -30 -23 -12 -41 105 -318 182 -736 205 -323
18 -664 -14 -874 -81 -77 -25 -108 -40 -149 -75 l-31 -26 0 70 0 70 -77 84
c-139 151 -292 247 -462 289 -104 26 -274 23 -356 -7 -78 -28 -163 -82 -227
-144 -62 -62 -75 -83 -30 -54 201 133 409 155 649 69 176 -63 312 -161 438
-316 l60 -74 -3 -63 -3 -63 -26 38 c-213 315 -624 485 -964 398 -92 -23 -203
-81 -264 -137 -29 -26 -56 -48 -59 -48 -4 0 13 26 37 58 36 47 48 73 65 147
11 50 22 105 24 124 l3 35 -83 12 c-72 10 -88 16 -117 44 -44 43 -80 125 -102
235 -27 137 -24 446 6 620 56 320 148 577 261 730 42 57 112 115 137 115 9 0
-5 22 -33 53 -129 142 -213 323 -202 435 2 28 0 42 -8 42 -7 0 -16 15 -19 33
-13 58 -82 191 -144 273 -64 86 -152 173 -226 224 l-45 31 0 -63z m7615 -752
c120 -27 177 -46 263 -88 98 -49 163 -103 201 -170 16 -27 31 -45 35 -40 3 6
3 17 0 26 -3 9 -3 16 0 16 4 0 102 -47 219 -104 332 -162 517 -242 596 -256
25 -4 100 -18 166 -30 154 -28 430 -31 610 -6 65 9 123 16 127 16 8 0 -19 -78
-31 -92 -11 -13 -270 -48 -417 -58 -144 -9 -327 -1 -433 20 -56 10 -71 7 -71
-15 0 -8 -4 -17 -10 -20 -5 -3 -110 54 -232 126 -419 247 -507 299 -514 299
-3 0 -3 -28 0 -62 l6 -63 -21 42 c-62 124 -222 241 -424 310 -253 86 -609 89
-858 7 -43 -14 -80 -24 -83 -22 -6 7 16 71 30 85 17 17 160 59 266 77 52 8
106 18 120 20 59 10 388 -2 455 -18z m-1799 -195 c13 -13 239 -58 377 -76 218
-28 424 -13 489 35 35 26 35 26 30 -12 -4 -24 -2 -30 10 -26 139 54 276 78
440 78 502 0 942 -266 975 -590 6 -54 9 -58 105 -158 179 -187 288 -356 273
-425 -11 -54 -9 -79 18 -170 109 -370 7 -797 -225 -949 -83 -54 -98 -54 -37 1
62 56 127 170 155 276 35 131 29 381 -13 532 -9 32 -16 101 -17 153 -1 90 -3
100 -43 182 -50 103 -97 179 -169 269 -38 48 -54 77 -54 98 0 52 -48 184 -91
249 -131 201 -376 352 -681 423 -73 17 -127 22 -248 23 -160 1 -246 -10 -349
-46 -65 -22 -65 -22 -57 -3 8 23 -4 18 -26 -11 -43 -54 -134 -94 -258 -115
-89 -15 -297 -18 -324 -5 -17 8 -18 7 -10 -20 17 -56 9 -204 -16 -274 -71
-203 -235 -452 -438 -662 -94 -98 -91 -83 -36 -204 19 -41 34 -84 34 -95 0
-54 -88 -166 -205 -262 -110 -89 -412 -255 -590 -322 -145 -55 -238 -84 -249
-78 -50 30 -87 63 -75 67 271 92 502 209 697 354 156 115 283 257 317 352 28
79 21 122 -40 233 l-55 100 133 136 c266 274 429 536 431 693 l1 68 -57 57
-58 58 0 -42 c0 -55 -50 -150 -143 -273 -65 -86 -428 -460 -447 -460 -5 0 -31
31 -59 69 -67 91 -87 107 -65 56 132 -317 -213 -847 -716 -1100 -77 -39 -236
-95 -268 -95 -19 0 -96 39 -90 45 2 2 32 11 68 20 388 100 776 484 891 880 33
114 33 288 1 359 -12 27 -21 51 -18 53 2 2 20 -17 41 -42 21 -25 44 -45 51
-45 27 0 343 270 490 418 93 95 174 196 174 218 0 16 12 18 26 5z m2422 -400
c205 -137 491 -362 512 -402 9 -16 5 -29 -20 -70 l-31 -50 35 -75 c146 -311
147 -669 1 -969 -45 -93 -65 -122 -131 -188 -78 -78 -176 -144 -247 -167 -54
-17 -57 -5 -5 18 92 41 190 145 262 277 73 133 106 277 106 461 0 137 -20 256
-67 397 -33 100 -34 109 -19 126 42 46 3 114 -151 268 -60 60 -159 150 -221
202 -98 83 -112 98 -112 125 0 17 -3 48 -6 69 -4 20 -4 37 0 37 4 0 46 -26 94
-59z m-1638 -141 c120 -61 235 -194 294 -343 50 -125 67 -213 73 -367 12 -336
-95 -637 -302 -846 -112 -113 -246 -181 -377 -191 -76 -6 -81 -19 -10 -28 115
-17 1005 -546 1185 -705 l42 -38 -29 -61 c-17 -33 -36 -61 -43 -61 -19 0
-1475 735 -1509 761 -14 11 -924 -128 -924 -141 0 -3 18 -23 40 -45 21 -22 39
-43 40 -47 0 -4 -24 4 -54 18 -221 101 -582 10 -893 -225 -134 -102 -303 -283
-365 -393 -12 -21 -25 -38 -29 -38 -3 0 -12 21 -19 46 -16 57 -8 75 81 194
165 219 375 393 603 500 145 68 210 84 341 85 102 0 114 -2 165 -29 43 -22 51
-25 40 -10 -8 11 -22 24 -30 31 -13 10 -11 12 10 17 377 87 736 184 852 231
37 15 65 21 72 16 24 -20 124 -41 191 -41 148 0 293 69 431 205 187 184 301
425 340 720 44 333 -57 650 -250 782 -60 41 -45 43 34 3z m144 -2 c251 -105
446 -379 506 -708 89 -498 -137 -953 -525 -1056 -33 -9 -103 -18 -155 -20
l-95 -4 64 15 c332 76 571 431 588 871 11 277 -52 503 -193 691 -80 107 -199
199 -304 234 -18 7 -13 7 19 4 24 -3 67 -15 95 -27z m2171 -141 c76 -27 163
-102 209 -182 30 -51 33 -63 9 -44 -9 8 6 -16 34 -53 188 -247 209 -590 54
-913 -106 -222 -286 -400 -491 -486 -114 -48 -317 -75 -327 -43 -2 7 20 14 61
18 285 29 557 262 684 586 54 138 67 215 66 390 -1 149 -3 174 -27 253 -48
158 -106 250 -256 407 -44 47 -81 87 -81 89 0 2 8 0 18 -4 9 -4 31 -12 47 -18z
m1150 -2344 c4 -17 1 -23 -11 -23 -22 0 -122 -45 -206 -92 -37 -21 -71 -38
-76 -38 -5 0 -4 24 2 55 11 54 12 56 81 96 39 23 97 54 130 70 l60 29 7 -38
c5 -20 10 -47 13 -59z m-9917 -290 c4 -30 -15 -29 -53 2 l-30 25 40 -2 c33 -3
41 -7 43 -25z m2637 -512 c35 -12 51 -24 53 -38 5 -36 -43 -252 -113 -498 -37
-132 -71 -244 -75 -248 -4 -5 -26 2 -49 14 -23 12 -44 19 -46 17 -3 -3 22 -26
55 -51 171 -133 270 -370 270 -645 0 -134 -13 -228 -46 -337 -29 -97 -141
-325 -159 -325 -8 0 -34 -9 -59 -20 -25 -10 -46 -18 -46 -16 0 2 20 36 44 76
52 84 97 193 127 305 31 116 39 391 14 501 -53 241 -177 440 -340 546 -57 38
-58 39 -25 33 l36 -6 48 128 c149 395 228 583 244 582 10 0 40 -8 67 -18z
m1352 -1790 c-19 -21 -47 -59 -62 -85 -27 -46 -37 -51 -83 -38 -22 7 -22 8 15
44 35 33 150 118 161 118 2 0 -11 -17 -31 -39z"/>
<path d="M0 6902 c0 -46 3 -53 32 -73 100 -70 216 -206 260 -305 16 -37 22
-43 34 -33 22 18 17 46 -22 123 -59 117 -153 227 -261 307 l-43 31 0 -50z"/>
<path d="M0 6723 c0 -34 5 -41 46 -67 88 -55 223 -210 202 -231 -3 -3 -41 29
-85 72 -44 43 -99 88 -122 101 l-41 23 0 -33 c1 -30 7 -36 63 -68 34 -19 92
-65 129 -102 38 -37 68 -61 68 -53 0 8 7 29 16 48 15 32 15 34 -21 95 -42 73
-140 181 -201 223 -24 16 -45 29 -48 29 -3 0 -6 -17 -6 -37z"/>
<path d="M2 6469 c3 -28 8 -34 43 -44 22 -6 60 -22 85 -35 48 -24 123 -80 117
-86 -2 -2 -35 12 -73 31 -40 21 -91 38 -121 42 l-53 6 0 -30 0 -30 83 -6 c58
-4 99 -13 140 -32 61 -28 79 -29 52 -1 -9 9 -13 16 -10 16 4 0 -7 18 -25 39
-39 51 -112 104 -185 136 l-56 25 3 -31z"/>
<path d="M43 6258 l-43 -9 0 -55 0 -54 37 18 c92 46 208 70 266 54 40 -11 48
-4 18 15 -58 36 -191 51 -278 31z"/>
<path d="M783 6071 c-105 -65 -222 -385 -273 -751 -34 -239 -31 -576 6 -760
21 -101 67 -196 107 -221 46 -28 133 -26 170 4 l28 22 -16 39 c-46 109 -75
370 -75 671 0 420 82 879 176 980 13 14 24 28 24 31 0 2 -26 4 -57 4 -40 0
-68 -6 -90 -19z"/>
<path d="M1 4229 l0 -224 25 85 c36 127 76 311 70 325 -2 7 -17 15 -33 18 -15
3 -36 9 -45 12 -17 7 -18 -7 -17 -216z"/>
<path d="M4645 3045 c-263 -41 -487 -154 -653 -330 -106 -112 -111 -123 -83
-179 12 -25 24 -68 28 -95 6 -49 15 -62 28 -41 9 14 78 57 146 91 139 69 328
93 503 65 405 -67 746 -345 866 -706 16 -47 32 -111 35 -142 4 -32 11 -58 16
-58 5 0 16 14 24 31 23 43 26 33 9 -31 -21 -80 -18 -211 7 -311 23 -93 87
-236 141 -315 l35 -52 -38 -6 c-106 -17 -224 -186 -291 -416 -31 -107 -66
-317 -74 -437 l-7 -113 132 0 c72 0 131 1 131 3 0 23 25 197 41 277 61 321
170 575 276 639 47 29 54 41 22 41 -24 0 -29 5 -101 110 -139 201 -207 480
-164 674 10 42 36 114 58 159 l41 81 -22 66 c-28 79 -68 150 -86 150 -7 0 -16
16 -19 35 -27 144 -183 340 -357 448 -268 167 -661 205 -959 94 -127 -48 -233
-112 -319 -194 -48 -46 -78 -68 -83 -61 -24 40 156 206 307 285 182 94 313
126 525 127 157 0 210 -7 345 -46 213 -62 403 -212 485 -382 22 -45 40 -88 40
-94 0 -7 5 -12 11 -12 7 0 9 10 5 26 -9 36 3 28 64 -41 69 -78 120 -184 120
-247 0 -50 16 -74 24 -36 14 67 28 128 30 128 1 0 23 -7 49 -16 l46 -16 -54
-64 c-110 -130 -157 -266 -158 -459 0 -177 37 -321 127 -492 42 -79 138 -216
167 -239 8 -6 40 -15 72 -19 l58 -7 -39 -42 c-82 -89 -154 -257 -222 -518 -39
-151 -70 -303 -70 -339 0 -18 9 -19 138 -19 l137 0 33 139 c76 321 204 650
276 707 l35 28 -61 65 c-194 207 -301 513 -285 811 10 179 50 317 135 465 51
87 192 223 272 262 81 40 51 44 -52 7 -236 -85 -387 -259 -460 -528 -32 -118
-32 -362 1 -490 52 -206 143 -384 260 -509 24 -26 42 -49 40 -51 -8 -6 -129
18 -129 26 0 4 -12 22 -27 39 -107 119 -195 285 -243 454 -69 247 -44 518 66
701 47 78 139 170 219 219 36 22 65 43 65 47 0 3 -15 10 -32 13 -30 7 -272 84
-309 100 -14 5 -18 -3 -23 -42 -4 -26 -9 -61 -13 -77 -5 -29 -6 -29 -23 18
-10 26 -37 71 -59 101 -44 58 -201 183 -242 191 -16 4 -33 19 -44 41 -30 55
-156 164 -242 210 -186 99 -420 134 -648 98z m122 -316 c237 -31 454 -129 610
-273 160 -148 263 -360 263 -545 0 -37 2 -42 15 -31 23 19 19 -4 -7 -43 -13
-19 -28 -43 -35 -53 -10 -17 -12 -15 -12 16 -2 60 -40 201 -76 275 -141 292
-447 508 -809 570 -231 39 -474 -9 -656 -131 -45 -30 -83 -54 -86 -54 -18 0 7
33 59 78 176 150 471 227 734 191z"/>
<path d="M10005 2879 c-49 -16 -135 -55 -192 -85 -98 -52 -103 -57 -114 -97
-14 -52 -23 -64 -68 -84 -55 -25 -283 -22 -436 5 -115 20 -291 62 -327 77 -28
11 -21 -15 12 -55 17 -19 30 -46 30 -61 0 -72 -116 -226 -346 -459 l-183 -184
-70 67 c-42 41 -93 78 -128 95 -54 25 -67 27 -188 27 -101 0 -143 -4 -190 -19
-251 -81 -479 -256 -657 -507 -207 -290 -275 -637 -166 -854 26 -53 96 -140
105 -131 2 1 -6 23 -16 47 -36 81 -45 172 -27 275 81 467 589 956 1054 1015
72 9 100 8 162 -5 94 -20 150 -54 219 -136 30 -36 57 -66 61 -68 3 -1 37 34
75 78 39 44 77 82 85 85 17 6 116 136 183 240 98 154 151 292 129 340 -6 14
-8 25 -4 25 4 0 54 -14 112 -30 176 -51 297 -73 406 -74 96 -1 102 0 138 27
62 47 235 124 318 141 42 9 107 16 143 16 36 0 65 2 65 4 0 3 -4 17 -10 33
l-10 28 18 -24 c9 -14 25 -34 34 -45 17 -20 17 -19 18 32 0 46 -5 60 -36 100
-20 26 -51 80 -71 120 -19 39 -35 72 -36 71 -1 0 -42 -14 -92 -30z m131 -134
c7 -22 14 -43 14 -46 0 -3 -31 -9 -68 -12 -93 -8 -213 -49 -324 -112 -51 -29
-94 -51 -96 -50 -11 9 26 89 47 104 102 72 328 164 389 158 18 -1 27 -12 38
-42z"/>
<path d="M2244 2540 c-146 -73 -430 -430 -604 -759 -19 -34 -43 -67 -54 -71
-20 -7 -20 -8 4 -13 14 -3 57 -8 95 -11 256 -17 523 -245 661 -564 59 -138 85
-257 91 -422 4 -121 2 -161 -16 -245 -34 -168 -102 -309 -193 -408 l-44 -47
50 0 49 0 -21 23 -22 24 39 18 c47 21 77 51 125 126 52 84 101 210 126 328 20
91 22 123 17 265 -6 174 -20 247 -76 392 -106 275 -330 492 -555 539 -58 11
-60 12 -28 19 17 4 32 12 32 17 0 5 34 70 75 145 182 327 349 553 433 585 24
9 25 10 6 23 -103 69 -119 72 -190 36z"/>
<path d="M10010 2504 c-14 -2 -51 -9 -83 -15 -126 -23 -326 -139 -354 -206 -8
-19 -12 -37 -9 -40 3 -3 24 11 48 30 41 33 129 82 193 107 119 47 290 53 418
14 15 -5 17 2 17 44 0 43 -3 51 -22 55 -33 9 -179 16 -208 11z"/>
<path d="M4235 2493 c-134 -29 -266 -94 -341 -169 -22 -22 -56 -47 -75 -55
l-34 -14 75 -6 c140 -12 251 -69 371 -189 256 -258 410 -761 344 -1125 -8 -44
-18 -97 -21 -118 l-7 -37 36 15 c20 8 39 15 42 15 3 0 -24 -28 -59 -62 -69
-69 -119 -156 -155 -272 -32 -103 -30 -109 34 -135 117 -48 219 -149 286 -283
l29 -58 91 0 90 0 -28 53 c-41 78 -154 185 -236 225 l-69 33 7 52 c31 229 148
442 279 509 53 27 34 33 -42 14 -33 -9 -64 -16 -70 -16 -6 0 -4 21 3 55 72
307 -32 733 -250 1022 -64 86 -191 202 -271 250 -104 61 -176 84 -284 92 l-95
6 62 14 c122 27 274 7 403 -52 409 -187 705 -762 626 -1215 -9 -52 -21 -103
-27 -114 -6 -11 -9 -22 -6 -24 2 -2 36 1 75 8 l71 12 20 50 c80 201 79 384 -5
636 -116 350 -398 639 -719 740 -102 32 -258 37 -350 12 -38 -10 -79 -22 -90
-27 -11 -4 -6 2 11 13 137 88 377 106 574 41 338 -110 644 -428 739 -769 44
-159 46 -354 6 -475 -32 -94 -97 -205 -130 -221 -152 -72 -282 -342 -301 -629
l-6 -90 50 -28 c28 -15 82 -61 120 -102 67 -71 72 -75 114 -75 l43 1 -39 34
-39 35 7 106 c20 307 109 570 238 703 58 59 112 81 199 81 53 0 69 3 69 14 0
8 -5 18 -11 22 -21 13 -97 188 -113 261 -20 91 -20 185 0 252 20 67 12 75 -18
19 l-23 -43 -2 35 c-21 299 -193 589 -465 783 -97 69 -258 143 -372 172 -80
20 -121 25 -220 24 -66 -1 -130 -3 -141 -6z m1131 -1233 c-8 -40 17 -173 43
-234 12 -27 20 -51 17 -53 -11 -12 -114 -15 -121 -4 -4 7 -7 42 -7 79 0 61 12
111 51 215 14 36 25 35 17 -3z"/>
<path d="M9108 2332 c3 -43 -2 -92 -12 -133 -21 -78 -95 -235 -165 -349 -76
-122 -210 -297 -231 -303 -14 -4 -30 12 -64 64 -74 112 -136 146 -277 156
-172 12 -399 -65 -629 -214 -353 -229 -610 -593 -610 -864 0 -48 6 -94 15
-116 8 -19 15 -44 15 -54 0 -20 -62 -218 -128 -406 l-39 -113 152 0 151 0 29
87 c19 58 29 108 29 153 1 57 6 74 36 124 94 155 344 348 651 502 308 154 542
226 744 228 82 1 108 -3 146 -20 45 -21 48 -25 90 -128 24 -58 47 -106 51
-106 11 0 110 127 168 216 65 99 148 271 190 392 98 289 93 594 -13 710 -11
12 -17 22 -13 22 20 0 66 -33 103 -73 178 -193 176 -609 -4 -1012 -46 -102
-129 -239 -192 -318 -57 -71 -148 -163 -155 -156 -3 2 -19 43 -36 89 -17 47
-38 95 -45 107 -66 101 -494 17 -950 -185 -282 -124 -466 -233 -613 -360 -80
-69 -116 -129 -109 -180 8 -61 24 -92 47 -92 11 0 34 12 51 28 118 106 479
277 879 417 331 115 705 185 764 142 10 -7 26 -44 37 -81 10 -38 21 -71 23
-74 11 -10 73 24 140 78 387 308 568 1014 365 1424 -40 81 -71 120 -129 163
l-49 36 37 30 c131 104 343 152 502 113 61 -15 140 -44 155 -58 19 -17 26 -6
23 40 l-3 47 -70 24 c-100 34 -261 35 -360 2 -90 -30 -150 -61 -208 -105 -26
-20 -47 -31 -47 -26 0 6 -12 10 -27 10 -31 0 -204 45 -232 60 -31 16 -32 -1
-1 -36 126 -144 51 -549 -168 -912 -56 -92 -154 -232 -163 -232 -3 0 -22 36
-43 80 -67 140 -105 162 -276 163 -176 2 -343 -45 -595 -168 -408 -198 -743
-522 -775 -749 l-7 -51 -26 55 c-34 74 -39 112 -22 195 62 299 471 684 910
858 230 90 414 105 534 43 25 -13 53 -26 62 -29 9 -3 37 -42 63 -86 27 -45 51
-81 55 -81 4 0 23 21 43 48 208 277 347 586 352 782 2 103 -9 136 -66 196 -28
30 -54 54 -57 54 -4 0 -5 -31 -3 -68z"/>
<path d="M9770 2235 c-80 -18 -158 -49 -200 -80 l-31 -23 74 -40 c138 -76 224
-208 273 -420 37 -159 42 -303 15 -483 -33 -221 -65 -319 -162 -484 -36 -61
-57 -86 -89 -104 -50 -28 -47 -35 10 -22 71 16 186 -12 267 -63 37 -24 43 -46
12 -46 -39 0 -9 -17 41 -23 66 -8 141 -43 208 -96 l52 -41 0 60 0 61 -50 21
c-27 11 -50 26 -50 32 0 19 -85 110 -131 141 -24 16 -49 35 -56 43 -6 8 -36
17 -65 21 l-53 7 42 22 c23 12 49 22 58 22 8 0 15 7 15 15 0 8 11 52 24 97 85
295 71 687 -33 937 -17 41 -31 80 -31 87 0 21 -97 132 -148 169 -26 19 -64 40
-84 47 -21 6 -38 15 -38 19 0 13 99 -19 162 -53 52 -28 75 -50 130 -123 184
-244 256 -613 192 -985 -8 -47 -20 -90 -27 -97 -7 -6 -37 -24 -67 -39 l-54
-28 38 -8 c54 -11 118 -59 173 -129 l48 -62 3 113 c3 121 0 130 -52 157 l-31
16 43 19 43 19 -3 292 -3 292 -34 100 c-60 178 -131 298 -240 403 -92 88 -161
120 -296 136 -16 1 -1 4 35 5 195 4 380 -123 509 -349 l31 -55 0 83 0 84 -62
65 c-71 74 -148 130 -234 169 -52 24 -72 27 -164 28 -58 1 -118 -3 -135 -7
-21 -6 -27 -5 -19 2 19 20 165 43 235 37 114 -10 240 -66 333 -147 l46 -41 0
55 0 55 -57 37 c-118 73 -291 107 -413 80z"/>
<path d="M1 1853 l-1 -192 40 -93 c76 -175 167 -308 285 -416 67 -62 157 -115
213 -127 37 -8 41 -19 12 -37 -11 -7 -20 -17 -20 -22 0 -16 -55 -96 -65 -95
-5 0 -23 16 -38 35 l-29 34 26 0 c14 0 26 5 26 10 0 6 -12 10 -27 10 -44 0
-148 55 -204 107 -68 64 -136 152 -181 238 l-37 70 -1 -147 0 -147 57 -61 c61
-66 134 -110 182 -110 25 0 41 -12 93 -75 34 -41 65 -75 69 -75 3 0 21 18 39
41 74 93 180 134 345 133 120 -1 217 -21 357 -75 120 -47 355 -195 420 -265
84 -92 159 -179 196 -229 70 -95 132 -230 156 -337 6 -25 11 -28 48 -28 l41 0
-6 98 c-7 121 -26 191 -82 309 -59 125 -125 218 -251 354 -111 120 -200 189
-332 257 -161 84 -279 116 -427 116 -111 0 -185 -18 -247 -59 -49 -33 -54 -32
-28 6 12 16 21 31 19 32 -2 1 -30 14 -61 29 -254 121 -495 472 -572 833 l-14
70 -1 -192z"/>
<path d="M0 883 c0 -7 6 -10 14 -7 16 6 113 -119 207 -269 l57 -90 -15 -36
c-8 -20 -22 -49 -30 -65 l-15 -29 -57 109 c-31 60 -80 145 -109 189 l-52 80 0
-101 c0 -100 0 -102 49 -205 27 -57 59 -137 72 -176 13 -40 30 -73 37 -73 6 0
12 7 12 15 0 8 12 44 26 80 31 78 78 123 160 156 54 22 73 24 214 23 139 -1
167 -4 270 -31 192 -51 367 -129 540 -243 125 -82 177 -126 206 -172 l24 -38
100 0 100 0 -24 49 c-26 51 -124 179 -170 220 -14 14 -26 30 -26 37 0 39 -318
250 -479 318 -175 74 -291 100 -446 100 -145 0 -215 -19 -287 -76 -33 -25 -38
-26 -38 -11 -1 10 -43 72 -94 138 l-92 120 -77 0 c-54 0 -77 -4 -77 -12z"/>
<path d="M9472 465 c-49 -15 -76 -31 -150 -92 -58 -47 -71 -51 -106 -28 -21
14 -34 14 -125 1 -219 -33 -500 -106 -916 -239 l-320 -102 500 -2 500 -3 210
53 c198 49 210 53 208 74 -4 32 27 38 187 37 124 0 142 -3 225 -31 89 -31 177
-75 226 -114 21 -17 37 -19 100 -17 l74 3 -54 55 c-30 30 -60 64 -65 75 -16
29 -191 113 -272 130 -127 27 -238 19 -392 -27 -37 -11 -44 -10 -52 2 -22 35
-11 57 40 79 51 22 133 41 178 41 22 0 23 -2 11 -17 -12 -15 -12 -16 2 -11 92
35 246 34 359 -2 97 -31 231 -140 320 -260 68 -92 80 -91 80 4 0 68 -2 76 -35
118 -47 62 -129 132 -192 165 -29 16 -53 31 -53 35 0 10 -63 25 -140 33 -36 4
-68 12 -71 17 -10 15 -118 38 -179 37 -30 0 -74 -6 -98 -14z"/>
<path d="M1 148 l-1 -148 35 0 c25 0 35 5 35 15 0 21 -36 181 -54 235 -14 44
-14 40 -15 -102z"/>
<path d="M405 254 c-115 -10 -198 -40 -248 -89 -21 -21 -67 -132 -67 -161 0
-2 278 -4 618 -4 l617 1 -75 39 c-263 137 -635 231 -845 214z"/>
<path d="M9291 52 c-8 -6 -11 -18 -6 -31 6 -20 11 -21 193 -21 109 0 181 4
172 9 -52 30 -330 63 -359 43z"/>
</g>
</svg>
