<svg version="1.0" xmlns="http://www.w3.org/2000/svg"
 width="1024.000000pt" height="768.000000pt" viewBox="0 0 1024.000000 768.000000"
 preserveAspectRatio="xMidYMid meet">

<g transform="translate(0.000000,768.000000) scale(0.100000,-0.100000)"
fill="#000000" stroke="none">
<path d="M1340 7498 c-94 -101 -169 -189 -168 -197 4 -16 237 -182 328 -233
25 -14 84 -56 132 -94 47 -38 112 -85 144 -104 33 -19 138 -86 234 -149 96
-63 184 -120 195 -127 46 -26 140 -83 228 -136 52 -32 99 -58 105 -58 13 0 61
-32 120 -79 22 -17 61 -41 86 -52 25 -11 57 -31 72 -44 14 -13 45 -33 70 -44
24 -12 52 -29 62 -39 10 -10 35 -26 55 -35 21 -10 52 -31 70 -46 18 -16 55
-40 84 -54 28 -15 53 -30 55 -35 1 -5 37 -29 78 -54 41 -25 120 -73 175 -107
55 -33 104 -61 108 -61 4 0 36 -19 69 -41 61 -42 157 -99 213 -127 17 -8 48
-29 70 -47 22 -18 56 -40 75 -50 19 -10 51 -30 70 -45 19 -15 46 -31 60 -35
57 -16 226 -120 530 -325 47 -31 105 -68 130 -81 25 -14 71 -41 103 -62 31
-20 60 -37 63 -37 3 0 23 -12 45 -27 31 -22 38 -33 34 -50 -5 -20 -1 -23 22
-24 17 -1 21 -3 11 -6 -10 -2 -18 -9 -18 -14 0 -6 -4 -7 -10 -4 -5 3 -10 4
-10 0 0 -3 10 -10 23 -16 19 -8 17 -9 -11 -4 -22 3 -32 1 -31 -8 3 -28 -2 -39
-17 -33 -9 3 -12 2 -9 -5 4 -5 16 -7 27 -3 16 5 20 3 15 -9 -4 -11 -2 -14 8
-11 8 3 22 1 32 -5 14 -8 15 -10 3 -11 -12 0 -12 -2 -2 -9 10 -6 9 -10 -7 -14
-13 -3 -21 0 -21 7 0 6 -9 12 -21 12 -18 0 -18 -2 -5 -12 20 -14 20 -24 2 -24
-11 0 -13 -7 -6 -30 5 -18 5 -30 -1 -30 -5 0 -9 -5 -9 -11 0 -6 6 -9 13 -6 8
3 20 1 28 -4 12 -7 12 -9 -1 -9 -11 -1 -10 -4 5 -16 16 -12 17 -16 6 -23 -9
-6 -10 -11 -2 -15 6 -4 8 -12 5 -18 -4 -6 -10 -5 -15 3 -6 10 -9 8 -9 -8 0
-16 6 -23 20 -23 11 0 20 -4 20 -10 0 -5 -9 -10 -19 -10 -11 0 -23 -4 -26 -10
-3 -6 2 -10 12 -10 15 0 19 -8 19 -35 0 -23 -5 -35 -14 -35 -7 0 -10 -5 -7
-11 4 -5 -1 -19 -11 -30 -14 -16 -14 -19 -2 -19 8 0 15 -7 15 -15 0 -8 -6 -15
-13 -15 -6 0 -14 -9 -17 -20 -4 -14 0 -20 11 -20 10 0 24 -5 32 -11 12 -9 10
-10 -8 -6 -20 5 -22 2 -16 -16 3 -12 13 -27 21 -34 12 -10 12 -12 -6 -18 -11
-3 -22 -18 -26 -35 -4 -17 -13 -30 -22 -30 -11 0 -13 7 -8 28 5 23 2 28 -15
29 -20 2 -27 -17 -13 -31 10 -10 11 -56 1 -56 -4 0 -5 -7 -2 -15 4 -8 1 -15
-6 -15 -6 0 -14 9 -17 20 -3 11 -12 20 -19 20 -19 0 -18 -10 4 -26 16 -13 16
-13 0 -14 -10 0 -27 -9 -38 -20 -19 -19 -18 -25 5 -20 6 1 4 -4 -3 -11 -19
-20 -14 -31 9 -18 14 7 19 17 16 30 -6 22 11 26 19 4 4 -8 12 -15 20 -15 8 0
14 -7 14 -16 0 -12 -6 -15 -25 -10 -18 5 -27 1 -35 -13 -11 -21 2 -37 20 -26
6 3 10 2 10 -4 0 -5 14 -12 30 -16 17 -4 30 -11 30 -16 0 -11 -14 -12 -24 -2
-7 8 -96 43 -96 38 0 -1 7 -19 15 -39 l15 -36 -30 0 c-32 0 -41 -16 -12 -23
13 -4 11 -5 -5 -6 -23 -1 -33 -21 -11 -21 6 0 4 -7 -5 -18 -10 -10 -14 -22
-10 -25 3 -4 -1 -7 -11 -7 -10 0 -14 5 -10 12 4 6 3 8 -4 4 -5 -3 -13 0 -15 6
-3 7 -3 -1 0 -18 4 -23 1 -33 -12 -37 -13 -6 -15 -3 -10 14 7 20 7 21 -12 2
-23 -21 -19 -37 8 -30 10 3 22 1 25 -5 4 -6 10 -5 15 3 6 10 8 7 6 -9 -1 -15
-8 -22 -23 -22 -12 0 -32 -8 -44 -18 -23 -18 -70 -19 -70 -1 0 5 -5 9 -11 9
-5 0 -7 -5 -3 -11 4 -8 -11 -10 -50 -7 -31 1 -56 0 -56 -4 0 -17 40 -47 55
-42 8 4 15 1 15 -5 0 -6 -6 -11 -12 -11 -10 0 -9 -3 1 -9 10 -7 11 -13 2 -27
-9 -17 -10 -17 -11 -1 0 9 -7 17 -15 17 -8 0 -15 -4 -15 -10 0 -5 5 -10 10
-10 6 0 10 -4 10 -10 0 -17 -28 -11 -33 8 -3 9 -4 5 -4 -9 1 -18 6 -25 14 -22
7 3 13 0 13 -7 0 -6 -4 -8 -10 -5 -5 3 -10 1 -10 -5 0 -6 -8 -4 -17 6 -16 15
-17 15 -24 -2 -4 -11 -8 -15 -8 -10 -1 12 -51 -42 -51 -55 0 -5 -4 -9 -10 -9
-5 0 -10 -7 -10 -16 0 -13 -7 -15 -41 -9 -39 7 -40 6 -30 -13 13 -25 14 -35 3
-28 -5 3 -16 -4 -25 -15 -10 -11 -23 -17 -29 -13 -7 5 -9 2 -5 -9 3 -9 2 -19
-3 -22 -6 -3 -6 -15 0 -30 6 -16 6 -25 0 -25 -6 0 -10 -10 -10 -22 0 -21 0
-21 14 -2 8 10 18 16 21 12 4 -4 0 -15 -9 -24 -10 -9 -15 -23 -11 -31 4 -11 1
-13 -11 -9 -12 4 -14 1 -9 -14 4 -13 2 -20 -7 -20 -10 0 -9 -3 2 -10 11 -7 18
-5 26 5 6 8 17 15 24 15 10 0 10 -3 0 -15 -10 -12 -10 -15 3 -15 16 0 33 -60
20 -69 -5 -3 -9 -19 -10 -35 -2 -21 1 -26 9 -18 14 14 38 4 38 -17 0 -10 -3
-12 -8 -5 -4 7 -15 8 -27 3 -11 -4 -15 -8 -10 -8 6 -1 11 -11 12 -22 1 -12 7
-27 12 -32 7 -7 5 -14 -7 -23 -15 -12 -14 -12 7 -7 21 5 22 4 12 -15 -6 -11
-16 -22 -23 -25 -8 -2 -9 -8 -4 -13 5 -5 11 -4 13 3 2 7 11 9 19 6 18 -7 18
-23 1 -23 -20 0 -51 -37 -38 -45 6 -3 11 -1 11 4 0 6 7 11 15 11 8 0 15 5 15
10 0 6 4 10 8 10 4 0 8 -9 8 -20 0 -11 -4 -20 -8 -20 -5 0 -2 -10 6 -22 21
-35 5 -68 -34 -68 -19 0 -30 -5 -30 -14 0 -8 -7 -16 -15 -20 -8 -3 -15 -1 -15
5 0 6 -5 7 -11 4 -6 -4 3 -17 22 -31 39 -28 40 -29 33 -9 -4 8 -10 15 -16 15
-5 0 -2 7 7 16 8 9 22 13 30 10 24 -9 17 -25 -7 -18 -21 5 -22 4 -9 -12 8 -9
20 -15 28 -12 10 4 11 1 4 -13 -6 -10 -8 -21 -4 -24 10 -10 12 -87 2 -87 -6 0
2 -11 16 -25 30 -31 32 -39 5 -25 -24 13 -26 7 -4 -15 15 -15 15 -17 -5 -22
-28 -7 -27 -23 2 -24 20 0 20 -1 3 -8 -19 -7 -19 -8 0 -15 19 -8 19 -8 -1 -16
-35 -15 -47 -12 -40 10 4 11 2 20 -4 20 -6 0 -11 -7 -11 -15 0 -8 -6 -15 -12
-15 -28 -1 26 -22 56 -22 27 0 33 -5 43 -35 7 -24 7 -31 0 -24 -16 16 -31 13
-17 -3 10 -13 8 -13 -14 -3 -14 7 -26 18 -26 26 0 10 3 11 14 2 11 -9 15 -8
20 5 4 10 2 14 -6 11 -7 -2 -23 0 -36 4 -21 8 -23 7 -16 -13 9 -31 24 -48 40
-48 8 0 14 -5 14 -11 0 -5 -4 -7 -10 -4 -5 3 -10 1 -10 -4 0 -6 5 -11 11 -11
8 0 7 -5 -2 -16 -7 -9 -14 -24 -16 -34 -2 -14 2 -17 17 -13 15 4 20 0 20 -13
0 -13 -3 -15 -8 -7 -5 8 -13 9 -22 3 -12 -8 -12 -10 3 -16 9 -3 17 -10 17 -15
0 -4 -7 -5 -17 -2 -10 4 -14 2 -9 -5 3 -6 2 -13 -4 -17 -5 -3 -10 -11 -10 -17
0 -7 4 -7 13 0 10 8 13 6 14 -9 1 -10 -2 -19 -5 -19 -4 0 -8 -9 -9 -20 -1 -11
2 -18 6 -16 4 3 8 -1 8 -9 0 -8 -3 -13 -5 -10 -6 6 -32 -15 -32 -26 0 -4 7
-15 16 -23 8 -9 11 -16 7 -16 -5 0 -10 -17 -11 -37 -1 -21 -3 -73 -6 -117 -2
-43 0 -91 4 -106 9 -31 2 -48 -20 -45 -10 2 -15 -7 -16 -28 -1 -26 0 -28 10
-11 12 20 46 31 46 15 0 -5 -9 -13 -21 -16 -13 -4 -18 -12 -15 -21 3 -9 1 -12
-4 -9 -6 3 -10 4 -10 1 0 -3 10 -10 22 -17 18 -10 20 -9 15 5 -3 8 -3 18 2 20
11 7 10 -27 -2 -41 -5 -7 -18 -13 -28 -13 -11 0 -19 -6 -19 -12 0 -7 -3 -24
-7 -37 -5 -20 -3 -23 10 -18 13 5 17 0 17 -20 0 -26 1 -26 15 -7 8 10 15 15
15 9 0 -5 5 -3 10 5 8 12 10 11 10 -7 0 -13 -5 -22 -11 -20 -6 1 -14 -4 -17
-12 -3 -9 0 -11 8 -6 9 5 11 4 6 -4 -6 -9 -11 -9 -22 0 -8 6 -17 9 -21 5 -3
-3 -2 -6 4 -6 6 0 13 -9 16 -20 4 -14 11 -18 24 -15 12 4 11 2 -4 -6 -21 -11
-21 -12 -3 -44 26 -46 52 -178 37 -187 -9 -6 -8 -10 2 -17 7 -5 11 -13 7 -19
-3 -6 -1 -14 5 -18 8 -4 7 -9 -2 -15 -9 -6 -10 -12 -4 -16 17 -13 16 -66 -2
-100 -17 -32 -38 -43 -45 -23 -2 5 -9 6 -17 1 -12 -8 -10 -27 9 -121 18 -88
20 -114 10 -120 -14 -9 -5 -66 13 -77 13 -9 18 -38 20 -120 1 -29 5 -53 9 -53
4 0 6 -18 5 -39 -2 -23 2 -39 8 -38 6 1 9 -14 8 -35 -2 -38 13 -53 42 -42 11
5 12 11 5 24 -7 13 -7 21 0 25 5 3 10 1 10 -6 0 -7 6 -20 14 -28 18 -21 32
-66 17 -57 -6 4 -11 2 -11 -3 0 -6 -7 -11 -16 -11 -11 0 -15 6 -11 19 4 16 0
19 -24 19 -31 -1 -41 -18 -11 -18 13 0 14 -2 3 -9 -10 -7 -12 -20 -6 -57 5
-27 7 -55 6 -61 -1 -10 27 -13 114 -13 l116 0 -4 317 c-3 175 -4 352 -3 393 1
85 -1 734 -3 1185 -4 560 8 1277 21 1292 10 12 56 14 292 9 155 -3 332 -5 394
-6 l112 0 0 -99 c0 -121 7 -159 29 -160 9 0 79 -4 156 -8 77 -4 285 -8 463 -8
299 0 325 1 337 18 9 13 10 28 4 55 -5 20 -6 70 -3 110 l6 72 47 2 c25 0 53 1
61 0 8 -1 116 -4 240 -8 124 -3 257 -7 295 -8 39 -2 89 -4 113 -5 39 -1 43 -3
37 -21 -3 -11 -3 -20 2 -20 9 0 9 -2 15 -997 l5 -703 -116 0 -116 0 3 -202 c1
-112 3 -234 5 -272 l2 -68 119 -5 c65 -2 128 -8 140 -13 l21 -9 -22 0 c-23 -1
-27 -10 -25 -56 21 -626 24 -710 31 -723 4 -8 7 23 5 67 -2 56 2 83 11 91 10
8 12 4 10 -18 -1 -16 -5 -34 -10 -41 -4 -7 -3 -16 3 -20 5 -3 8 -19 7 -34 -2
-19 3 -32 16 -40 25 -16 24 -30 -1 -22 -21 7 -24 -2 -14 -29 9 -23 51 -20 59
4 4 11 15 20 26 20 14 0 18 4 12 13 -10 16 -11 57 -1 57 11 0 21 -65 13 -89
-7 -23 4 -28 23 -9 9 9 12 9 12 0 0 -8 17 -12 45 -12 25 0 45 5 45 10 0 6 15
17 32 25 18 8 29 14 24 15 -5 0 -3 6 3 13 6 8 8 17 4 20 -11 11 -73 8 -73 -4
0 -5 -4 -7 -10 -4 -15 10 -12 23 8 28 10 3 5 5 -13 7 -16 1 -39 5 -50 9 -18 7
-17 8 7 14 44 11 120 -4 126 -25 5 -19 17 -24 26 -9 4 5 1 11 -5 13 -5 2 -7
11 -3 21 4 12 12 16 23 11 9 -4 42 -8 74 -9 37 -1 64 -8 75 -19 21 -18 38 -21
46 -7 4 5 -3 7 -14 4 -11 -3 -20 0 -20 6 0 6 10 11 23 12 12 0 16 3 10 6 -7 2
-13 9 -13 15 0 6 7 8 15 4 21 -8 19 11 -2 23 -10 6 -12 11 -5 11 6 0 12 5 12
11 0 7 8 18 17 25 10 7 14 16 10 20 -4 5 -12 2 -17 -6 -8 -13 -10 -12 -10 3 0
9 4 17 10 17 5 0 7 6 4 14 -3 8 -1 17 5 21 6 3 11 19 11 36 0 20 5 29 16 29
10 0 14 7 12 23 -2 13 -10 22 -20 21 -17 -2 -15 18 5 44 5 7 7 16 3 19 -4 4
-11 1 -16 -7 -8 -12 -10 -10 -10 8 0 26 12 28 34 6 14 -14 14 -17 1 -31 -20
-20 -14 -26 19 -17 15 3 25 11 23 18 -2 6 6 40 19 76 19 54 20 66 8 68 -8 2
-14 7 -14 12 0 5 7 7 16 3 10 -4 15 -1 13 8 -1 8 3 28 10 44 7 17 17 58 21 93
5 34 13 69 20 77 7 9 9 23 4 37 -10 29 -12 68 -3 68 4 0 7 10 7 23 0 27 20
105 33 130 10 18 -5 25 -16 7 -20 -32 -80 10 -88 61 -2 18 -7 44 -10 56 -3 13
-1 23 4 23 6 0 7 5 4 10 -3 6 -15 10 -26 10 -16 0 -18 3 -9 19 15 28 12 51 -5
51 -8 0 -15 5 -15 11 0 6 -6 9 -12 6 -7 -2 -12 -9 -11 -15 1 -5 -7 -8 -18 -5
-15 4 -17 8 -8 14 8 4 10 11 6 15 -3 4 -13 1 -22 -6 -9 -7 -18 -10 -22 -6 -3
3 -1 6 6 6 7 0 11 6 8 13 -3 8 3 20 14 28 10 7 19 21 19 31 0 10 10 20 25 24
14 3 25 10 25 15 0 5 -11 3 -25 -3 -31 -14 -45 -3 -20 16 12 9 15 15 7 20 -7
4 -12 2 -12 -5 0 -7 -3 -9 -6 -6 -4 4 -1 13 6 22 10 12 10 15 -4 15 -18 0 -22
26 -4 32 8 3 8 13 3 34 l-9 29 -4 -27 c-2 -14 -9 -31 -16 -37 -11 -9 -13 -3
-10 29 2 28 -1 42 -10 46 -10 4 -12 13 -7 32 5 15 6 32 4 38 -2 7 5 10 20 7
16 -3 26 1 30 11 5 13 2 15 -18 10 -15 -4 -25 -2 -25 5 0 6 7 11 15 11 9 0 20
10 25 23 7 17 9 18 9 5 1 -22 21 -24 21 -2 0 10 6 14 15 11 8 -4 17 -2 20 3 4
6 -1 10 -10 10 -9 0 -13 5 -10 10 3 6 1 10 -6 10 -7 0 -6 8 5 25 18 27 21 49
6 40 -5 -3 -16 8 -24 24 -10 18 -12 31 -5 33 5 2 10 14 11 28 1 14 6 31 11 37
5 7 7 20 3 28 -3 8 -1 15 4 15 15 0 12 27 -5 44 -19 18 -19 30 -1 23 9 -4 13
0 12 11 -2 9 -11 18 -22 19 -10 2 -13 0 -6 -3 9 -4 5 -14 -13 -36 -14 -16 -25
-34 -25 -39 0 -6 -4 -7 -10 -4 -6 4 -2 15 10 27 21 23 27 44 10 33 -6 -3 -10
0 -10 9 0 8 6 17 13 19 9 4 9 8 -2 15 -12 9 -12 14 2 36 13 19 14 24 3 20 -15
-6 -29 -40 -26 -63 1 -10 -5 -12 -22 -7 -13 3 -28 6 -33 6 -6 0 -15 8 -22 18
-10 17 -8 18 13 14 13 -2 24 -8 24 -13 0 -5 6 -6 14 -3 17 6 38 52 31 65 -4 5
0 9 7 9 8 1 6 6 -6 15 -19 14 -19 15 6 15 15 0 30 5 33 10 4 6 1 9 -7 8 -7 -2
-14 7 -16 20 -2 12 2 22 9 22 8 0 7 6 -4 18 -20 23 -26 80 -8 91 8 5 9 11 3
15 -5 3 -12 -1 -16 -9 -6 -17 -48 -14 -54 3 -2 7 -16 12 -30 13 l-27 0 24 10
24 9 -34 32 c-30 27 -31 30 -11 25 17 -4 22 -2 18 8 -2 7 2 16 10 19 11 4 13
-2 11 -27 -2 -30 0 -32 32 -35 32 -3 33 -3 17 14 -15 15 -19 15 -27 3 -8 -11
-9 -9 -7 6 3 14 11 19 28 18 14 -1 19 1 13 3 -7 3 -13 13 -13 21 0 10 -6 13
-16 9 -19 -7 -44 10 -40 27 1 7 1 9 -1 5 -3 -5 -11 -8 -19 -8 -8 0 -14 -6 -15
-12 0 -7 -5 -3 -11 9 -8 16 -18 21 -42 18 -17 -1 -23 0 -13 2 18 5 24 23 6 23
-5 0 -7 5 -4 10 3 6 -5 10 -19 10 -15 0 -30 8 -36 21 -18 33 -43 59 -58 59 -7
0 -10 -4 -7 -10 3 -5 0 -10 -8 -10 -18 0 -30 27 -17 35 6 4 16 3 23 -1 8 -5 9
-4 2 4 -6 6 -21 13 -34 15 -17 3 -25 12 -28 28 -6 38 6 72 22 65 17 -6 21 9 5
19 -12 8 -7 48 8 53 6 2 8 10 5 18 -3 9 2 14 16 14 12 0 21 5 21 11 0 6 7 17
16 26 14 14 16 14 27 0 11 -14 14 -13 30 9 18 24 14 29 -20 25 -7 -1 -13 3
-13 9 0 5 10 10 23 10 20 1 21 2 4 14 -17 13 -17 14 1 18 20 6 37 68 19 68 -5
0 -6 7 -3 16 4 11 2 15 -8 11 -8 -3 -20 0 -26 8 -9 11 -7 12 9 8 12 -3 21 -1
21 6 0 7 8 8 26 0 24 -8 25 -8 14 6 -7 8 -19 15 -27 15 -8 0 -11 5 -8 10 3 6
0 10 -8 10 -17 0 -30 37 -16 46 5 3 9 -3 9 -13 1 -17 1 -17 11 0 6 10 9 20 7
23 -4 4 -44 12 -67 13 -7 1 -11 7 -8 15 4 9 -1 15 -11 15 -47 1 -103 18 -126
38 -14 13 -26 20 -26 16 0 -4 -12 5 -27 19 -29 26 -73 43 -73 27 0 -12 -51
-11 -70 1 -9 6 -17 5 -22 -3 -5 -8 -8 -6 -8 6 0 9 5 17 10 17 12 0 -5 36 -27
59 -12 11 -16 11 -28 -5 -7 -10 -11 -22 -9 -26 9 -14 -27 -8 -42 6 -19 20 -18
26 9 27 18 1 16 3 -8 9 -24 6 -25 8 -8 9 15 1 21 6 17 16 -4 10 -11 12 -22 6
-10 -5 -30 -7 -45 -6 -32 4 -50 15 -23 15 10 0 14 5 11 11 -4 6 -14 8 -22 5
-10 -4 -13 0 -11 12 2 9 14 19 27 20 14 2 21 0 17 -6 -4 -6 -2 -13 4 -17 5 -3
10 0 10 8 0 16 47 21 56 6 3 -5 10 -9 17 -9 8 0 8 3 -1 12 -17 17 -15 38 3 38
8 0 15 7 15 15 0 8 -4 15 -10 15 -5 0 -10 -4 -10 -10 0 -5 -7 -10 -16 -10 -11
0 -14 -5 -10 -16 5 -12 0 -15 -21 -12 -28 3 -45 28 -19 28 9 0 16 5 16 11 0 6
-9 8 -20 4 -21 -7 -28 10 -7 18 9 4 8 8 -3 16 -11 8 -17 6 -22 -9 -4 -11 -13
-20 -20 -19 -10 0 -10 2 -1 6 8 3 11 14 7 27 -5 20 -1 24 25 29 17 4 31 11 31
17 0 6 -10 5 -26 -2 -22 -10 -27 -9 -35 5 -6 9 -15 17 -21 17 -9 0 -9 -3 0
-12 18 -18 14 -30 -8 -23 -11 4 -20 2 -20 -4 0 -6 -4 -11 -8 -11 -5 0 -8 13
-7 29 1 24 -2 28 -19 24 -19 -3 -19 -3 2 6 34 15 29 40 -7 35 -16 -3 -32 0
-36 6 -4 6 5 10 22 11 23 0 25 2 9 8 -14 5 -16 10 -8 15 7 4 23 -4 38 -19 14
-14 29 -23 32 -20 4 3 2 9 -4 13 -6 4 -13 15 -17 25 -4 10 -11 15 -17 12 -5
-3 -10 1 -10 9 0 9 -7 16 -15 16 -8 0 -15 5 -15 11 0 8 -4 8 -14 0 -10 -8 -16
-9 -21 -1 -3 5 -1 10 4 10 6 0 11 7 11 16 0 8 4 12 10 9 5 -3 18 -1 27 4 15 8
11 10 -15 7 -25 -3 -35 1 -44 18 -7 11 -11 24 -10 29 1 4 -3 7 -8 7 -6 0 -10
4 -10 9 0 4 15 7 33 5 23 -3 28 -1 17 6 -8 5 -26 10 -40 10 -22 1 -23 2 -7 11
26 15 21 39 -8 39 -19 0 -25 5 -25 21 0 12 -4 17 -11 13 -7 -4 -9 0 -5 14 5
14 0 28 -13 41 -12 12 -16 21 -11 21 17 0 11 28 -7 39 -10 6 -12 11 -5 11 6 0
12 5 12 11 0 5 -5 7 -10 4 -6 -3 -13 2 -16 12 -8 26 -25 64 -39 93 -8 14 -12
40 -11 57 1 21 -3 35 -13 39 -13 5 -13 7 4 14 19 8 19 9 -2 9 -19 1 -21 4 -13
32 5 17 16 42 25 55 14 22 14 24 -2 24 -16 1 -16 2 -3 13 18 14 24 57 8 57 -6
0 -7 16 -3 43 6 38 5 40 -7 23 -14 -17 -15 -17 -21 -2 -5 11 -3 15 5 10 7 -4
8 -3 4 4 -4 7 -13 12 -21 12 -7 0 -16 7 -19 16 -3 8 -2 12 4 9 6 -3 7 1 4 10
-4 8 -11 14 -18 13 -15 -3 -96 34 -96 44 0 4 -7 8 -16 8 -10 0 -14 6 -10 15 4
11 -7 16 -45 21 -28 4 -56 13 -64 20 -7 8 -19 14 -25 14 -6 0 -8 5 -5 10 4 6
10 8 15 5 5 -3 11 -1 15 5 6 10 -3 11 -128 15 -38 2 -78 7 -90 13 -12 6 -34
13 -49 16 -16 4 -28 13 -28 20 0 12 -5 12 -30 0 -16 -9 -30 -20 -30 -25 0 -6
-4 -7 -10 -4 -5 3 -10 2 -10 -3 0 -5 -13 -9 -30 -9 -16 0 -30 4 -30 9 0 4 -10
8 -22 8 -18 0 -20 2 -8 10 8 5 11 12 8 15 -14 14 -29 -8 -24 -34 5 -17 4 -21
-2 -12 -7 9 -12 10 -16 2 -10 -16 -26 -14 -26 3 0 17 -41 18 -52 1 -6 -7 -10
-7 -15 1 -5 6 -39 12 -78 12 -48 1 -65 -2 -55 -8 12 -8 11 -10 -7 -10 -12 0
-24 -4 -27 -9 -4 -5 -18 -6 -33 -2 -31 8 -63 -16 -63 -47 0 -27 -10 -33 -27
-16 -10 10 -28 13 -53 10 -38 -4 -93 21 -96 44 -1 5 -2 13 -3 17 0 3 -10 -2
-20 -11 -11 -10 -22 -13 -25 -8 -3 6 0 13 6 15 7 3 9 6 3 6 -5 0 -17 -4 -25
-10 -11 -8 -12 -12 -2 -16 6 -2 10 -9 6 -14 -9 -15 -24 -10 -24 7 0 11 -6 14
-20 9 -21 -7 -29 10 -7 18 17 6 4 18 -24 21 -13 2 -37 9 -54 15 -16 6 -36 14
-43 16 -8 3 -16 -4 -19 -15 -3 -13 -14 -20 -28 -20 -26 0 -53 -26 -34 -32 8
-3 9 -9 5 -17 -7 -11 -10 -11 -18 0 -6 10 -7 6 -2 -11 9 -33 13 -37 23 -21 7
11 12 11 30 0 11 -8 21 -20 21 -28 0 -11 -3 -11 -15 -1 -8 6 -20 8 -27 4 -24
-15 -41 -13 -72 9 -40 27 -204 158 -237 188 -53 50 -190 167 -284 244 -54 44
-110 93 -124 108 -14 16 -75 68 -136 115 -60 47 -112 89 -115 92 -3 3 -30 25
-60 50 -30 25 -103 90 -163 145 -59 55 -116 104 -127 110 -10 5 -61 49 -112
96 -51 48 -120 109 -153 135 -32 27 -86 74 -120 105 -92 85 -263 238 -335 299
-35 30 -95 84 -134 118 -39 35 -91 78 -116 95 -62 43 -169 133 -205 174 -17
18 -34 33 -38 33 -4 0 -69 55 -143 123 -74 67 -176 155 -227 194 -51 40 -93
77 -95 82 -2 5 -38 38 -80 73 -42 34 -115 98 -161 141 l-83 77 -159 0 -158 0
-171 -182z m4600 -2532 c0 -2 -8 -10 -17 -17 -16 -13 -17 -12 -4 4 13 16 21
21 21 13z m-774 -26 c0 -11 -5 -20 -11 -20 -6 0 -11 9 -11 20 0 11 5 20 11 20
6 0 11 -9 11 -20z m89 -40 c3 -5 1 -10 -4 -10 -6 0 -11 5 -11 10 0 6 2 10 4
10 3 0 8 -4 11 -10z m322 -6 c-3 -3 -12 -4 -19 -1 -8 3 -5 6 6 6 11 1 17 -2
13 -5z m793 -4 c0 -5 -2 -10 -4 -10 -3 0 -8 5 -11 10 -3 6 -1 10 4 10 6 0 11
-4 11 -10z m-850 -44 c0 -3 -4 -8 -10 -11 -5 -3 -10 -1 -10 4 0 6 5 11 10 11
6 0 10 -2 10 -4z m720 -6 c0 -5 -2 -10 -4 -10 -3 0 -8 5 -11 10 -3 6 -1 10 4
10 6 0 11 -4 11 -10z m-1165 -20 c-3 -5 -13 -10 -21 -10 -8 0 -12 5 -9 10 3 6
13 10 21 10 8 0 12 -4 9 -10z m1439 -57 c-2 -39 -5 -42 -13 -13 -8 26 -5 40 8
40 4 0 6 -12 5 -27z m36 -3 c0 -5 -2 -10 -4 -10 -3 0 -8 5 -11 10 -3 6 -1 10
4 10 6 0 11 -4 11 -10z m-350 -21 c0 -6 -4 -7 -10 -4 -5 3 -10 11 -10 16 0 6
5 7 10 4 6 -3 10 -11 10 -16z m-127 -16 c-4 -11 -3 -14 5 -9 7 4 12 3 12 -3 0
-15 -18 -23 -25 -11 -7 11 0 40 9 40 3 0 2 -7 -1 -17z m453 -11 c-18 -16 -18
-16 -6 6 6 13 14 21 18 18 3 -4 -2 -14 -12 -24z m54 14 c0 -3 -4 -8 -10 -11
-5 -3 -10 -1 -10 4 0 6 5 11 10 11 6 0 10 -2 10 -4z m-350 -10 c0 -2 -7 -6
-15 -10 -8 -3 -15 -1 -15 4 0 6 7 10 15 10 8 0 15 -2 15 -4z m223 -62 c-5 -14
-1 -15 28 -9 l34 6 -29 -15 c-22 -12 -32 -13 -42 -5 -11 9 -11 15 -3 25 15 19
20 18 12 -2z m-1303 -24 c0 -5 -5 -10 -11 -10 -5 0 -7 5 -4 10 3 6 8 10 11 10
2 0 4 -4 4 -10z m120 0 c0 -5 -5 -10 -11 -10 -5 0 -7 5 -4 10 3 6 8 10 11 10
2 0 4 -4 4 -10z m160 -10 c0 -5 -4 -10 -10 -10 -5 0 -10 5 -10 10 0 6 5 10 10
10 6 0 10 -4 10 -10z m-366 -16 c20 -19 20 -25 1 -18 -8 4 -15 1 -15 -6 0 -7
-6 -6 -16 4 -15 15 -12 36 6 36 5 0 16 -7 24 -16z m306 6 c0 -5 -4 -10 -10
-10 -5 0 -10 5 -10 10 0 6 5 10 10 10 6 0 10 -4 10 -10z m197 4 c-3 -3 -12 -4
-19 -1 -8 3 -5 6 6 6 11 1 17 -2 13 -5z m918 -35 c6 -6 10 -231 10 -592 1
-627 -4 -813 -21 -810 -28 5 -410 13 -662 13 -156 1 -289 3 -296 6 -10 4 -11
15 -5 42 5 20 8 79 8 130 0 79 -3 92 -17 92 -12 0 -13 3 -5 8 8 5 12 42 11
117 -3 426 -2 890 2 940 5 57 6 60 34 65 54 9 931 -1 941 -11z m-1253 -44 c3
-13 1 -22 -3 -19 -9 5 -13 44 -5 44 2 0 6 -11 8 -25z m-65 -121 c-3 -3 -12 -4
-19 -1 -8 3 -5 6 6 6 11 1 17 -2 13 -5z m263 -8 c0 -3 -4 -8 -10 -11 -5 -3
-10 -1 -10 4 0 6 5 11 10 11 6 0 10 -2 10 -4z m-33 -28 c-3 -8 -6 -5 -6 6 -1
11 2 17 5 13 3 -3 4 -12 1 -19z m20 -40 c-3 -8 -6 -5 -6 6 -1 11 2 17 5 13 3
-3 4 -12 1 -19z m-37 -17 c0 -6 -4 -13 -10 -16 -5 -3 -10 1 -10 9 0 9 5 16 10
16 6 0 10 -4 10 -9z m-225 -11 c3 -5 1 -10 -4 -10 -6 0 -11 5 -11 10 0 6 2 10
4 10 3 0 8 -4 11 -10z m127 -22 c-9 -9 -12 -7 -12 12 0 19 3 21 12 12 9 -9 9
-15 0 -24z m128 7 c0 -8 -4 -17 -10 -20 -6 -4 -10 5 -10 20 0 15 4 24 10 20 6
-3 10 -12 10 -20z m57 -47 c-3 -8 -6 -5 -6 6 -1 11 2 17 5 13 3 -3 4 -12 1
-19z m-422 -28 c-3 -5 -12 -10 -18 -10 -7 0 -6 4 3 10 19 12 23 12 15 0z m321
-9 c0 -11 -5 -17 -13 -14 -10 4 -11 9 -2 19 15 18 15 18 15 -5z m-279 3 c-3
-3 -12 -4 -19 -1 -8 3 -5 6 6 6 11 1 17 -2 13 -5z m193 -4 c0 -5 -8 -10 -17
-10 -15 0 -16 2 -3 10 19 12 20 12 20 0z m158 -71 l27 0 -25 -11 c-52 -23 -67
-16 -54 24 6 19 7 19 16 5 5 -10 21 -17 36 -18z m29 -51 c-3 -7 -5 -2 -5 12 0
14 2 19 5 13 2 -7 2 -19 0 -25z m-67 8 c0 -3 -4 -8 -10 -11 -5 -3 -10 -1 -10
4 0 6 5 11 10 11 6 0 10 -2 10 -4z m-112 -51 c-3 -13 -1 -22 3 -19 5 3 9 -4 9
-16 0 -12 -4 -18 -10 -15 -5 3 -7 0 -4 -8 3 -8 1 -18 -5 -22 -7 -4 -11 8 -11
34 0 23 -4 41 -10 41 -5 0 -10 7 -10 15 0 9 9 15 21 15 17 0 20 -5 17 -25z
m112 21 c0 -3 -4 -8 -10 -11 -5 -3 -10 -1 -10 4 0 6 5 11 10 11 6 0 10 -2 10
-4z m-60 -61 c7 -9 8 -15 2 -15 -5 0 -12 7 -16 15 -3 8 -4 15 -2 15 2 0 9 -7
16 -15z m60 -21 c0 -8 -4 -12 -10 -9 -5 3 -10 13 -10 21 0 8 5 12 10 9 6 -3
10 -13 10 -21z m-424 -16 c4 -5 -4 -8 -17 -6 -12 1 -24 8 -26 15 -5 14 34 6
43 -9z m484 18 c0 -2 -7 -7 -16 -10 -8 -3 -12 -2 -9 4 6 10 25 14 25 6z m-43
-38 c-3 -7 -5 -2 -5 12 0 14 2 19 5 13 2 -7 2 -19 0 -25z m-407 -13 c0 -8 -2
-15 -4 -15 -2 0 -6 7 -10 15 -3 8 -1 15 4 15 6 0 10 -7 10 -15z m383 -5 c-3
-12 -8 -19 -11 -16 -5 6 5 36 12 36 2 0 2 -9 -1 -20z m-366 -32 c-15 -9 -19
-4 -11 16 5 14 9 15 15 5 5 -8 3 -17 -4 -21z m333 18 c0 -2 -7 -6 -15 -10 -8
-3 -15 -1 -15 4 0 6 7 10 15 10 8 0 15 -2 15 -4z m130 -60 c0 -3 -4 -8 -10
-11 -5 -3 -10 -1 -10 4 0 6 5 11 10 11 6 0 10 -2 10 -4z m-50 -56 c0 -5 -4
-10 -10 -10 -5 0 -10 5 -10 10 0 6 5 10 10 10 6 0 10 -4 10 -10z m-447 -19 c3
-13 1 -18 -9 -14 -7 2 -10 11 -7 19 7 19 10 18 16 -5z m466 -7 c-6 -8 -15 -12
-18 -8 -3 4 0 9 7 11 6 3 9 10 6 15 -4 7 -2 8 5 4 9 -6 9 -11 0 -22z m-522 1
c8 -23 -7 -33 -20 -14 -7 9 -19 18 -27 22 -9 3 -4 6 13 6 16 1 30 -5 34 -14z
m43 -35 c0 -5 -2 -10 -4 -10 -3 0 -8 5 -11 10 -3 6 -1 10 4 10 6 0 11 -4 11
-10z m427 -12 c-3 -8 -6 -5 -6 6 -1 11 2 17 5 13 3 -3 4 -12 1 -19z m-407 -12
c0 -2 -7 -7 -16 -10 -8 -3 -12 -2 -9 4 6 10 25 14 25 6z m483 -3 c-7 -2 -19
-2 -25 0 -7 3 -2 5 12 5 14 0 19 -2 13 -5z m1628 -66 c-1 -4 -4 -7 -7 -6 -4 0
-10 -5 -14 -11 -4 -7 -13 -9 -19 -6 -16 10 -13 24 7 29 22 6 34 4 33 -6z
m-2161 -7 c0 -5 -5 -10 -11 -10 -5 0 -7 5 -4 10 3 6 8 10 11 10 2 0 4 -4 4
-10z m73 3 c-7 -2 -19 -2 -25 0 -7 3 -2 5 12 5 14 0 19 -2 13 -5z m432 -13 c3
-6 -1 -7 -9 -4 -18 7 -21 14 -7 14 6 0 13 -4 16 -10z m-569 -40 c1 -16 -3 -27
-7 -24 -11 6 -12 54 -1 54 4 0 7 -13 8 -30z m2198 -22 c6 -4 7 -10 3 -15 -10
-9 -27 16 -26 37 1 13 1 13 6 0 3 -8 11 -18 17 -22z m-1598 -9 c1 -13 -3 -27
-10 -31 -8 -6 -7 -11 4 -19 13 -9 13 -10 0 -6 -8 2 -15 12 -15 23 -1 10 -6 18
-12 17 -6 -1 -17 4 -23 12 -9 11 -9 15 -1 15 6 0 11 -4 11 -10 0 -5 7 -7 16
-3 8 3 13 12 10 20 -4 9 -1 13 6 11 7 -3 14 -16 14 -29z m-873 14 c-7 -2 -19
-2 -25 0 -7 3 -2 5 12 5 14 0 19 -2 13 -5z m789 -15 c-7 -7 -12 -8 -12 -2 0
14 12 26 19 19 2 -3 -1 -11 -7 -17z m-745 6 c-3 -3 -12 -4 -19 -1 -8 3 -5 6 6
6 11 1 17 -2 13 -5z m403 -40 c0 -27 -18 -23 -22 6 -4 24 -2 27 9 19 7 -7 13
-17 13 -25z m2100 -18 c0 -19 -4 -23 -20 -19 -38 10 -37 43 1 43 13 0 19 -7
19 -24z m110 -5 c0 -6 -4 -13 -10 -16 -5 -3 -10 1 -10 9 0 9 5 16 10 16 6 0
10 -4 10 -9z m-1851 -58 c0 16 5 25 11 22 6 -3 10 1 10 10 0 10 7 15 18 13 23
-4 30 -58 8 -58 -9 0 -16 5 -16 10 0 6 -4 10 -10 10 -5 0 -10 -9 -10 -20 0
-21 33 -60 50 -60 6 0 10 -4 10 -10 0 -5 -4 -10 -10 -10 -5 0 -10 -5 -10 -11
0 -5 5 -7 10 -4 6 3 11 0 11 -7 2 -25 -2 -122 -5 -125 -2 -2 -21 -1 -42 3 -33
5 -39 10 -40 31 -2 17 5 27 22 33 13 5 24 14 24 20 0 6 -4 8 -10 5 -5 -3 -10
1 -10 10 0 12 5 15 16 11 12 -5 15 -2 10 10 -3 8 -6 26 -6 39 0 18 -7 25 -29
30 -31 7 -44 25 -36 50 15 48 19 49 25 10 6 -32 7 -34 9 -12z m-371 2 c-3 -3
-9 2 -12 12 -6 14 -5 15 5 6 7 -7 10 -15 7 -18z m2162 -35 c13 -8 13 -10 -2
-10 -9 0 -20 5 -23 10 -8 13 5 13 25 0z m-1833 -6 c-3 -3 -12 -4 -19 -1 -8 3
-5 6 6 6 11 1 17 -2 13 -5z m1838 -24 c3 -6 -4 -10 -17 -10 -18 0 -20 2 -8 10
19 12 18 12 25 0z m-1935 -28 c0 -4 -9 -13 -20 -20 -23 -14 -26 -8 -7 13 13
16 27 19 27 7z m1930 -22 c0 -15 -5 -12 -26 11 -19 22 -19 22 4 10 12 -6 22
-16 22 -21z m-2053 -12 c-3 -8 -6 -5 -6 6 -1 11 2 17 5 13 3 -3 4 -12 1 -19z
m-719 -3 c-10 -10 -49 -14 -43 -4 4 5 16 9 27 9 12 0 19 -2 16 -5z m759 -1
c-3 -3 -12 -4 -19 -1 -8 3 -5 6 6 6 11 1 17 -2 13 -5z m223 -19 c0 -8 -4 -15
-10 -15 -5 0 -10 7 -10 15 0 8 5 15 10 15 6 0 10 -7 10 -15z m-275 -5 c-3 -5
-11 -10 -16 -10 -6 0 -7 5 -4 10 3 6 11 10 16 10 6 0 7 -4 4 -10z m-105 -35
c16 -3 43 -7 60 -7 17 -1 33 -6 37 -11 3 -6 1 -7 -5 -4 -5 4 -18 4 -28 0 -16
-6 -16 -7 2 -14 11 -5 -15 -8 -63 -7 -46 1 -83 5 -83 9 0 4 -10 5 -22 3 -23
-4 -23 -4 0 6 13 5 27 8 31 6 4 -3 13 10 21 27 10 23 15 27 18 15 2 -9 16 -20
32 -23z m185 14 c4 -5 -3 -9 -14 -9 -26 0 -35 15 -11 17 11 1 22 -2 25 -8z
m2450 -39 c-10 -11 -21 -18 -23 -15 -3 3 3 12 14 20 27 20 30 18 9 -5z m-3340
0 c3 -6 -1 -7 -9 -4 -18 7 -21 14 -7 14 6 0 13 -4 16 -10z m562 -6 c-3 -3 -12
-4 -19 -1 -8 3 -5 6 6 6 11 1 17 -2 13 -5z m2813 -4 c0 -5 -4 -10 -10 -10 -5
0 -10 5 -10 10 0 6 5 10 10 10 6 0 10 -4 10 -10z m10 -80 c0 -5 -4 -10 -10
-10 -5 0 -10 5 -10 10 0 6 5 10 10 10 6 0 10 -4 10 -10z m-1286 -66 c3 -8 2
-12 -4 -9 -6 3 -10 10 -10 16 0 14 7 11 14 -7z m1231 -24 c3 -5 1 -10 -4 -10
-6 0 -11 5 -11 10 0 6 2 10 4 10 3 0 8 -4 11 -10z m-3261 -74 c2 -14 -1 -26
-5 -26 -5 0 -9 14 -9 32 0 36 10 32 14 -6z m20 -71 c-4 -8 -8 -15 -10 -15 -2
0 -4 7 -4 15 0 8 4 15 10 15 5 0 7 -7 4 -15z m6 -75 c0 -5 -5 -10 -11 -10 -5
0 -7 5 -4 10 3 6 8 10 11 10 2 0 4 -4 4 -10z m3295 -341 c-10 -15 -25 -10 -19
6 4 8 10 12 15 9 5 -3 7 -10 4 -15z m80 -29 c3 -5 1 -10 -4 -10 -6 0 -11 5
-11 10 0 6 2 10 4 10 3 0 8 -4 11 -10z m-75 -10 c0 -5 -5 -10 -11 -10 -5 0 -7
5 -4 10 3 6 8 10 11 10 2 0 4 -4 4 -10z m-3293 -25 c0 -8 -4 -15 -9 -15 -10 0
-11 14 -1 23 9 10 10 9 10 -8z m3417 0 c-7 -16 -24 -21 -24 -6 0 8 7 13 27 20
1 1 0 -6 -3 -14z m62 -35 c0 -11 -4 -20 -8 -20 -4 0 -8 9 -8 20 0 11 4 20 8
20 4 0 8 -9 8 -20z m-199 -40 c-3 -21 -17 -40 -17 -22 0 13 11 42 16 42 2 0 3
-9 1 -20z m205 -22 c-6 -6 -15 -8 -19 -4 -4 4 -1 11 7 16 19 12 27 3 12 -12z
m-218 -63 c-4 -15 -2 -25 5 -25 6 0 11 -7 11 -15 0 -8 -8 -15 -17 -15 -14 0
-18 8 -17 33 2 45 3 47 14 47 6 0 8 -11 4 -25z m-3284 -155 c0 -5 -2 -10 -4
-10 -3 0 -8 5 -11 10 -3 6 -1 10 4 10 6 0 11 -4 11 -10z m3500 -25 c0 -8 -7
-15 -15 -15 -26 0 -18 20 13 29 1 1 2 -6 2 -14z m31 -48 c-10 -9 -11 -8 -5 6
3 10 9 15 12 12 3 -3 0 -11 -7 -18z m14 -67 c-2 -29 -20 -29 -18 0 3 54 3 56
12 40 5 -8 8 -26 6 -40z m-200 20 c3 -5 1 -10 -4 -10 -6 0 -11 5 -11 10 0 6 2
10 4 10 3 0 8 -4 11 -10z m60 -141 c-7 -10 -35 -1 -35 11 0 5 9 6 20 3 11 -3
17 -9 15 -14z m-5 -76 c0 -13 -3 -13 -15 -3 -8 7 -12 16 -9 21 8 13 24 1 24
-18z m60 -55 c0 -13 -32 -6 -37 9 -3 7 3 9 16 6 12 -3 21 -10 21 -15z m-46
-23 c-4 -8 -8 -15 -10 -15 -2 0 -4 7 -4 15 0 8 4 15 10 15 5 0 7 -7 4 -15z
m44 -20 c0 -14 -4 -25 -8 -25 -10 0 -20 37 -12 44 12 12 20 5 20 -19z m-62
-22 c7 -25 -10 -53 -23 -40 -4 4 -8 23 -9 42 -2 26 0 33 12 28 8 -3 17 -16 20
-30z m34 -18 c0 -5 -5 -3 -10 5 -5 8 -10 20 -10 25 0 6 5 3 10 -5 5 -8 10 -19
10 -25z m50 -45 c0 -5 -4 -10 -9 -10 -6 0 -13 5 -16 10 -3 6 1 10 9 10 9 0 16
-4 16 -10z m-3520 -190 c0 -5 -8 -10 -17 -10 -15 0 -16 2 -3 10 19 12 20 12
20 0z m3480 -25 c0 -8 -4 -15 -10 -15 -5 0 -7 7 -4 15 4 8 8 15 10 15 2 0 4
-7 4 -15z m-553 -123 c2 -108 -7 -149 -29 -135 -5 2 -8 -1 -8 -6 0 -6 6 -11
14 -11 8 0 14 -10 15 -22 2 -38 1 -181 -2 -184 -1 -1 -29 4 -62 11 l-60 13 44
1 c24 1 41 4 38 8 -4 3 -26 6 -49 6 -56 0 -78 11 -73 38 6 33 15 36 15 6 0
-21 4 -25 18 -20 9 4 21 13 25 20 5 7 12 11 18 8 5 -4 9 -2 9 3 0 19 -13 20
-38 4 -19 -12 -24 -13 -18 -3 15 24 17 73 3 68 -6 -2 -11 -14 -10 -26 2 -11
-2 -21 -7 -21 -15 0 -12 34 5 66 12 24 15 26 16 9 1 -17 2 -17 6 -2 5 21 23
23 23 2 0 -8 9 -15 20 -15 18 0 19 3 8 20 -7 10 -9 23 -5 27 5 4 12 1 17 -7 8
-12 10 -10 10 8 0 16 -5 22 -17 20 -21 -4 -30 29 -13 46 9 8 11 6 8 -8 -1 -10
2 -21 8 -23 14 -5 24 66 11 74 -4 3 -6 11 -3 19 3 7 1 16 -3 19 -5 3 -7 14 -4
25 3 12 0 20 -7 20 -7 0 -10 6 -7 14 4 9 -1 17 -11 19 -10 3 -5 5 11 6 17 1
26 5 22 12 -5 7 5 9 26 7 l34 -3 2 -113z m363 115 c0 -2 30 -89 66 -193 36
-104 70 -202 75 -219 5 -16 14 -40 21 -53 17 -33 1 -41 -72 -32 -36 5 -103 11
-150 14 -47 3 -86 5 -87 6 -7 1 13 38 32 60 12 14 29 37 38 53 10 15 24 27 31
27 15 0 29 27 21 41 -10 15 -17 72 -19 159 -1 47 -6 91 -10 98 -13 21 2 42 29
42 14 0 25 -1 25 -3z m315 -77 c3 -5 1 -10 -4 -10 -6 0 -11 5 -11 10 0 6 2 10
4 10 3 0 8 -4 11 -10z m-75 -4 c0 -3 -4 -8 -10 -11 -5 -3 -10 -1 -10 4 0 6 5
11 10 11 6 0 10 -2 10 -4z m-713 -57 c-8 -5 -18 -21 -21 -35 -4 -15 -9 -24
-12 -21 -10 10 25 79 37 71 8 -5 7 -9 -4 -15z m-9 -87 c2 -7 -2 -10 -12 -6 -9
3 -16 11 -16 16 0 13 23 5 28 -10z m5 -29 c-7 -2 -19 -2 -25 0 -7 3 -2 5 12 5
14 0 19 -2 13 -5z m927 -63 c0 -11 -2 -20 -4 -20 -2 0 -6 9 -9 20 -3 11 -1 20
4 20 5 0 9 -9 9 -20z m-705 -220 c3 -5 1 -10 -4 -10 -6 0 -11 5 -11 10 0 6 2
10 4 10 3 0 8 -4 11 -10z m275 1 c0 -5 -9 -11 -20 -14 -11 -3 -20 -1 -20 3 0
5 8 11 18 13 9 3 18 5 20 6 1 0 2 -3 2 -8z m110 -3 c0 -11 -32 -10 -50 2 -11
8 -7 10 18 8 17 -1 32 -6 32 -10z m35 2 c3 -5 1 -10 -4 -10 -6 0 -11 5 -11 10
0 6 2 10 4 10 3 0 8 -4 11 -10z m-225 -8 c0 -4 -16 -6 -35 -4 -19 2 -35 6 -35
8 0 2 16 4 35 4 19 0 35 -4 35 -8z m120 4 c0 -3 -4 -8 -10 -11 -5 -3 -10 -1
-10 4 0 6 5 11 10 11 6 0 10 -2 10 -4z m-124 -41 c4 -8 12 -15 20 -15 8 0 11
-6 8 -15 -5 -13 -10 -11 -29 9 -12 13 -33 26 -46 29 -19 3 -17 5 9 6 21 1 35
-4 38 -14z m74 5 c0 -5 -15 -10 -32 -10 -25 0 -29 3 -18 10 20 13 50 13 50 0z
m123 -7 c-7 -2 -19 -2 -25 0 -7 3 -2 5 12 5 14 0 19 -2 13 -5z m36 -15 c-9
-16 -14 -19 -17 -9 -2 7 2 17 9 22 20 13 21 11 8 -13z m-326 -2 c4 -10 1 -13
-9 -9 -7 3 -14 0 -14 -6 0 -6 -5 -11 -12 -11 -6 0 -3 9 7 20 22 24 21 24 28 6z
m54 -12 c-3 -3 -12 -4 -19 -1 -8 3 -5 6 6 6 11 1 17 -2 13 -5z m121 -13 c11
-7 11 -9 -2 -14 -9 -4 -16 -14 -16 -24 0 -12 -3 -14 -11 -6 -11 11 -4 53 9 53
4 0 13 -4 20 -9z m-238 -5 c0 -3 -4 -8 -10 -11 -5 -3 -10 -1 -10 4 0 6 5 11
10 11 6 0 10 -2 10 -4z m345 -6 c3 -5 1 -10 -4 -10 -6 0 -11 5 -11 10 0 6 2
10 4 10 3 0 8 -4 11 -10z m-208 -33 c5 -36 -3 -34 -16 4 -8 23 -8 30 1 27 6
-2 13 -16 15 -31z m183 13 c0 -5 -7 -7 -15 -4 -8 4 -12 10 -9 15 6 11 24 2 24
-11z m137 -12 c-3 -7 -5 -2 -5 12 0 14 2 19 5 13 2 -7 2 -19 0 -25z m-197 -2
c0 -3 -4 -8 -10 -11 -5 -3 -10 -1 -10 4 0 6 5 11 10 11 6 0 10 -2 10 -4z m78
-10 c-7 -8 -16 -12 -20 -10 -4 3 -11 -3 -16 -12 -5 -9 -15 -15 -22 -12 -8 2 0
13 21 26 39 25 56 29 37 8z m67 -6 c3 -5 2 -10 -4 -10 -5 0 -13 5 -16 10 -3 6
-2 10 4 10 5 0 13 -4 16 -10z m170 -20 c3 -5 1 -10 -4 -10 -6 0 -11 5 -11 10
0 6 2 10 4 10 3 0 8 -4 11 -10z m-635 -30 c0 -5 -7 -10 -15 -10 -8 0 -15 5
-15 10 0 6 7 10 15 10 8 0 15 -4 15 -10z m74 1 c3 -5 -1 -14 -8 -20 -12 -10
-13 -8 -9 8 6 23 9 25 17 12z m41 -44 c-13 -7 -14 -12 -4 -23 19 -23 -2 -16
-22 7 -18 21 -18 23 -1 35 12 9 20 9 30 1 11 -8 10 -12 -3 -20z m422 1 c-3 -8
-6 -5 -6 6 -1 11 2 17 5 13 3 -3 4 -12 1 -19z m-447 -43 c0 -1 -11 0 -25 3
-16 3 -25 11 -25 23 0 18 2 17 25 -3 14 -12 25 -22 25 -23z m560 14 c0 -5 -4
-9 -10 -9 -5 0 -10 7 -10 16 0 8 5 12 10 9 6 -3 10 -10 10 -16z m-60 -27 c0
-10 -22 -32 -32 -32 -4 0 -8 8 -8 18 0 14 2 15 10 2 8 -13 10 -12 10 3 0 9 5
17 10 17 6 0 10 -4 10 -8z m-505 -20 c-3 -3 -11 0 -18 7 -9 10 -8 11 6 5 10
-3 15 -9 12 -12z m182 12 c-3 -3 -12 -4 -19 -1 -8 3 -5 6 6 6 11 1 17 -2 13
-5z m-230 -20 c-3 -3 -12 -4 -19 -1 -8 3 -5 6 6 6 11 1 17 -2 13 -5z m38 -14
c3 -5 -1 -10 -9 -10 -9 0 -16 5 -16 10 0 6 4 10 9 10 6 0 13 -4 16 -10z m69
-73 c-7 -19 -20 -22 -29 -7 -3 6 -1 10 4 10 6 0 10 3 10 8 -3 18 2 25 11 16 6
-6 8 -18 4 -27z m131 23 c3 -5 1 -10 -4 -10 -6 0 -11 5 -11 10 0 6 2 10 4 10
3 0 8 -4 11 -10z m250 -10 c3 -6 -1 -7 -9 -4 -18 7 -21 14 -7 14 6 0 13 -4 16
-10z m-58 -75 c-3 -6 3 -19 14 -28 10 -9 19 -22 19 -28 0 -6 -7 -3 -16 6 -9 9
-24 13 -35 10 -13 -4 -19 -2 -19 9 0 9 5 16 11 16 5 0 7 5 4 10 -3 6 -3 15 0
20 9 14 28 1 22 -15z m-232 -5 c-3 -5 -10 -10 -16 -10 -5 0 -9 5 -9 10 0 6 7
10 16 10 8 0 12 -4 9 -10z m280 -20 c3 -5 1 -10 -4 -10 -6 0 -11 5 -11 10 0 6
2 10 4 10 3 0 8 -4 11 -10z m-231 -46 c3 -8 2 -12 -4 -9 -6 3 -10 10 -10 16 0
14 7 11 14 -7z m-164 2 c0 -3 -4 -8 -10 -11 -5 -3 -10 -1 -10 4 0 6 5 11 10
11 6 0 10 -2 10 -4z m335 -16 c-8 -13 21 -13 46 0 11 7 19 7 19 1 0 -10 -92
-33 -100 -24 -3 2 4 11 14 19 23 17 30 18 21 4z m-116 -36 c2 -2 1 -7 -2 -11
-4 -3 -22 1 -40 10 l-32 17 35 -6 c19 -4 37 -8 39 -10z m-219 -18 c0 -3 -4 -8
-10 -11 -5 -3 -10 -1 -10 4 0 6 5 11 10 11 6 0 10 -2 10 -4z m27 -23 c-4 -3 1
-12 11 -19 16 -12 15 -13 -5 -11 -13 1 -23 6 -23 12 0 12 10 25 18 25 3 0 2
-3 -1 -7z m213 -13 c0 -11 -4 -20 -10 -20 -5 0 -10 2 -10 4 0 2 -3 11 -6 20
-4 11 -1 16 10 16 9 0 16 -8 16 -20z m104 -1 c-11 -5 -13 -8 -5 -8 8 -1 12 -3
9 -6 -3 -3 -18 2 -34 11 -23 13 -24 15 -6 11 12 -3 22 -1 22 4 0 4 8 5 17 2
15 -6 15 -7 -3 -14z m-69 -7 c-3 -3 -11 0 -18 7 -9 10 -8 11 6 5 10 -3 15 -9
12 -12z m-330 -22 c3 -5 -1 -10 -9 -10 -9 0 -16 5 -16 10 0 6 4 10 9 10 6 0
13 -4 16 -10z m372 4 c-3 -3 -12 -4 -19 -1 -8 3 -5 6 6 6 11 1 17 -2 13 -5z
m-3287 -54 c0 -5 -4 -10 -10 -10 -5 0 -10 5 -10 10 0 6 5 10 10 10 6 0 10 -4
10 -10z m3000 -3 c0 -7 -7 -22 -15 -33 -13 -17 -13 -16 -3 14 13 34 18 40 18
19z m-110 -13 c0 -17 -22 -14 -28 4 -2 7 3 12 12 12 9 0 16 -7 16 -16z m27
-26 c-3 -8 -6 -5 -6 6 -1 11 2 17 5 13 3 -3 4 -12 1 -19z m157 -30 c-3 -4 -14
-8 -25 -8 -11 0 -18 4 -15 8 2 4 14 8 25 8 11 0 17 -4 15 -8z"/>
<path d="M5425 3230 c3 -5 8 -10 11 -10 2 0 4 5 4 10 0 6 -5 10 -11 10 -5 0
-7 -4 -4 -10z"/>
<path d="M7790 1640 c0 -5 5 -10 10 -10 6 0 10 5 10 10 0 6 -4 10 -10 10 -5 0
-10 -4 -10 -10z"/>
<path d="M7275 1201 c-3 -5 -1 -12 5 -16 5 -3 10 1 10 9 0 18 -6 21 -15 7z"/>
<path d="M7195 1040 c-3 -5 -1 -10 4 -10 6 0 11 5 11 10 0 6 -2 10 -4 10 -3 0
-8 -4 -11 -10z"/>
<path d="M7261 999 c-13 -5 -22 -11 -20 -14 8 -7 49 7 49 16 0 5 -1 9 -2 8 -2
0 -14 -5 -27 -10z"/>
<path d="M7210 960 c0 -5 10 -10 23 -10 18 0 19 2 7 10 -19 13 -30 13 -30 0z"/>
<path d="M8630 7613 c-393 -60 -712 -331 -833 -708 -42 -129 -51 -191 -51
-340 0 -112 4 -158 22 -230 42 -167 101 -288 207 -424 60 -76 183 -187 247
-223 21 -12 38 -25 38 -30 0 -4 7 -8 15 -8 15 0 115 -47 115 -54 0 -1 -57 -50
-126 -107 -70 -57 -168 -140 -219 -184 -50 -44 -138 -117 -196 -161 -57 -45
-140 -113 -184 -151 -44 -38 -118 -100 -165 -137 -47 -38 -87 -73 -88 -78 -2
-5 -17 -15 -33 -24 l-30 -15 -97 93 c-85 82 -190 172 -273 233 -15 11 -63 48
-108 83 -129 100 -233 163 -431 262 -102 51 -190 97 -197 102 -35 28 -346 133
-369 124 -17 -6 -17 -8 2 -26 11 -11 84 -45 162 -75 126 -48 428 -196 565
-277 42 -25 227 -154 368 -258 108 -80 237 -194 308 -273 l24 -27 -24 -26
c-13 -15 -48 -45 -78 -67 -116 -86 -260 -218 -254 -232 10 -28 33 -15 137 78
182 162 237 207 251 207 7 0 42 -35 78 -77 61 -74 64 -79 50 -100 -9 -13 -25
-29 -37 -36 -85 -47 -339 -258 -327 -270 6 -6 21 -1 43 14 70 50 294 229 317
253 13 15 29 26 37 26 16 0 56 -59 48 -72 -3 -4 -30 -24 -61 -44 -30 -19 -118
-82 -194 -140 -97 -73 -137 -108 -133 -119 4 -8 8 -15 10 -15 2 0 40 29 84 64
44 36 122 94 173 130 50 37 104 76 118 87 23 18 29 19 48 8 11 -8 21 -17 21
-22 0 -7 25 -45 109 -164 17 -23 31 -49 33 -58 2 -13 -52 -45 -213 -128 -252
-130 -262 -137 -250 -156 8 -13 16 -12 53 3 24 10 52 23 62 28 11 6 90 48 176
93 86 45 166 89 178 96 20 13 24 11 47 -16 31 -36 205 -382 205 -407 0 -19
-75 -46 -207 -73 -65 -13 -240 -65 -305 -90 -10 -4 -18 -14 -18 -22 0 -19 20
-16 175 29 66 19 156 43 200 53 44 10 102 25 129 33 47 15 49 15 66 -8 34 -46
83 -178 106 -290 24 -115 67 -307 83 -366 5 -18 5 -37 2 -43 -9 -14 -306 -16
-429 -3 -104 11 -132 8 -132 -18 0 -25 103 -35 362 -35 119 0 215 -2 213 -5
-2 -3 1 -28 5 -57 26 -162 46 -678 27 -690 -4 -2 -7 -26 -6 -51 1 -26 -1 -65
-4 -87 -3 -22 -9 -78 -12 -125 -4 -47 -11 -93 -16 -102 -5 -10 -11 -42 -13
-73 -2 -31 -8 -61 -14 -68 -5 -7 -12 -37 -15 -67 -4 -31 -13 -76 -21 -100 -7
-25 -19 -65 -26 -90 -7 -25 -16 -55 -21 -68 -10 -24 -2 -72 11 -72 14 0 51
100 80 223 17 67 36 145 44 172 15 52 22 90 31 165 3 25 12 104 21 175 22 193
27 499 11 705 -7 96 -15 182 -18 190 -3 13 32 15 286 12 293 -3 320 -4 658
-18 126 -5 187 -4 187 3 0 16 -52 23 -169 23 -58 0 -158 5 -221 10 -63 5 -257
15 -430 20 -173 6 -316 12 -317 14 -1 1 -11 49 -23 107 -11 57 -27 129 -36
159 -73 257 -121 398 -145 433 -41 58 -27 64 378 168 87 22 223 58 303 81 205
56 287 78 350 93 87 19 583 153 614 165 16 6 118 35 228 65 111 31 208 60 217
66 14 10 14 10 0 6 -36 -11 -349 -93 -564 -147 -126 -32 -284 -73 -350 -90
-66 -18 -145 -38 -175 -45 -30 -7 -109 -27 -175 -45 -255 -69 -373 -100 -440
-116 -38 -9 -123 -32 -187 -50 -64 -19 -127 -34 -140 -34 -13 0 -36 -7 -53
-16 -28 -14 -30 -14 -47 8 -10 13 -29 55 -44 93 -31 81 -96 207 -148 284 -20
29 -36 58 -36 65 0 13 74 52 420 222 140 69 449 222 687 340 237 118 434 214
437 214 5 0 371 181 456 225 19 10 30 20 24 22 -6 2 -64 -22 -130 -53 -222
-104 -243 -114 -248 -114 -12 0 -616 -296 -826 -404 -80 -42 -172 -87 -205
-102 -77 -34 -245 -114 -462 -220 -95 -46 -178 -81 -185 -79 -7 3 -30 36 -52
74 -21 37 -58 94 -82 127 -24 32 -44 63 -44 69 0 10 136 115 511 392 81 59
195 144 254 188 59 44 120 89 135 100 16 11 84 62 152 112 169 127 211 157
223 162 5 2 53 36 105 75 122 91 130 96 289 191 225 135 395 318 474 510 15
39 32 79 37 90 37 81 63 277 54 405 -10 147 -52 292 -120 419 -64 118 -111
181 -218 286 -81 80 -105 97 -216 153 -142 71 -263 108 -395 122 -117 12 -169
11 -285 -7z m445 -133 c312 -99 560 -353 636 -651 82 -319 24 -609 -168 -849
-52 -65 -203 -193 -247 -211 -17 -7 -50 -25 -73 -41 -23 -16 -57 -31 -75 -35
-18 -3 -52 -14 -76 -25 -46 -19 -87 -24 -78 -9 3 5 30 25 59 44 61 41 197 166
181 167 -6 0 -60 -37 -120 -83 -196 -150 -203 -154 -281 -156 -76 -2 -254 17
-266 28 -9 9 52 67 183 176 52 43 109 91 125 106 17 16 39 35 49 42 12 9 15
16 9 20 -10 6 -190 -130 -328 -246 -95 -81 -95 -81 -118 -69 -12 6 -53 25 -91
42 -168 77 -336 230 -418 380 -35 64 -96 236 -109 306 -17 90 -5 290 24 404
52 207 184 393 374 525 104 73 213 120 347 151 98 22 371 13 461 -16z m-532
-1930 c65 -16 138 -30 162 -30 25 0 45 -4 45 -8 0 -8 -66 -61 -290 -236 -30
-23 -134 -105 -230 -182 -96 -76 -202 -159 -235 -184 -87 -64 -362 -286 -412
-332 -47 -42 -78 -49 -88 -19 -3 11 -31 47 -61 81 l-55 62 39 36 c73 71 140
128 307 262 92 74 211 173 265 220 53 47 136 117 185 155 48 39 124 100 168
138 44 37 81 67 82 67 1 0 54 -13 118 -30z m522 -25 c-11 -8 -101 -75 -200
-147 -99 -73 -199 -146 -222 -163 -23 -16 -164 -123 -315 -236 -150 -113 -327
-244 -393 -290 -66 -46 -166 -119 -223 -161 -57 -43 -106 -78 -109 -78 -14 0
-53 44 -53 60 0 15 94 98 170 150 19 13 74 56 121 94 47 39 102 85 124 101 21
17 77 62 125 100 48 39 103 83 123 98 136 107 175 137 282 219 217 166 250
191 283 220 29 25 41 28 105 29 40 0 92 4 117 8 25 5 54 9 65 9 l20 1 -20 -14z"/>
<path d="M8840 6050 c8 -5 20 -10 25 -10 6 0 3 5 -5 10 -8 5 -19 10 -25 10 -5
0 -3 -5 5 -10z"/>
<path d="M8905 5700 c-19 -8 -19 -9 2 -9 12 -1 25 4 28 9 7 12 -2 12 -30 0z"/>
<path d="M2417 6023 c-63 -34 -220 -181 -213 -200 3 -8 2 -12 -3 -9 -22 14
-94 -105 -129 -214 -62 -193 -55 -347 26 -539 34 -80 69 -138 115 -187 l28
-31 -23 -79 c-13 -43 -30 -80 -36 -82 -7 -2 -12 2 -12 10 0 7 -23 38 -51 68
-28 30 -62 75 -76 100 -15 25 -37 57 -50 71 -25 27 -66 153 -88 270 -7 36 -14
70 -17 75 -3 5 -1 67 3 137 11 168 58 310 147 445 60 93 62 124 2 82 -26 -19
-103 -125 -133 -185 -26 -53 -56 -155 -73 -249 -39 -221 24 -486 165 -691 45
-66 118 -155 149 -182 25 -21 25 -23 13 -65 -7 -24 -22 -63 -33 -88 -18 -42
-19 -43 -15 -12 2 17 0 32 -5 32 -4 0 -40 30 -79 67 -65 61 -133 146 -167 209
-7 13 -18 24 -24 24 -6 0 -8 3 -5 6 3 4 -4 25 -17 48 -47 81 -104 274 -120
406 -16 128 0 295 38 415 27 83 24 98 -19 93 -21 -3 -55 -94 -75 -198 -13 -71
-19 -258 -9 -313 28 -165 42 -231 64 -293 29 -86 119 -246 185 -329 66 -83
207 -218 220 -210 16 10 12 -34 -9 -100 -32 -97 -61 -198 -64 -220 -5 -38 -15
-44 -50 -33 -50 17 -69 24 -117 46 -55 25 -114 49 -250 102 -57 22 -111 47
-120 55 -16 15 -211 99 -268 116 -24 8 -37 7 -48 -2 -11 -9 -14 -8 -15 2 -1 8
-5 -2 -9 -21 -11 -46 -4 -53 116 -99 100 -38 113 -44 304 -133 58 -27 137 -62
175 -78 39 -15 95 -39 125 -53 30 -14 68 -29 83 -32 31 -8 33 -20 13 -85 -10
-33 -19 -46 -35 -48 -11 -2 -21 1 -21 7 0 6 -19 20 -42 30 -24 11 -92 42 -153
70 -60 27 -182 82 -270 121 -88 40 -197 90 -241 111 -84 40 -104 46 -104 29 0
-5 5 -10 10 -10 6 0 3 -11 -6 -25 -9 -14 -23 -25 -30 -25 -8 0 -14 -4 -14 -9
0 -10 53 -51 66 -51 4 0 15 -6 23 -14 9 -7 50 -28 91 -46 41 -18 111 -48 155
-67 44 -19 107 -45 140 -57 33 -13 85 -35 115 -49 111 -52 225 -97 248 -97 21
0 22 -3 16 -37 -4 -21 -13 -53 -20 -71 l-13 -33 -28 20 c-33 25 -310 145 -473
206 -63 24 -131 50 -150 59 -82 37 -230 96 -239 96 -6 0 -11 -9 -11 -19 0 -11
-4 -23 -10 -26 -5 -3 -10 -15 -10 -26 0 -14 14 -26 48 -40 26 -11 65 -29 87
-41 22 -11 69 -29 105 -40 36 -11 83 -31 105 -43 74 -42 439 -202 493 -216 29
-7 52 -18 52 -26 0 -22 -24 -103 -30 -103 -4 0 -34 13 -68 30 -34 17 -64 30
-67 30 -2 0 -71 30 -152 66 -81 36 -177 76 -213 89 -63 22 -96 37 -245 105
-117 54 -161 69 -175 60 -7 -4 -10 -15 -7 -23 3 -9 1 -17 -5 -19 -8 -3 -7 -10
1 -26 13 -25 105 -73 265 -138 61 -26 138 -59 171 -74 110 -52 438 -190 452
-190 18 0 16 -18 -9 -100 -13 -43 -27 -70 -36 -70 -8 0 -82 29 -165 64 -84 35
-208 87 -277 116 -181 75 -304 128 -394 171 -76 36 -113 41 -102 13 3 -7 1
-16 -4 -19 -16 -10 8 -45 38 -56 37 -14 160 -71 331 -155 80 -39 180 -86 221
-103 41 -18 93 -40 115 -50 101 -47 185 -81 199 -81 9 0 16 -3 16 -8 0 -18
-161 -553 -185 -615 -9 -21 -17 -55 -20 -75 -3 -20 -8 -50 -12 -67 -4 -16 -7
-34 -8 -40 0 -5 -6 -21 -12 -35 -6 -14 -20 -56 -31 -95 -87 -299 -111 -385
-118 -420 -4 -22 -13 -55 -21 -73 -7 -17 -10 -32 -7 -32 4 0 2 -6 -3 -12 -6
-7 -18 -38 -28 -68 -15 -46 -30 -66 -94 -124 -145 -132 -413 -401 -470 -470
-107 -132 -206 -261 -230 -299 -12 -21 -28 -43 -35 -50 -7 -6 -32 -48 -56 -92
-24 -44 -60 -105 -80 -135 -21 -30 -50 -80 -65 -110 -15 -30 -33 -62 -40 -70
-15 -17 -58 -100 -74 -143 l-11 -27 330 0 329 0 -9 30 c-5 17 -5 28 0 25 4 -3
10 0 12 7 2 6 10 8 17 4 7 -5 10 -15 6 -24 -5 -13 -1 -12 13 3 17 18 17 21 3
27 -13 5 -12 7 4 8 19 1 18 2 -2 10 -27 11 -31 40 -5 40 15 1 15 2 -2 15 -17
13 -17 15 -3 15 14 0 84 58 76 63 -38 20 -44 26 -40 48 3 13 5 34 5 47 1 12 7
22 14 22 6 0 12 5 12 10 0 6 -5 10 -12 10 -6 0 -3 6 7 14 14 10 17 17 8 27
-12 16 -14 49 -2 49 4 0 10 -8 13 -17 5 -12 9 -14 18 -5 9 9 9 15 0 24 -18 18
-14 28 11 28 12 0 18 4 12 8 -17 12 -14 43 4 41 32 -3 34 1 12 25 -13 14 -18
26 -12 30 5 4 13 2 16 -4 5 -8 11 -7 21 1 8 6 17 9 20 6 3 -3 -8 -56 -26 -119
-42 -155 -80 -299 -85 -323 -2 -11 -12 -48 -23 -82 l-20 -63 49 0 c27 0 49 2
49 4 0 5 62 245 105 406 41 155 135 499 162 590 14 47 40 143 59 213 30 114
73 265 119 422 35 117 98 335 114 395 10 36 29 101 41 145 13 44 42 152 65
240 24 88 52 196 64 240 12 44 35 130 51 190 15 61 38 146 50 190 12 44 26 94
30 110 4 17 26 86 48 155 51 160 86 275 113 375 11 44 31 116 44 160 12 44 43
157 68 250 25 94 57 211 71 260 14 50 36 129 48 177 14 52 28 88 36 88 6 0 12
4 12 9 0 5 -6 12 -12 14 -10 4 -10 8 -2 14 16 11 48 130 46 171 0 20 4 32 12
32 8 0 21 34 33 88 11 48 55 214 97 369 42 155 76 286 75 290 -1 24 -145 -413
-179 -545 -36 -141 -59 -208 -60 -174 0 21 -45 92 -63 100 -4 2 -5 8 -2 12 3
5 -3 18 -15 30 -11 11 -22 30 -24 43 -2 12 -9 21 -16 19 -6 -1 -9 2 -5 8 6 10
-21 106 -35 125 -12 16 -6 253 9 320 7 33 26 86 42 119 16 32 26 63 22 69 -3
5 -1 7 4 4 6 -4 23 12 39 36 32 48 118 137 132 137 14 0 43 36 35 44 -4 4 -1
5 7 2 8 -3 29 6 45 20 17 15 24 23 16 19 -21 -12 -62 -15 -56 -5 3 5 13 6 22
3 10 -4 14 -2 10 4 -4 6 4 9 22 7 18 -2 39 4 55 17 57 45 10 53 -67 12z
m-1207 -4667 c0 -14 -5 -28 -12 -32 -7 -5 -9 0 -6 14 6 20 5 21 -15 7 -35 -25
-44 -16 -12 10 38 31 45 31 45 1z m-27 -54 c3 7 6 3 6 -9 1 -25 -42 -190 -88
-334 -16 -52 -39 -128 -51 -169 -11 -41 -26 -85 -32 -97 -10 -19 -12 -32 -17
-82 -1 -10 -11 -12 -41 -8 -41 5 -73 32 -86 72 -4 11 -12 23 -18 27 -7 5 -5 8
6 8 10 0 15 7 13 18 -1 9 2 23 8 30 6 8 6 12 -2 12 -6 0 -11 4 -11 10 0 5 7 7
15 4 9 -4 15 0 15 10 0 10 5 13 17 9 13 -5 15 -2 11 15 -4 13 -2 20 3 16 6 -3
7 6 3 23 -4 15 -7 28 -8 28 -15 6 -73 65 -64 66 19 2 20 2 57 -6 30 -7 33 -5
29 13 -3 12 1 24 12 32 16 11 16 15 5 27 -19 19 -8 48 12 32 12 -11 13 -8 8
14 -6 23 -2 29 24 44 17 10 34 26 37 35 3 10 11 15 20 11 10 -4 12 0 8 11 -4
10 0 18 10 22 12 5 14 10 6 19 -8 9 -5 14 12 18 28 8 49 -10 28 -23 -13 -8
-12 -10 3 -10 12 0 17 8 17 25 0 14 -4 25 -10 25 -5 0 -10 8 -9 18 0 9 3 12 6
5 3 -10 7 -10 17 0 11 10 10 14 -5 25 -28 19 -23 35 5 17 19 -13 25 -13 29 -3z
m-193 -192 c0 -5 -5 -10 -11 -10 -5 0 -7 5 -4 10 3 6 8 10 11 10 2 0 4 -4 4
-10z m-35 -110 c-3 -5 -14 -10 -23 -10 -15 0 -15 2 -2 10 20 13 33 13 25 0z
m-115 -59 c0 -17 -18 -21 -24 -6 -3 9 0 15 9 15 8 0 15 -4 15 -9z m-13 -746
c0 -18 -19 -15 -25 3 -2 7 3 12 11 12 7 0 14 -7 14 -15z m-82 -75 c3 -5 1 -10
-4 -10 -6 0 -11 5 -11 10 0 6 2 10 4 10 3 0 8 -4 11 -10z"/>
<path d="M1127 1165 c-4 -8 -13 -15 -22 -15 -8 0 -15 -5 -15 -11 0 -6 7 -9 15
-5 8 3 15 1 15 -4 0 -6 -5 -10 -11 -10 -5 0 -7 -5 -4 -11 5 -6 12 -4 20 8 8
10 9 19 4 21 -6 3 -5 10 2 18 7 8 10 17 7 20 -3 3 -8 -2 -11 -11z"/>
<path d="M1084 1081 c-18 -5 -20 -8 -9 -18 10 -10 16 -9 26 3 15 18 10 22 -17
15z"/>
<path d="M1060 1032 c0 -5 7 -15 15 -22 8 -7 15 -8 15 -2 0 5 -7 15 -15 22 -8
7 -15 8 -15 2z"/>
<path d="M1044 949 c-2 -4 0 -10 6 -14 11 -7 30 2 30 14 0 10 -29 10 -36 0z"/>
<path d="M1031 881 c-7 -5 -9 -11 -5 -14 5 -3 15 1 22 9 14 16 5 18 -17 5z"/>
<path d="M1018 818 c9 -9 15 -9 24 0 9 9 7 12 -12 12 -19 0 -21 -3 -12 -12z"/>
<path d="M987 753 c-4 -3 -2 -12 3 -18 8 -9 6 -14 -5 -19 -17 -6 -21 -26 -5
-26 12 0 41 55 33 64 -8 8 -18 8 -26 -1z"/>
<path d="M958 648 c9 -9 15 -9 24 0 9 9 7 12 -12 12 -19 0 -21 -3 -12 -12z"/>
<path d="M2487 5653 c-4 -3 -7 -16 -6 -27 0 -19 1 -19 10 3 10 24 8 36 -4 24z"/>
<path d="M50 5553 c-42 -5 -65 -23 -29 -23 13 0 38 4 54 9 17 4 45 6 63 3 l32
-4 2 -202 c1 -223 14 -163 17 80 l1 132 -31 6 c-32 6 -47 6 -109 -1z"/>
<path d="M173 5061 c1 -16 5 -27 10 -24 10 6 9 53 -3 53 -5 0 -8 -13 -7 -29z"/>
<path d="M5265 5020 c3 -5 11 -10 16 -10 6 0 7 5 4 10 -3 6 -11 10 -16 10 -6
0 -7 -4 -4 -10z"/>
<path d="M6200 5020 c0 -5 5 -10 11 -10 5 0 7 5 4 10 -3 6 -8 10 -11 10 -2 0
-4 -4 -4 -10z"/>
<path d="M5080 5013 c0 -6 4 -14 9 -17 12 -8 41 4 41 16 0 6 -7 5 -16 -3 -13
-10 -17 -10 -25 2 -5 9 -9 10 -9 2z"/>
<path d="M5960 5001 c0 -12 5 -21 10 -21 6 0 10 6 10 14 0 8 -4 18 -10 21 -5
3 -10 -3 -10 -14z"/>
<path d="M0 4916 l0 -56 203 0 c111 -1 296 -1 412 -1 l210 0 3 51 c3 46 1 50
-20 50 -13 0 -200 3 -415 6 l-393 5 0 -55z"/>
<path d="M6491 4944 c0 -11 3 -14 6 -6 3 7 2 16 -1 19 -3 4 -6 -2 -5 -13z"/>
<path d="M4975 4855 c11 -9 19 -21 17 -26 -1 -6 2 -8 8 -4 13 8 4 22 -23 35
-22 11 -22 11 -2 -5z"/>
<path d="M565 4422 c-1 -2 -129 -3 -284 -2 l-281 0 0 -55 0 -55 323 -2 c177
-1 369 -1 427 0 l105 2 0 52 0 53 -143 5 c-79 3 -145 4 -147 2z"/>
<path d="M4990 4160 c0 -5 5 -10 10 -10 6 0 10 5 10 10 0 6 -4 10 -10 10 -5 0
-10 -4 -10 -10z"/>
<path d="M4925 4120 c-3 -5 -1 -10 4 -10 6 0 11 5 11 10 0 6 -2 10 -4 10 -3 0
-8 -4 -11 -10z"/>
<path d="M6905 4110 c-3 -5 -1 -10 4 -10 6 0 11 5 11 10 0 6 -2 10 -4 10 -3 0
-8 -4 -11 -10z"/>
<path d="M4850 3985 c0 -9 5 -15 11 -13 6 2 11 8 11 13 0 5 -5 11 -11 13 -6 2
-11 -4 -11 -13z"/>
<path d="M7010 3930 c0 -5 5 -10 11 -10 5 0 7 5 4 10 -3 6 -8 10 -11 10 -2 0
-4 -4 -4 -10z"/>
<path d="M7050 3890 c0 -5 5 -10 10 -10 6 0 10 5 10 10 0 6 -4 10 -10 10 -5 0
-10 -4 -10 -10z"/>
<path d="M0 3810 l0 -60 425 0 c318 0 429 3 439 12 12 12 8 71 -8 96 -5 8
-126 11 -431 12 l-425 0 0 -60z"/>
<path d="M4840 3835 c0 -8 5 -15 10 -15 6 0 10 7 10 15 0 8 -4 15 -10 15 -5 0
-10 -7 -10 -15z"/>
<path d="M7111 3823 c-1 -7 8 -17 19 -23 14 -7 20 -7 20 0 0 5 -6 10 -14 10
-8 0 -17 6 -19 13 -4 9 -6 9 -6 0z"/>
<path d="M4812 3808 c-14 -14 -16 -28 -3 -28 5 0 11 9 14 20 6 23 5 24 -11 8z"/>
<path d="M7050 3801 c0 -5 9 -7 20 -4 11 3 20 7 20 9 0 2 -9 4 -20 4 -11 0
-20 -4 -20 -9z"/>
<path d="M7195 3749 c-4 -6 -5 -12 -2 -15 2 -3 7 2 10 11 7 17 1 20 -8 4z"/>
<path d="M4720 3630 c-8 -5 -11 -12 -7 -16 4 -4 15 0 24 9 18 18 8 23 -17 7z"/>
<path d="M7185 3590 c3 -5 8 -10 11 -10 2 0 4 5 4 10 0 6 -5 10 -11 10 -5 0
-7 -4 -4 -10z"/>
<path d="M7210 3570 c0 -5 5 -10 10 -10 6 0 10 5 10 10 0 6 -4 10 -10 10 -5 0
-10 -4 -10 -10z"/>
<path d="M4550 3525 c0 -8 5 -15 10 -15 6 0 10 7 10 15 0 8 -4 15 -10 15 -5 0
-10 -7 -10 -15z"/>
<path d="M7330 3473 c0 -17 19 -35 29 -29 8 5 7 11 -3 22 -16 15 -26 18 -26 7z"/>
<path d="M4316 3371 c-4 -7 -5 -15 -2 -18 9 -9 19 4 14 18 -4 11 -6 11 -12 0z"/>
<path d="M7740 3330 c0 -5 5 -10 10 -10 6 0 10 5 10 10 0 6 -4 10 -10 10 -5 0
-10 -4 -10 -10z"/>
<path d="M7698 3323 c6 -2 18 -2 25 0 6 3 1 5 -13 5 -14 0 -19 -2 -12 -5z"/>
<path d="M7771 3314 c0 -11 3 -14 6 -6 3 7 2 16 -1 19 -3 4 -6 -2 -5 -13z"/>
<path d="M7740 3298 c0 -9 5 -20 10 -23 13 -8 13 5 0 25 -8 13 -10 13 -10 -2z"/>
<path d="M4288 3292 c-15 -6 -15 -9 -2 -26 14 -19 14 -19 14 1 0 12 6 24 13
26 6 3 8 5 2 6 -5 0 -18 -3 -27 -7z"/>
<path d="M7828 3193 c7 -3 16 -2 19 1 4 3 -2 6 -13 5 -11 0 -14 -3 -6 -6z"/>
<path d="M7758 3163 c7 -3 16 -2 19 1 4 3 -2 6 -13 5 -11 0 -14 -3 -6 -6z"/>
<path d="M7806 3155 c-11 -8 -15 -15 -9 -15 6 0 16 7 23 15 16 19 11 19 -14 0z"/>
<path d="M7744 3125 c-3 -13 -4 -30 -1 -37 3 -8 6 -6 6 5 1 11 5 15 13 11 8
-5 9 -2 4 11 -4 11 -2 22 6 27 10 6 8 8 -4 8 -10 0 -20 -10 -24 -25z"/>
<path d="M7795 3120 c-3 -5 -2 -10 4 -10 5 0 13 5 16 10 3 6 2 10 -4 10 -5 0
-13 -4 -16 -10z"/>
<path d="M9685 3110 c-3 -5 -1 -10 4 -10 6 0 11 5 11 10 0 6 -2 10 -4 10 -3 0
-8 -4 -11 -10z"/>
<path d="M7775 3090 c-3 -5 -1 -10 4 -10 6 0 11 5 11 10 0 6 -2 10 -4 10 -3 0
-8 -4 -11 -10z"/>
<path d="M9847 3049 c7 -7 15 -10 18 -7 3 3 -2 9 -12 12 -14 6 -15 5 -6 -5z"/>
<path d="M4298 3043 c-16 -2 -28 -8 -28 -12 0 -11 49 -1 56 10 3 5 4 8 2 8 -2
-1 -15 -4 -30 -6z"/>
<path d="M9646 3042 c-3 -5 1 -9 9 -9 8 0 12 4 9 9 -3 4 -7 8 -9 8 -2 0 -6 -4
-9 -8z"/>
<path d="M4315 2890 c-3 -5 -1 -10 4 -10 6 0 11 5 11 10 0 6 -2 10 -4 10 -3 0
-8 -4 -11 -10z"/>
<path d="M4280 2876 c0 -9 5 -16 10 -16 6 0 10 4 10 9 0 6 -4 13 -10 16 -5 3
-10 -1 -10 -9z"/>
<path d="M9501 2800 c-23 -43 -28 -58 -16 -54 9 4 13 9 10 12 -3 3 7 25 21 49
14 25 24 46 22 48 -2 2 -19 -23 -37 -55z"/>
<path d="M4240 2819 c0 -5 5 -7 10 -4 6 3 10 8 10 11 0 2 -4 4 -10 4 -5 0 -10
-5 -10 -11z"/>
<path d="M4330 2760 c0 -5 5 -10 10 -10 6 0 10 5 10 10 0 6 -4 10 -10 10 -5 0
-10 -4 -10 -10z"/>
<path d="M977 2733 c-8 -12 10 -80 23 -88 5 -3 11 -1 15 5 3 6 -1 13 -10 16
-9 4 -14 13 -11 20 7 18 -9 61 -17 47z"/>
<path d="M1075 2720 c3 -5 8 -10 11 -10 2 0 4 5 4 10 0 6 -5 10 -11 10 -5 0
-7 -4 -4 -10z"/>
<path d="M4265 2710 c-3 -5 1 -10 9 -10 9 0 16 5 16 10 0 6 -4 10 -9 10 -6 0
-13 -4 -16 -10z"/>
<path d="M4398 2663 c7 -3 16 -2 19 1 4 3 -2 6 -13 5 -11 0 -14 -3 -6 -6z"/>
<path d="M4315 2650 c3 -5 8 -10 11 -10 2 0 4 5 4 10 0 6 -5 10 -11 10 -5 0
-7 -4 -4 -10z"/>
<path d="M883 2593 c2 -46 4 -48 27 -33 13 9 13 12 -1 23 -9 7 -19 21 -22 32
-3 11 -4 1 -4 -22z"/>
<path d="M784 2585 c-8 -13 -13 -29 -9 -35 12 -20 23 -10 27 25 2 19 3 35 1
35 -1 0 -10 -11 -19 -25z"/>
<path d="M708 2564 c-5 -4 -8 -16 -8 -28 0 -14 3 -17 11 -9 6 6 9 19 7 28 -1
9 -6 13 -10 9z"/>
<path d="M9360 2534 c-24 -48 -24 -50 -1 -21 13 15 21 32 19 38 -2 6 -10 -2
-18 -17z"/>
<path d="M4352 2495 c0 -16 2 -22 5 -12 2 9 2 23 0 30 -3 6 -5 -1 -5 -18z"/>
<path d="M700 2501 c0 -5 6 -14 14 -20 11 -9 16 -9 21 0 4 6 1 15 -6 20 -18
11 -29 11 -29 0z"/>
<path d="M790 2494 c0 -8 5 -12 10 -9 6 3 10 10 10 16 0 5 -4 9 -10 9 -5 0
-10 -7 -10 -16z"/>
<path d="M4381 2503 c0 -6 -4 -20 -7 -30 -5 -14 -4 -15 5 -7 7 7 11 20 8 30
-3 11 -5 14 -6 7z"/>
<path d="M7870 2470 c0 -5 9 -10 21 -10 11 0 17 5 14 10 -3 6 -13 10 -21 10
-8 0 -14 -4 -14 -10z"/>
<path d="M9322 2468 c-14 -18 -46 -85 -35 -73 14 15 55 85 50 85 -2 0 -9 -6
-15 -12z"/>
<path d="M7900 2440 c0 -5 5 -10 10 -10 6 0 10 5 10 10 0 6 -4 10 -10 10 -5 0
-10 -4 -10 -10z"/>
<path d="M4368 2403 c6 -2 18 -2 25 0 6 3 1 5 -13 5 -14 0 -19 -2 -12 -5z"/>
<path d="M3538 2375 c-2 -2 -23 -4 -48 -6 -25 -1 -50 -7 -57 -11 -12 -10 -49
-16 -96 -17 -20 -1 -30 -7 -34 -21 -5 -17 -8 -18 -21 -8 -12 10 -16 10 -19 1
-3 -7 -16 -13 -29 -13 -13 0 -29 -9 -36 -20 -7 -11 -18 -20 -25 -20 -6 0 -42
-30 -80 -66 -51 -50 -67 -72 -65 -90 2 -12 -5 -31 -15 -41 -11 -11 -18 -24
-15 -31 2 -6 -2 -21 -9 -34 -8 -13 -12 -27 -11 -32 2 -4 -3 -15 -10 -23 -7 -9
-14 -29 -15 -47 -2 -17 -4 -49 -6 -71 -2 -22 0 -46 6 -52 7 -9 5 -13 -6 -13
-18 0 -11 -40 7 -40 6 0 2 -8 -9 -16 -19 -14 -19 -16 -2 -25 12 -7 16 -17 12
-30 -5 -14 -1 -25 12 -34 14 -11 15 -15 3 -15 -11 0 -9 -6 8 -19 12 -11 22
-28 22 -39 0 -12 5 -33 12 -49 6 -15 12 -31 12 -35 1 -3 4 -9 8 -13 4 -4 4
-13 1 -21 -3 -9 0 -14 8 -12 8 2 13 -3 12 -9 -2 -7 4 -13 12 -13 8 0 15 -4 15
-10 0 -5 -4 -10 -10 -10 -5 0 -10 -5 -10 -11 0 -8 5 -7 16 2 13 11 17 10 25
-4 6 -9 21 -29 35 -44 13 -14 24 -29 24 -34 0 -4 21 -17 48 -29 26 -12 55 -26
64 -31 10 -5 24 -9 32 -9 8 0 34 -8 58 -19 61 -26 250 -38 271 -17 8 8 17 12
21 9 7 -7 106 15 152 33 17 7 36 20 44 28 7 9 21 16 31 16 10 0 21 5 24 11 4
5 18 15 32 20 14 5 27 19 30 30 4 14 12 19 23 16 26 -7 43 7 43 37 0 15 5 26
13 26 7 0 16 10 20 23 4 12 17 36 30 53 13 17 24 37 24 45 0 8 5 20 11 26 13
13 31 86 31 128 1 17 -2 77 -5 135 -4 93 -9 114 -41 185 -20 44 -36 85 -36 91
0 6 -11 21 -25 34 -14 13 -25 27 -25 32 0 20 -74 98 -93 98 -18 0 -49 28 -43
38 2 4 -14 7 -35 7 -29 1 -43 7 -55 23 -8 12 -23 22 -33 22 -10 0 -20 3 -24 6
-3 3 -36 6 -74 6 -37 1 -72 4 -78 8 -12 9 -53 19 -57 15z"/>
<path d="M8000 2360 c0 -5 5 -10 11 -10 5 0 7 5 4 10 -3 6 -8 10 -11 10 -2 0
-4 -4 -4 -10z"/>
<path d="M7965 2160 c-3 -5 -1 -10 4 -10 6 0 11 5 11 10 0 6 -2 10 -4 10 -3 0
-8 -4 -11 -10z"/>
<path d="M4364 2134 c-18 -14 -18 -15 4 -4 12 6 22 13 22 15 0 8 -5 6 -26 -11z"/>
<path d="M9340 1749 c0 -5 5 -7 10 -4 6 3 10 8 10 11 0 2 -4 4 -10 4 -5 0 -10
-5 -10 -11z"/>
<path d="M9457 1712 c-14 -15 -14 -19 -2 -19 8 0 12 4 9 9 -9 13 13 9 25 -5 6
-8 7 -18 3 -22 -4 -5 1 -5 11 -2 10 4 16 3 12 -3 -5 -9 50 -24 70 -19 6 1 17
-1 25 -4 8 -3 34 -11 58 -17 23 -6 42 -13 42 -16 0 -10 -115 7 -175 27 -69 21
-307 69 -347 69 -27 0 -34 -17 -15 -31 5 -3 2 -22 -7 -42 -8 -20 -11 -39 -6
-42 4 -3 -3 -27 -17 -54 -13 -27 -26 -62 -29 -77 -3 -15 -9 -37 -15 -48 -9
-18 -8 -18 10 3 26 29 26 24 1 -30 -11 -24 -20 -54 -20 -67 0 -12 -9 -40 -20
-62 -11 -22 -20 -48 -20 -60 0 -11 -4 -20 -9 -20 -13 0 -68 -161 -63 -183 1
-4 -4 -18 -13 -30 -33 -47 -5 -82 75 -92 30 -4 96 -16 145 -27 50 -11 119 -26
155 -34 97 -21 119 -19 131 13 16 44 115 371 158 528 23 84 75 232 84 241 4 4
12 3 19 -3 7 -5 28 -10 46 -12 27 -2 32 1 32 20 0 12 -7 31 -16 41 -16 16 -18
17 -29 1 -13 -18 -35 -10 -35 13 0 8 -4 12 -10 9 -5 -3 -10 -1 -10 5 0 7 -12
22 -27 33 -31 25 -132 33 -140 11 -2 -7 -12 -10 -20 -7 -12 5 -14 3 -8 -8 7
-11 5 -11 -11 1 -10 8 -22 18 -25 23 -3 4 -13 -1 -22 -11z m100 -28 c-3 -3
-12 -4 -19 -1 -8 3 -5 6 6 6 11 1 17 -2 13 -5z m-94 -52 c26 -5 50 -12 53 -15
3 -3 -5 -38 -18 -77 -29 -90 -41 -97 -140 -81 -40 7 -76 15 -80 19 -6 6 4 93
18 151 5 23 8 23 62 17 31 -3 78 -10 105 -14z m-255 -181 c15 -8 16 -21 12
-85 -6 -90 -19 -105 -65 -76 -37 24 -41 43 -20 114 17 58 33 68 73 47z m377
-67 c19 -8 20 -52 1 -73 -7 -9 -21 -48 -31 -88 -25 -107 -29 -110 -98 -78 -31
15 -57 33 -57 41 0 12 36 127 60 190 10 25 13 26 60 20 28 -4 57 -9 65 -12z
m-291 -199 c31 -14 56 -26 56 -28 0 -2 -7 -25 -16 -51 l-16 -47 -52 3 -51 3 1
57 c1 53 8 88 17 88 3 0 30 -11 61 -25z m-180 -130 c25 -4 48 -10 51 -14 6
-11 -13 -133 -22 -142 -12 -12 -133 14 -143 30 -5 8 0 36 11 68 23 67 28 76
44 69 7 -2 33 -8 59 -11z m299 -60 c33 -7 61 -16 64 -18 5 -5 -32 -146 -41
-154 -2 -2 -21 0 -43 6 -21 6 -49 11 -63 11 -42 0 -50 16 -33 69 36 114 28
108 116 86z"/>
<path d="M2960 1529 c0 -5 5 -7 10 -4 6 3 10 8 10 11 0 2 -4 4 -10 4 -5 0 -10
-5 -10 -11z"/>
<path d="M9696 1525 c-9 -26 -7 -32 5 -12 6 10 9 21 6 23 -2 3 -7 -2 -11 -11z"/>
<path d="M9680 1429 c0 -5 5 -7 10 -4 6 3 10 8 10 11 0 2 -4 4 -10 4 -5 0 -10
-5 -10 -11z"/>
<path d="M7955 1360 c3 -5 10 -10 16 -10 5 0 9 5 9 10 0 6 -7 10 -16 10 -8 0
-12 -4 -9 -10z"/>
<path d="M9066 1335 c-9 -26 -7 -32 5 -12 6 10 9 21 6 23 -2 3 -7 -2 -11 -11z"/>
<path d="M10190 909 c0 -5 5 -7 10 -4 6 3 10 8 10 11 0 2 -4 4 -10 4 -5 0 -10
-5 -10 -11z"/>
<path d="M10115 900 c-25 -11 1 -11 35 0 20 6 21 8 5 8 -11 0 -29 -3 -40 -8z"/>
<path d="M10013 893 c9 -2 23 -2 30 0 6 3 -1 5 -18 5 -16 0 -22 -2 -12 -5z"/>
<path d="M10211 886 c-13 -15 -54 -29 -46 -16 3 5 1 11 -5 15 -5 3 -10 1 -10
-4 0 -6 -13 -11 -29 -11 -20 0 -30 -6 -34 -20 -6 -22 1 -24 35 -11 13 5 44 15
69 21 27 7 46 17 46 26 0 18 -11 18 -26 0z"/>
<path d="M8940 875 c-6 -8 -9 -19 -5 -25 3 -5 1 -10 -4 -10 -6 0 -11 -4 -11
-10 0 -15 27 -1 34 18 3 9 9 23 12 30 8 17 -11 15 -26 -3z"/>
<path d="M9967 876 c-4 -10 -1 -13 8 -9 8 3 12 9 9 14 -7 12 -11 11 -17 -5z"/>
<path d="M10165 836 c-22 -7 -89 -29 -150 -48 -60 -19 -189 -60 -285 -91 -194
-62 -380 -116 -541 -157 -59 -15 -137 -41 -174 -58 -37 -18 -75 -32 -86 -32
-10 0 -21 -5 -24 -10 -3 -6 -18 -10 -33 -10 -19 -1 -33 -10 -47 -32 -11 -18
-33 -39 -50 -48 -16 -9 -30 -22 -29 -28 1 -7 2 -23 3 -36 0 -14 7 -31 14 -38
7 -7 16 -21 20 -30 3 -10 13 -18 21 -18 12 0 12 -5 3 -29 -6 -17 -15 -28 -19
-25 -4 3 -8 1 -8 -5 0 -5 5 -13 10 -16 6 -3 10 -19 10 -35 0 -16 6 -35 13 -42
7 -7 16 -21 20 -31 6 -16 49 -17 707 -17 l700 0 0 425 c0 477 7 438 -75 411z
m-1335 -666 c0 -5 -5 -10 -11 -10 -5 0 -7 5 -4 10 3 6 8 10 11 10 2 0 4 -4 4
-10z m280 -51 c0 -6 -4 -7 -10 -4 -5 3 -10 11 -10 16 0 6 5 7 10 4 6 -3 10
-11 10 -16z"/>
<path d="M9916 825 c-3 -8 -1 -15 4 -15 6 0 10 7 10 15 0 8 -2 15 -4 15 -2 0
-6 -7 -10 -15z"/>
<path d="M10048 823 c7 -3 16 -2 19 1 4 3 -2 6 -13 5 -11 0 -14 -3 -6 -6z"/>
<path d="M9961 806 c-1 -13 4 -16 15 -12 9 3 20 6 25 6 5 0 9 5 9 10 0 7 -6 7
-19 0 -14 -7 -21 -6 -24 3 -3 7 -6 4 -6 -7z"/>
<path d="M9916 785 c-3 -8 -2 -15 3 -15 5 0 14 7 21 15 10 12 10 15 -3 15 -8
0 -17 -7 -21 -15z"/>
<path d="M9850 770 c-11 -21 -6 -24 25 -10 l20 9 -20 1 -20 1 20 9 c17 7 17 9
3 9 -10 1 -22 -8 -28 -19z"/>
<path d="M9800 754 c0 -8 -5 -12 -10 -9 -6 4 -17 1 -25 -5 -8 -7 -15 -9 -15
-4 0 5 -4 3 -8 -4 -5 -7 -22 -14 -38 -16 -16 -3 -40 -9 -54 -15 -21 -9 -19
-10 15 -4 22 3 56 11 75 18 19 8 47 16 62 19 19 4 26 11 22 21 -8 20 -24 19
-24 -1z"/>
<path d="M9320 751 c13 -10 13 -12 0 -22 -13 -9 -13 -10 0 -6 8 2 15 10 15 17
0 7 -7 15 -15 17 -13 4 -13 3 0 -6z"/>
<path d="M9362 721 c13 -22 28 -28 28 -11 0 5 -9 14 -20 20 -19 10 -20 10 -8
-9z"/>
<path d="M9435 700 c-3 -6 1 -7 9 -4 18 7 21 14 7 14 -6 0 -13 -4 -16 -10z"/>
<path d="M9468 683 c7 -3 16 -2 19 1 4 3 -2 6 -13 5 -11 0 -14 -3 -6 -6z"/>
<path d="M9570 683 c-42 -5 -66 -23 -29 -23 13 1 38 7 54 15 32 14 31 14 -25
8z"/>
<path d="M9356 672 c-3 -5 1 -9 9 -9 8 0 12 4 9 9 -3 4 -7 8 -9 8 -2 0 -6 -4
-9 -8z"/>
<path d="M9400 630 c-8 -5 -10 -10 -5 -10 6 0 17 5 25 10 8 5 11 10 5 10 -5 0
-17 -5 -25 -10z"/>
<path d="M9025 559 c-4 -6 -5 -12 -2 -15 2 -3 7 2 10 11 7 17 1 20 -8 4z"/>
<path d="M7990 409 c0 -5 5 -7 10 -4 6 3 10 8 10 11 0 2 -4 4 -10 4 -5 0 -10
-5 -10 -11z"/>
<path d="M880 340 c0 -6 7 -10 15 -10 8 0 15 2 15 4 0 2 -7 6 -15 10 -8 3 -15
1 -15 -4z"/>
<path d="M880 295 c-10 -12 -10 -15 4 -15 9 0 16 7 16 15 0 8 -2 15 -4 15 -2
0 -9 -7 -16 -15z"/>
<path d="M856 255 c8 -21 30 -25 31 -6 1 10 -6 17 -17 18 -12 1 -17 -3 -14
-12z"/>
<path d="M7725 99 c2 -19 -2 -32 -13 -40 -13 -8 -11 -9 13 -4 16 4 36 16 43
27 11 16 16 17 23 7 4 -7 11 -10 15 -6 12 11 -10 28 -49 37 -35 7 -36 7 -32
-21z m40 -9 c-3 -5 -11 -10 -16 -10 -6 0 -7 5 -4 10 3 6 11 10 16 10 6 0 7 -4
4 -10z"/>
<path d="M7930 74 c0 -8 5 -12 10 -9 6 4 8 11 5 16 -9 14 -15 11 -15 -7z"/>
<path d="M8120 50 c-12 -8 -10 -10 8 -10 13 0 20 4 17 10 -7 12 -6 12 -25 0z"/>
<path d="M7705 30 c-3 -6 1 -13 10 -16 19 -8 30 0 20 15 -8 14 -22 14 -30 1z"/>
<path d="M7460 15 c-10 -12 -10 -15 4 -15 9 0 16 7 16 15 0 8 -2 15 -4 15 -2
0 -9 -7 -16 -15z"/>
<path d="M7929 17 c6 -6 20 -5 38 1 28 9 27 9 -10 9 -22 -1 -33 -5 -28 -10z"/>
<path d="M8140 17 c-25 -10 -25 -10 -2 -14 12 -3 30 -3 39 -1 14 3 14 5 2 14
-10 9 -21 9 -39 1z"/>
<path d="M7630 10 c0 -5 5 -10 10 -10 6 0 10 5 10 10 0 6 -4 10 -10 10 -5 0
-10 -4 -10 -10z"/>
</g>
</svg>
