<?xml version="1.0" standalone="no"?>
<!DOCTYPE svg PUBLIC "-//W3C//DTD SVG 20010904//EN"
 "http://www.w3.org/TR/2001/REC-SVG-20010904/DTD/svg10.dtd">
<svg version="1.0" xmlns="http://www.w3.org/2000/svg"
 width="1024.000000pt" height="768.000000pt" viewBox="0 0 1024.000000 768.000000"
 preserveAspectRatio="xMidYMid meet">

<g transform="translate(0.000000,768.000000) scale(0.100000,-0.100000)"
fill="#000000" stroke="none">
<path d="M7316 5654 c-10 -26 -7 -34 14 -34 15 0 20 7 20 25 0 28 -24 34 -34
9z"/>
<path d="M5700 5605 c-10 -12 -11 -26 -4 -52 12 -49 31 -53 39 -10 12 62 -7
96 -35 62z"/>
<path d="M2100 5312 c0 -21 23 -62 36 -62 6 0 15 -7 18 -16 6 -15 4 -15 -11
-3 -15 12 -16 12 -10 -4 4 -10 7 -26 8 -35 0 -12 2 -13 6 -4 4 10 9 9 24 -4
33 -30 31 -9 -5 53 -35 61 -66 95 -66 75z"/>
<path d="M4889 5173 c-39 -10 -65 -128 -34 -153 13 -11 19 -9 33 10 35 48 52
86 52 117 0 33 -8 38 -51 26z"/>
<path d="M6623 5158 c-131 -146 -179 -333 -119 -461 14 -30 26 -61 26 -69 0
-9 6 -21 14 -27 12 -10 22 -1 55 50 23 35 41 67 41 71 0 5 11 26 24 47 35 55
78 160 82 201 5 54 -16 157 -38 185 -24 31 -58 32 -85 3z"/>
<path d="M910 5141 c0 -6 5 -13 10 -16 6 -3 10 1 10 9 0 9 -4 16 -10 16 -5 0
-10 -4 -10 -9z"/>
<path d="M2976 5048 c4 -24 11 -45 16 -46 4 -2 6 -9 2 -15 -3 -7 4 -1 15 12
22 24 28 47 11 36 -14 -9 -12 8 3 24 10 11 9 13 -5 8 -12 -4 -18 -1 -18 8 0 8
-7 15 -15 15 -12 0 -14 -8 -9 -42z"/>
<path d="M570 5046 c0 -3 4 -16 10 -30 13 -35 28 -33 22 4 -2 17 -10 30 -18
30 -8 0 -14 -2 -14 -4z"/>
<path d="M7991 5036 c-7 -8 -10 -24 -6 -35 3 -10 1 -22 -5 -26 -5 -3 -10 -20
-10 -37 0 -17 -7 -39 -16 -49 -19 -21 -46 -111 -49 -162 -1 -21 -7 -43 -14
-50 -6 -6 -11 -18 -12 -26 0 -11 -2 -12 -6 -3 -2 6 -9 10 -14 6 -5 -3 -9 2 -9
10 0 25 -27 19 -33 -6 -2 -13 -20 -95 -40 -183 -20 -88 -39 -182 -43 -210 -4
-27 -18 -102 -31 -165 -13 -63 -28 -160 -34 -215 -5 -55 -14 -107 -18 -116
-10 -18 2 -96 17 -111 7 -7 12 -2 17 13 5 13 18 40 30 59 26 42 36 78 24 86
-14 8 -11 22 12 45 15 15 18 23 9 29 -14 9 -4 75 15 94 7 6 15 30 17 52 3 21
8 47 12 57 7 13 5 16 -9 11 -15 -6 -15 -4 -1 31 9 21 16 45 16 55 0 10 11 42
24 71 16 32 23 62 20 79 -4 16 4 47 20 82 14 31 26 69 27 85 0 25 1 26 9 8 15
-35 11 -267 -5 -295 -20 -34 -20 -60 0 -34 14 18 14 18 15 -8 0 -15 5 -30 10
-33 6 -3 10 -17 10 -31 0 -14 5 -45 11 -70 20 -76 43 -45 25 34 -7 31 -6 48 4
66 7 14 10 36 8 51 -3 15 -2 23 3 18 4 -4 10 -22 13 -40 14 -74 40 -106 42
-50 4 102 4 105 24 110 14 4 20 14 20 34 0 48 -20 275 -31 343 -6 36 -19 148
-29 249 -10 101 -21 185 -23 187 -2 3 -10 -2 -16 -10z"/>
<path d="M7860 5029 c0 -5 5 -7 10 -4 6 3 10 8 10 11 0 2 -4 4 -10 4 -5 0 -10
-5 -10 -11z"/>
<path d="M0 4939 c0 -77 3 -96 22 -122 26 -38 37 -47 61 -47 10 0 17 7 17 18
0 36 -81 242 -95 242 -3 0 -5 -41 -5 -91z"/>
<path d="M5542 5005 c12 -27 28 -33 28 -10 0 8 -9 19 -20 25 -18 10 -19 9 -8
-15z"/>
<path d="M5590 5001 c0 -5 7 -14 15 -21 16 -14 18 -10 9 14 -6 17 -24 22 -24
7z"/>
<path d="M7865 4990 c3 -5 8 -10 11 -10 2 0 4 5 4 10 0 6 -5 10 -11 10 -5 0
-7 -4 -4 -10z"/>
<path d="M9374 4827 c-3 -9 -10 -15 -14 -12 -11 6 -43 -38 -63 -87 -8 -20 -38
-65 -66 -101 -68 -86 -85 -132 -101 -266 l-13 -114 24 -18 c45 -34 57 -31 64
15 11 67 35 145 51 160 8 8 14 21 14 30 0 8 4 17 9 21 5 3 8 37 6 76 -3 61 0
75 16 93 16 16 19 29 14 54 -4 23 -3 32 4 27 6 -3 11 -13 11 -21 0 -9 6 -25
12 -37 7 -12 13 -31 13 -42 0 -15 8 -21 31 -23 31 -3 31 -2 38 53 6 56 4 78
-16 150 -14 50 -25 64 -34 42z"/>
<path d="M7885 4822 c-13 -9 -39 -82 -32 -89 3 -3 15 16 27 42 21 47 23 60 5
47z"/>
<path d="M8902 4744 c-7 -7 -11 -17 -10 -21 1 -4 -2 -46 -6 -93 -4 -47 -3 -98
2 -115 7 -26 9 -22 15 39 4 38 11 74 17 80 11 11 13 95 2 112 -5 9 -10 8 -20
-2z"/>
<path d="M7840 4709 c0 -5 5 -7 10 -4 6 3 10 8 10 11 0 2 -4 4 -10 4 -5 0 -10
-5 -10 -11z"/>
<path d="M3654 4654 c4 -9 1 -23 -5 -30 -9 -11 -8 -14 2 -14 12 0 12 -2 0 -9
-10 -6 -12 -20 -8 -46 4 -26 2 -38 -8 -41 -23 -9 -35 -66 -31 -144 4 -75 -6
-116 -25 -104 -6 3 -13 -3 -16 -14 -3 -11 -11 -23 -19 -26 -22 -9 -19 -137 5
-181 l19 -36 25 30 c13 16 39 68 56 115 34 97 58 138 124 214 46 55 58 84 49
127 -4 24 -22 36 -22 15 0 -5 -7 -10 -15 -10 -7 0 -18 -8 -24 -17 -9 -17 -11
-17 -38 -1 -22 13 -30 27 -36 69 -7 39 -6 54 4 60 10 6 10 13 1 33 -13 29 -49
37 -38 10z"/>
<path d="M516 4548 c5 -93 10 -111 45 -185 21 -46 39 -90 39 -99 0 -27 33 -75
48 -69 8 3 24 5 37 5 21 0 24 6 31 56 8 66 -16 176 -46 214 -11 14 -32 48 -46
77 -30 61 -69 103 -95 103 -18 0 -19 -7 -13 -102z"/>
<path d="M6022 4630 c0 -14 2 -19 5 -12 2 6 2 18 0 25 -3 6 -5 1 -5 -13z"/>
<path d="M2 4445 c0 -163 1 -168 14 -125 8 25 17 83 20 130 4 71 2 92 -15 125
l-19 40 0 -170z"/>
<path d="M2981 4527 c-11 -31 -37 -140 -48 -199 -4 -20 -1 -28 9 -28 28 0 50
44 69 141 23 122 23 119 0 119 -13 0 -23 -11 -30 -33z"/>
<path d="M3162 4537 c-32 -40 -61 -143 -62 -215 0 -24 -6 -55 -14 -70 -24 -47
-36 -132 -44 -307 -6 -146 -5 -172 8 -182 8 -6 18 -9 22 -7 9 6 68 -46 68 -60
1 -6 7 -24 14 -41 l14 -30 12 30 c16 39 21 75 9 75 -14 0 -11 57 4 72 8 7 12
19 9 26 -2 6 1 12 6 12 6 0 13 8 17 19 3 10 14 29 25 41 19 22 49 24 91 6 20
-9 28 9 36 86 7 66 -1 71 -64 41 -34 -16 -36 -16 -49 2 -18 24 -18 67 2 157
35 167 8 305 -66 343 -22 11 -30 12 -38 2z"/>
<path d="M4075 4530 c-12 -4 -25 -14 -31 -21 -11 -14 -40 -100 -67 -199 -48
-171 -47 -186 6 -176 17 3 42 8 54 10 12 2 26 7 32 10 17 11 24 -61 10 -116
-17 -74 -36 -117 -72 -161 -59 -75 -61 -98 -22 -254 19 -76 40 -155 45 -175
l11 -37 39 20 c77 40 202 -3 185 -64 -12 -42 -42 -57 -114 -58 -36 0 -61 -2
-56 -5 6 -2 9 -39 7 -91 -4 -93 9 -110 15 -21 5 86 46 84 58 -2 6 -42 5 -44
-9 -26 -16 19 -16 19 -16 -3 0 -30 21 -114 31 -126 6 -5 9 -4 9 4 0 7 15 1 35
-15 25 -19 35 -34 35 -54 0 -28 -32 -75 -44 -63 -12 12 -6 -48 8 -82 8 -18 12
-36 9 -38 -3 -3 0 -14 6 -24 10 -17 10 -17 11 1 0 11 9 29 19 40 10 12 60 81
109 154 80 117 90 137 81 159 -6 15 -5 31 1 43 5 10 10 30 10 43 0 18 9 29 34
41 26 12 39 27 52 64 9 26 35 88 56 137 151 342 151 344 123 410 -9 22 -29
103 -45 180 -39 189 -85 364 -99 378 -17 17 -30 -2 -43 -67 -12 -55 -12 -58
10 -75 19 -14 22 -23 16 -47 -13 -54 -33 -82 -69 -95 -29 -11 -37 -21 -51 -62
-15 -44 -15 -54 0 -112 21 -85 21 -159 -1 -181 -12 -11 -18 -13 -21 -5 -2 7
-15 16 -28 21 -47 18 -58 61 -60 225 l-1 150 -33 50 c-31 49 -32 51 -26 141 7
105 5 109 -70 123 -26 5 -53 16 -59 25 -16 22 -56 35 -80 26z m172 -1712 c-3
-8 -6 -5 -6 6 -1 11 2 17 5 13 3 -3 4 -12 1 -19z"/>
<path d="M8822 4500 c0 -14 3 -45 7 -70 6 -34 9 -37 9 -15 1 17 -3 48 -7 70
-6 25 -9 31 -9 15z"/>
<path d="M7525 4490 c-14 -16 -18 -35 -17 -79 1 -33 -4 -77 -12 -98 -21 -59
-30 -140 -16 -148 6 -4 16 -19 21 -33 l11 -27 18 23 c20 24 36 129 28 184 -3
18 1 61 8 95 19 93 1 130 -41 83z"/>
<path d="M8888 4439 c-6 -17 5 -126 15 -135 3 -4 13 -4 22 -1 21 9 20 80 -1
98 -9 7 -19 22 -23 33 -6 14 -9 16 -13 5z"/>
<path d="M10059 4445 c-1 -5 -2 -66 -4 -135 -1 -72 -9 -155 -18 -195 -9 -39
-18 -121 -21 -183 -3 -62 -8 -117 -11 -122 -7 -11 -52 7 -82 33 -32 28 -53 18
-70 -33 -8 -25 -19 -49 -24 -54 -5 -6 -9 -27 -9 -47 0 -21 -4 -41 -10 -44 -5
-3 -10 -26 -10 -49 0 -59 -21 -77 -62 -53 l-31 18 6 -56 c3 -30 1 -57 -4 -60
-5 -4 -9 -21 -9 -39 0 -42 -58 -96 -104 -96 -39 0 -70 72 -47 108 13 22 92 41
119 29 26 -12 40 -3 25 15 -6 7 -13 29 -16 48 -3 19 -10 53 -16 75 -6 22 -16
117 -21 210 -9 168 -28 271 -52 287 -21 13 -55 9 -73 -8 -26 -26 -42 -66 -53
-134 -13 -72 -43 -110 -88 -110 -26 0 -68 54 -59 78 2 6 -3 12 -11 12 -12 0
-15 9 -13 38 2 20 8 40 13 44 11 8 -8 80 -31 115 -9 13 -30 31 -46 40 -28 14
-32 14 -44 -3 -17 -23 -17 -41 2 -48 16 -6 21 -46 6 -46 -5 0 -11 -17 -14 -38
-5 -28 -20 -50 -60 -89 -61 -59 -80 -106 -79 -193 1 -30 -6 -82 -14 -114 -18
-68 -12 -125 19 -175 13 -22 23 -61 28 -115 10 -112 48 -225 93 -277 36 -42
36 -43 37 -138 1 -53 1 -99 0 -103 0 -5 4 -8 11 -8 22 0 108 -99 108 -124 0
-27 -23 -50 -64 -66 l-29 -11 7 -107 c13 -192 23 -276 40 -352 8 -38 59 -133
114 -215 75 -113 117 -161 126 -146 11 17 9 102 -2 146 -6 22 -13 63 -17 90
-3 28 -22 106 -40 175 -19 69 -41 181 -50 249 -9 68 -17 127 -19 130 -6 10
-52 188 -71 276 -10 44 -24 92 -31 107 -16 31 -18 58 -5 58 27 0 146 -183 190
-292 13 -32 28 -58 33 -58 5 0 7 4 3 9 -3 5 0 13 5 16 6 4 15 17 21 28 5 12
13 29 19 37 14 23 38 79 58 140 11 30 23 53 28 50 16 -9 5 -101 -17 -139 -31
-53 -61 -233 -40 -246 14 -8 3 -59 -16 -75 -17 -14 -18 -24 -11 -100 6 -72 7
-176 5 -540 0 -25 3 -103 8 -174 6 -97 5 -127 -3 -122 -8 4 -12 38 -12 88 0
45 -3 78 -6 75 -4 -4 -6 -86 -6 -184 1 -98 -3 -196 -8 -218 -6 -25 -6 -41 0
-43 13 -5 13 -102 1 -102 -5 0 -8 17 -6 38 2 32 2 33 -4 7 -9 -42 -22 -16 -19
37 1 24 -3 43 -9 45 -7 3 -9 11 -6 19 3 8 0 14 -5 14 -12 0 -18 -17 -27 -75
-30 -206 -36 -235 -46 -235 -15 0 -10 58 16 195 24 123 78 497 73 500 -2 0
-14 6 -28 13 -39 19 -130 74 -190 114 -30 20 -89 46 -130 58 -41 12 -79 24
-83 27 -21 13 21 32 81 38 79 8 112 26 112 59 0 41 -49 254 -80 348 -17 50
-30 96 -30 103 0 7 -9 24 -20 38 -15 19 -20 39 -19 84 0 35 -12 107 -31 183
-18 69 -36 157 -40 195 -8 64 -30 175 -46 233 -7 25 -39 30 -48 7 -12 -32 -28
-190 -22 -225 3 -20 13 -50 21 -66 19 -37 19 -58 0 -74 -8 -7 -15 -9 -15 -4 0
5 -5 2 -10 -6 -14 -21 -12 -108 2 -112 11 -4 40 -197 31 -208 -2 -2 -8 2 -13
9 -14 23 -37 5 -44 -36 -14 -82 -18 -248 -6 -293 6 -25 15 -66 19 -92 7 -44
39 -87 65 -88 14 0 66 -52 66 -65 0 -19 -35 -45 -59 -45 -35 0 -79 28 -96 60
-9 17 -13 34 -10 39 2 5 -1 21 -9 36 -8 15 -17 66 -21 114 -3 47 -10 107 -15
133 -5 26 -12 89 -15 140 -7 104 -28 227 -52 296 -8 26 -16 69 -18 97 -4 74
-23 234 -29 243 -9 14 -27 182 -32 285 -2 54 -6 102 -9 106 -2 5 -11 82 -20
173 -14 152 -37 263 -47 228 -3 -8 -14 -44 -26 -80 -12 -36 -24 -106 -28 -157
-4 -57 -11 -90 -17 -86 -5 3 -7 0 -5 -8 3 -8 1 -25 -4 -39 -5 -14 -14 -99 -19
-190 -9 -148 -8 -174 10 -250 10 -47 20 -112 20 -144 1 -32 5 -64 8 -69 4 -6
10 -56 14 -112 4 -55 16 -136 27 -180 21 -81 30 -137 57 -348 10 -82 23 -135
41 -173 14 -30 27 -61 28 -68 1 -8 8 -21 15 -30 7 -9 10 -16 5 -16 -14 0 -30
14 -38 30 -3 8 -4 0 -1 -19 3 -18 5 -42 5 -52 0 -9 6 -24 13 -31 35 -35 43
-130 13 -150 -8 -6 -6 -11 4 -18 11 -7 16 -5 18 5 4 19 22 20 22 1 0 -8 3 -23
6 -33 5 -15 4 -16 -5 -3 -10 13 -12 13 -21 0 -6 -10 -10 -11 -10 -2 0 6 -5 12
-11 12 -7 0 -9 -48 -6 -150 3 -83 1 -153 -4 -156 -5 -3 -9 2 -9 10 0 9 -3 15
-7 14 -5 -2 -8 2 -8 7 0 6 3 9 7 8 4 -2 7 42 5 97 -1 54 -3 95 -5 90 -2 -6 -9
-10 -15 -10 -7 0 -12 17 -12 42 0 29 -4 42 -12 40 -15 -2 -17 34 -3 43 6 3 10
12 10 18 0 7 -4 6 -10 -3 -8 -13 -11 -13 -22 -1 -10 11 -10 14 0 18 15 6 16
49 0 59 -8 5 -9 0 -6 -14 4 -12 2 -25 -4 -28 -5 -3 -6 -20 -2 -37 4 -18 6 -45
6 -62 0 -16 4 -35 10 -42 6 -7 8 -26 6 -42 -2 -17 -1 -28 3 -26 4 3 10 -2 13
-11 9 -23 7 -34 -4 -34 -5 0 -10 7 -10 15 0 8 -4 15 -10 15 -5 0 -10 10 -10
23 -1 12 -13 70 -29 128 -22 87 -30 104 -39 90 -9 -14 -11 -12 -11 12 -1 19 3
26 10 21 7 -4 10 -1 7 7 -3 8 -11 13 -17 11 -11 -2 -26 28 -35 71 -3 12 -9 36
-15 52 l-9 30 -1 -36 c-1 -19 3 -39 8 -45 5 -5 14 -31 20 -59 5 -27 17 -86 26
-130 9 -44 21 -94 26 -111 12 -39 12 -74 0 -74 -6 0 -7 -15 -4 -33 3 -23 0
-37 -11 -46 -19 -16 -21 -32 -3 -29 7 2 13 -11 15 -32 l3 -35 -20 22 c-12 12
-21 34 -21 48 0 26 -14 33 -26 13 -5 -8 -10 -6 -15 8 -4 11 -6 -9 -5 -46 2
-36 7 -74 11 -85 5 -14 5 -17 -2 -10 -6 6 -20 39 -32 74 -16 46 -19 67 -11 76
8 10 7 16 -3 22 -7 4 -17 16 -20 26 -4 10 -11 15 -17 12 -13 -8 -30 37 -23 63
2 11 0 29 -6 40 -8 15 -7 23 5 33 13 10 17 10 25 -2 5 -8 8 -24 6 -36 -2 -12
-1 -20 3 -18 8 5 19 -22 27 -65 2 -14 11 -32 19 -40 12 -12 14 -12 14 5 0 16
2 17 10 5 8 -12 10 -12 15 2 4 9 2 25 -3 35 -5 10 -7 24 -5 30 4 11 -33 83
-42 83 -2 0 3 -24 11 -53 7 -28 14 -59 13 -67 0 -20 -24 33 -39 90 -7 25 -18
60 -24 79 -8 27 -8 35 2 38 14 5 16 52 2 73 -7 11 -10 5 -10 -24 0 -33 -2 -37
-15 -26 -22 18 -31 4 -12 -18 19 -21 22 -49 7 -72 -15 -24 -23 -4 -28 75 -3
52 -1 75 7 75 15 0 14 25 -3 63 -8 18 -22 73 -30 122 -33 183 -91 417 -137
550 -6 17 -17 54 -25 83 -23 88 -119 290 -146 310 -10 7 -18 20 -18 27 0 8
-33 70 -72 137 -40 68 -82 141 -93 162 -20 40 -97 126 -113 126 -5 0 -30 -46
-57 -101 -43 -93 -48 -111 -57 -213 -5 -61 -14 -119 -19 -128 -6 -11 -6 -18 0
-18 6 0 7 -46 4 -113 -6 -111 -5 -113 26 -174 42 -84 41 -110 -3 -119 -37 -6
-36 -6 -52 -96 -3 -21 -10 -35 -15 -32 -5 3 -9 0 -9 -6 0 -6 -4 -8 -10 -5 -5
3 -10 -1 -10 -9 0 -9 -5 -16 -11 -16 -7 0 -9 9 -5 23 3 12 2 40 -1 62 l-7 40
-9 -35 c-4 -19 -11 -47 -14 -62 -6 -33 -11 -34 -29 -10 -15 19 -13 25 -18 -73
-2 -33 -6 -71 -9 -85 -4 -14 -9 -54 -12 -89 -8 -89 -28 -124 -27 -46 l1 30 -9
-30 c-5 -16 -14 -59 -20 -95 -6 -36 -20 -109 -30 -162 -11 -54 -27 -154 -36
-223 -9 -68 -19 -123 -23 -121 -3 2 -7 -12 -9 -31 -1 -19 -7 -43 -12 -54 -8
-13 -7 -19 0 -19 6 0 4 -7 -4 -16 -9 -9 -16 -33 -16 -57 -1 -47 -33 -150 -49
-155 -6 -2 -13 9 -16 25 -3 15 -10 42 -15 59 -8 23 -6 40 5 68 10 23 14 53 10
79 -2 23 -8 69 -11 102 -3 33 -10 67 -15 75 -24 43 -25 43 -67 15 -22 -14 -42
-35 -45 -47 -9 -34 -27 -9 -27 39 0 34 3 44 14 40 21 -8 117 160 114 198 -3
25 -8 31 -31 33 -23 3 -37 -5 -68 -38 -25 -26 -41 -36 -44 -28 -11 36 -25 137
-35 258 -6 74 -15 155 -21 181 -12 55 -36 266 -50 449 -23 305 -44 496 -59
536 -6 14 -10 40 -11 57 -1 28 -2 29 -7 9 -4 -13 -11 -22 -17 -20 -6 2 -11
-22 -13 -54 -2 -36 1 -58 8 -58 7 0 8 20 4 58 -5 39 -3 54 4 47 9 -9 35 -157
34 -197 -1 -10 3 -18 9 -18 13 0 11 -137 -2 -146 -6 -3 -15 -1 -19 6 -16 26
-26 0 -23 -60 2 -38 -1 -59 -7 -55 -6 3 -10 1 -10 -4 0 -6 4 -11 10 -11 5 0 8
-27 6 -62 -2 -35 0 -68 5 -74 11 -14 17 -130 8 -146 -4 -7 -5 -17 -1 -23 24
-37 44 -154 25 -142 -5 3 -8 -51 -8 -119 0 -68 3 -124 8 -124 4 0 7 -8 7 -17
0 -16 2 -16 10 -3 8 11 10 0 9 -40 -1 -30 -1 -59 1 -65 5 -20 0 -36 -10 -30
-6 4 -10 -9 -10 -32 0 -63 12 -143 21 -138 4 3 10 1 13 -4 8 -12 15 -191 16
-361 0 -135 8 -219 19 -201 5 7 12 2 21 -14 10 -20 11 -28 2 -37 -9 -9 -12 -9
-12 1 0 7 -5 9 -11 5 -6 -3 -10 -27 -9 -53 2 -25 2 -63 1 -85 -1 -33 -3 -37
-16 -26 -23 19 -27 8 -30 -70 -1 -39 -5 -73 -8 -76 -8 -8 -27 5 -27 17 0 6 3
8 8 6 4 -3 8 19 10 48 2 39 -2 57 -14 69 -9 9 -14 20 -11 23 4 3 1 15 -5 27
-17 32 -18 694 -1 700 7 3 13 10 13 16 0 6 -4 9 -9 6 -16 -10 -19 17 -20 170
-1 82 -4 163 -7 180 -3 19 -1 35 5 39 6 3 8 12 4 18 -4 6 -8 52 -9 102 0 49
-4 110 -9 134 -5 31 -4 42 4 37 15 -10 14 6 -3 38 l-13 26 -5 -42 c-2 -24 -1
-77 2 -118 9 -103 2 -498 -9 -535 -9 -30 -9 -30 -10 10 -2 86 -26 115 -37 45
-6 -36 -24 -67 -24 -41 0 18 -27 12 -35 -7 -6 -15 -8 -14 -17 8 -14 34 -17 89
-6 96 5 3 6 14 3 24 -3 10 -1 21 5 25 5 3 10 24 10 45 0 27 6 42 18 49 11 7
13 10 3 11 -11 0 -12 18 -8 90 6 86 5 90 -15 90 -19 0 -20 4 -15 59 2 32 2 64
-2 70 -7 10 -12 -57 -39 -464 -10 -150 -9 -601 1 -611 4 -5 13 -2 18 6 9 12 9
11 4 -5 -9 -27 -9 -25 0 -64 8 -33 8 -33 20 -10 18 32 55 33 55 2 0 -14 -4
-21 -10 -18 -5 3 -10 -3 -10 -14 0 -11 -5 -32 -11 -48 -8 -22 -12 -25 -20 -13
-8 11 -9 9 -4 -10 37 -135 61 -280 47 -280 -6 0 -12 9 -15 21 -10 38 -25 10
-20 -38 4 -42 2 -45 -8 -28 -15 24 -23 82 -13 104 7 16 8 40 5 93 -1 31 -38
49 -52 27 -7 -11 -9 -9 -9 6 0 29 25 96 33 88 4 -3 7 -2 7 3 0 6 -6 16 -12 22
-12 12 -19 58 -19 130 0 17 -4 32 -9 32 -4 0 -11 19 -15 42 -9 54 -24 84 -25
49 0 -17 -4 -22 -16 -17 -12 5 -15 2 -10 -10 3 -9 9 -34 12 -57 7 -45 39 -149
56 -180 9 -17 3 -75 -7 -65 -3 2 -16 44 -30 93 -15 49 -30 94 -35 100 -4 5
-18 40 -30 77 -12 37 -30 78 -41 92 -10 13 -19 36 -19 50 0 15 -7 42 -14 61
-18 42 -40 48 -30 9 5 -19 4 -25 -5 -20 -14 9 -15 56 0 56 6 0 8 7 5 17 -4 9
-12 49 -18 90 -9 61 -14 73 -29 73 -13 0 -19 7 -19 24 0 13 -3 32 -7 42 -4 12
-3 15 5 10 7 -4 12 -1 12 8 0 8 -5 18 -11 21 -6 4 -8 13 -5 21 3 8 0 14 -5 14
-7 0 -9 11 -7 25 3 14 1 25 -3 25 -5 0 -9 9 -9 21 0 11 -4 18 -9 15 -5 -3 -8
0 -8 7 3 39 -17 127 -29 127 -10 0 -12 -14 -9 -57 2 -32 4 -72 4 -90 1 -17 8
-38 16 -46 8 -8 12 -17 9 -20 -4 -3 1 -28 11 -56 10 -31 14 -68 12 -100 -3
-28 -1 -49 3 -46 4 3 14 -2 21 -11 10 -12 10 -25 0 -65 -15 -57 -4 -83 24 -59
12 10 15 10 15 -3 0 -8 -7 -20 -15 -27 -8 -7 -15 -20 -15 -29 0 -13 2 -13 9
-2 6 9 11 10 15 2 4 -6 2 -11 -3 -11 -6 0 -12 -15 -12 -32 -2 -28 -2 -29 -6
-8 -7 40 -23 48 -23 12 0 -42 -17 -41 -28 2 -6 19 -31 66 -56 105 -25 40 -46
76 -46 81 0 6 -9 10 -19 10 -15 0 -26 19 -51 88 -41 116 -72 182 -83 182 -5 0
-6 -14 -3 -30 3 -16 9 -43 12 -60 13 -66 -7 -24 -41 88 -20 64 -44 140 -54
167 -10 28 -26 80 -35 118 -14 56 -14 71 -4 90 13 21 13 21 15 -13 6 -85 48
-219 73 -235 5 -3 14 3 19 14 21 39 100 348 110 431 6 47 17 125 25 175 8 49
13 91 12 92 -1 2 -19 -32 -39 -75 -38 -79 -40 -101 -16 -188 11 -36 -35 -75
-91 -78 -18 -1 -38 -9 -45 -19 -7 -9 -14 -17 -16 -17 -2 0 -5 25 -6 54 -1 42
1 54 11 50 18 -7 56 42 56 72 0 36 -26 56 -56 42 -19 -9 -27 -9 -32 0 -10 15
-24 5 -66 -48 -41 -51 -46 -75 -16 -65 24 8 24 5 5 -41 -25 -61 -110 -160
-140 -163 -5 0 -10 -9 -11 -20 -1 -10 -11 -33 -23 -49 -21 -30 -21 -31 -1 -29
11 1 20 5 20 10 0 11 113 137 123 137 4 0 5 -17 1 -37 -5 -34 -67 -144 -143
-257 -14 -21 -37 -59 -49 -85 -13 -25 -35 -58 -48 -74 -13 -16 -24 -38 -24
-49 0 -20 1 -20 18 -5 10 10 21 17 25 17 7 0 -39 -80 -86 -150 -17 -25 -48
-79 -70 -120 -22 -41 -42 -77 -46 -80 -4 -3 -15 -23 -26 -45 -10 -22 -20 -34
-23 -27 -2 8 1 19 7 25 6 6 11 23 11 37 0 16 10 35 25 48 14 12 25 30 25 40 0
11 11 32 25 48 14 16 25 39 25 52 l0 23 -30 -23 c-33 -24 -39 -33 -15 -24 28
10 15 -10 -50 -82 -36 -40 -65 -77 -65 -83 0 -10 -14 -29 -60 -86 -6 -7 -10
-29 -10 -49 0 -41 -46 -124 -69 -124 -7 0 -11 -6 -8 -13 6 -17 -1 -28 -28 -43
-11 -6 -22 -19 -23 -29 -3 -11 0 -15 7 -11 18 11 13 -9 -9 -34 -11 -13 -20
-27 -20 -32 0 -4 -7 -8 -15 -8 -14 0 -20 -13 -16 -34 4 -16 -21 -56 -31 -50
-12 8 -48 -35 -48 -56 0 -10 -7 -23 -15 -30 -8 -7 -15 -18 -15 -25 0 -7 -11
-15 -25 -17 -33 -7 -32 5 10 82 39 73 41 85 20 106 -23 24 -2 58 26 43 12 -6
23 -9 25 -7 9 10 147 258 174 313 33 69 45 170 20 170 -8 0 -24 -16 -36 -35
-13 -19 -32 -46 -44 -60 l-21 -25 15 38 c9 21 25 50 36 64 11 14 20 31 20 38
0 7 18 34 39 60 38 47 57 85 41 85 -13 0 -73 -73 -103 -124 -15 -27 -30 -46
-33 -43 -8 8 36 94 61 121 12 13 19 28 17 34 -4 14 23 66 47 89 10 10 21 29
23 43 3 14 9 34 13 45 5 12 -4 6 -23 -15 -37 -42 -39 -38 -11 26 18 39 20 59
16 111 -5 47 -2 75 9 104 20 49 31 49 40 2 8 -45 21 -73 34 -73 17 0 11 52
-15 130 -14 41 -25 80 -25 86 0 7 21 23 46 36 25 12 54 33 64 46 10 12 21 19
24 14 2 -4 5 -48 5 -96 0 -49 2 -91 5 -93 9 -9 36 56 36 85 0 50 12 92 26 92
8 0 14 4 14 10 0 5 -7 7 -17 3 -13 -5 -15 -1 -10 24 16 82 19 135 8 142 -6 4
-9 15 -5 25 5 14 9 15 16 4 5 -8 8 5 8 37 -1 28 4 86 10 130 7 44 13 92 14
106 1 14 6 30 9 36 4 7 3 14 -3 18 -6 4 -8 10 -6 13 12 20 45 302 36 302 -14
0 -29 -73 -20 -91 6 -11 6 -20 1 -23 -9 -6 -19 -53 -26 -118 -2 -18 -10 -69
-19 -113 -9 -44 -16 -94 -16 -112 0 -17 -5 -35 -11 -38 -7 -5 -9 8 -4 41 3 27
8 69 11 94 3 25 7 57 10 73 7 36 -10 35 -26 -3 -7 -16 -17 -28 -23 -27 -6 1
-13 -11 -17 -28 -4 -16 -16 -49 -28 -72 -12 -23 -22 -57 -22 -75 0 -19 -11
-49 -25 -70 -14 -21 -25 -51 -25 -69 0 -18 -7 -40 -16 -50 -19 -21 -36 -80
-38 -129 0 -20 -9 -48 -19 -63 -11 -17 -16 -36 -11 -49 3 -12 -2 -39 -14 -67
-11 -25 -32 -86 -48 -135 -15 -48 -34 -90 -41 -93 -7 -3 -13 -14 -13 -24 0
-11 -6 -29 -12 -40 -10 -17 -10 -23 0 -26 22 -8 13 -24 -10 -18 -31 8 -54 -26
-36 -54 9 -15 8 -22 -5 -36 -19 -19 -21 -31 -7 -40 15 -9 12 -58 -5 -81 -8
-10 -15 -31 -15 -45 0 -15 -6 -31 -13 -37 -11 -9 -12 0 -9 49 4 48 1 62 -12
72 -14 11 -16 22 -10 67 7 55 6 67 -8 63 -5 -2 -8 8 -8 21 0 13 -8 34 -19 47
-15 19 -22 21 -33 12 -26 -22 -106 -187 -123 -253 -9 -36 -23 -75 -31 -87 -8
-12 -23 -44 -33 -70 -32 -81 -83 -187 -97 -200 -7 -7 -18 -30 -25 -50 -6 -21
-20 -50 -30 -65 -11 -14 -19 -38 -19 -52 0 -18 -4 -24 -15 -20 -10 4 -15 0
-15 -14 0 -11 -3 -22 -8 -24 -11 -4 -92 -200 -103 -247 -5 -22 -29 -81 -53
-133 -66 -139 -153 -371 -211 -565 -14 -45 -28 -89 -31 -97 -6 -14 26 -16 310
-16 174 0 316 4 316 8 0 5 -9 17 -20 27 -11 10 -20 14 -20 9 0 -5 -11 -9 -25
-9 -31 0 -32 19 -2 40 21 15 23 14 37 -6 8 -12 26 -32 39 -45 l24 -24 778 0
778 0 11 43 c34 128 63 226 85 284 26 68 90 171 131 211 23 22 58 29 67 14 6
-9 -28 -52 -41 -52 -20 0 -72 -72 -111 -153 -43 -89 -76 -199 -87 -289 l-6
-58 493 0 494 0 55 66 c30 37 70 87 88 113 18 25 43 55 54 66 l20 20 -18 -30
c-27 -44 -56 -85 -85 -125 -14 -19 -36 -52 -48 -72 l-23 -38 820 0 819 1 23
42 c32 57 201 312 239 360 17 22 35 56 41 78 6 21 15 39 20 39 4 0 5 -10 1
-23 -38 -121 -57 -171 -86 -222 -35 -61 -62 -114 -97 -195 -11 -25 -25 -53
-30 -62 -8 -17 21 -18 552 -18 l560 0 0 615 c0 338 -2 615 -5 615 -3 0 -113
-109 -245 -242 -132 -133 -242 -239 -245 -236 -3 3 1 13 10 21 25 25 17 30
-14 10 -17 -10 -40 -33 -53 -52 -13 -19 -38 -45 -55 -59 l-33 -25 0 25 c0 21
85 148 110 163 6 3 10 11 10 17 0 16 -51 -20 -87 -61 -18 -20 -32 -30 -33 -22
0 7 18 31 40 53 22 22 40 48 40 57 -1 14 -2 14 -14 -1 -7 -10 -16 -18 -20 -18
-3 0 18 30 49 67 30 37 55 72 55 77 1 16 36 56 49 56 6 0 11 4 11 10 0 5 15
27 34 47 18 21 37 49 41 63 4 14 24 44 43 68 31 38 32 42 14 42 -12 0 -28 -10
-36 -22 -13 -18 -16 -19 -16 -6 0 9 5 20 10 23 6 4 8 10 5 15 -3 4 -2 15 1 24
5 12 10 14 19 6 11 -9 12 -7 8 9 -3 12 -8 21 -12 20 -11 -1 -81 -98 -81 -113
0 -7 -7 -19 -15 -26 -8 -7 -13 -16 -10 -20 3 -5 1 -19 -5 -32 -9 -22 -9 -22
-7 6 1 17 -4 31 -12 34 -9 3 -11 0 -6 -8 5 -8 4 -11 -1 -7 -16 9 -27 -3 -102
-113 -66 -96 -134 -185 -116 -151 4 8 57 85 117 170 130 186 197 297 197 329
0 12 -6 38 -14 57 -13 31 -13 36 2 44 13 8 19 47 33 233 17 214 31 292 48 272
4 -5 16 -29 26 -54 11 -25 32 -60 47 -78 15 -18 28 -39 28 -47 0 -21 -31 -47
-51 -42 -31 8 -41 -15 -25 -59 14 -40 11 -100 -6 -121 -16 -20 -23 -123 -9
-123 25 0 101 111 105 155 4 35 24 55 56 55 21 0 39 13 74 54 41 49 46 59 46
104 l0 50 -47 20 c-27 11 -63 32 -82 46 -26 19 -37 22 -50 14 -22 -13 -77 13
-86 41 -3 11 -17 26 -30 35 -28 18 -91 113 -101 150 -7 30 28 70 55 61 16 -5
19 5 24 97 4 57 16 153 27 213 11 61 25 153 31 205 6 62 18 112 34 145 24 51
45 106 70 181 7 23 24 61 36 85 18 34 23 62 25 122 1 69 4 81 30 115 62 78 77
112 50 112 -22 0 -66 59 -66 88 0 31 24 64 58 81 21 11 22 18 22 123 0 159
-23 230 -104 321 -9 9 -16 25 -16 35 0 10 -5 23 -11 29 -5 5 -14 46 -18 90 -7
69 -27 138 -32 108z m-262 -921 c-3 -3 -12 -4 -19 -1 -8 3 -5 6 6 6 11 1 17
-2 13 -5z m3 -49 c0 -8 -7 -15 -15 -15 -8 0 -15 7 -15 15 0 8 7 15 15 15 8 0
15 -7 15 -15z m34 -163 c23 -11 58 1 93 32 19 16 27 17 48 8 34 -16 42 -54 18
-94 -20 -35 -55 -47 -78 -28 -15 13 -35 6 -35 -12 0 -23 -34 -48 -64 -48 -24
0 -36 7 -49 29 -19 33 -23 121 -6 153 11 20 11 20 33 -5 11 -13 30 -29 40 -35z
m-1737 -544 c-3 -8 -6 -5 -6 6 -1 11 2 17 5 13 3 -3 4 -12 1 -19z m10 -60 c-3
-7 -5 -2 -5 12 0 14 2 19 5 13 2 -7 2 -19 0 -25z m0 -50 c-3 -7 -5 -2 -5 12 0
14 2 19 5 13 2 -7 2 -19 0 -25z m-1270 -30 c-3 -7 -5 -2 -5 12 0 14 2 19 5 13
2 -7 2 -19 0 -25z m-1469 10 c16 -16 15 -90 -1 -112 -18 -25 -52 -17 -51 12 2
32 25 112 33 112 4 0 12 -5 19 -12z m49 -25 c-3 -10 -5 -4 -5 12 0 17 2 24 5
18 2 -7 2 -21 0 -30z m2683 -428 c-10 -218 -19 -275 -35 -225 -5 15 -13 20
-26 17 -10 -3 -21 -1 -25 4 -8 14 9 34 31 34 28 0 43 65 44 191 1 55 4 177 9
270 l7 169 3 -115 c2 -63 -2 -218 -8 -345z m-2693 348 c-3 -10 -5 -2 -5 17 0
19 2 27 5 18 2 -10 2 -26 0 -35z m1440 -35 c-3 -8 -6 -5 -6 6 -1 11 2 17 5 13
3 -3 4 -12 1 -19z m-996 -79 c-5 -13 -10 -19 -10 -12 -1 15 10 45 15 40 3 -2
0 -15 -5 -28z m1709 -84 c0 -8 -4 -15 -10 -15 -5 0 -10 7 -10 15 0 8 5 15 10
15 6 0 10 -7 10 -15z m-80 -24 c0 -11 -4 -23 -10 -26 -6 -4 -10 5 -10 19 0 14
5 26 10 26 6 0 10 -9 10 -19z m-550 -147 c0 -30 -16 -31 -24 -1 -11 40 -8 51
9 37 8 -7 15 -23 15 -36z m-1145 -146 c-6 -198 -15 -362 -21 -367 -3 -4 -10
388 -7 462 1 23 18 57 29 57 2 0 1 -69 -1 -152z m1765 110 c0 -21 -3 -29 -10
-22 -5 5 -7 19 -4 32 9 31 14 27 14 -10z m-1925 -394 c-55 -236 -57 -245 -40
-264 18 -19 17 -20 -14 -20 -39 0 -46 16 -26 63 8 20 15 49 15 65 0 16 7 49
15 72 22 61 13 59 -18 -4 -15 -30 -32 -58 -37 -61 -6 -3 -11 -16 -11 -28 -1
-16 -3 -17 -6 -5 -2 9 0 26 6 36 8 15 7 23 -4 32 -12 10 -15 10 -16 -1 0 -8
-5 -2 -10 13 -9 22 -5 36 16 75 15 26 33 55 41 64 8 8 14 19 14 24 0 17 124
208 128 196 2 -7 -22 -123 -53 -257z m187 191 c-12 -22 -27 -2 -18 22 5 12 10
13 17 6 7 -7 8 -17 1 -28z m1743 -4 c3 -11 14 -23 25 -26 10 -3 21 -18 25 -33
6 -23 8 -25 16 -9 9 16 49 24 61 11 3 -3 1 -20 -5 -39 -8 -27 -7 -37 7 -50 12
-12 15 -26 11 -49 -4 -17 -7 -52 -8 -78 -2 -44 1 -51 50 -100 28 -29 55 -66
59 -82 11 -45 65 -126 84 -126 36 0 67 53 99 170 17 63 38 126 45 140 7 14 17
48 20 75 8 56 27 127 33 121 2 -2 -1 -25 -7 -52 -6 -26 -15 -111 -20 -188 -8
-142 -13 -181 -31 -246 -5 -19 -9 -50 -9 -67 0 -18 -4 -33 -8 -33 -4 0 -8 -8
-9 -17 -1 -10 -9 -43 -18 -73 -9 -30 -25 -86 -35 -125 -21 -85 -94 -329 -109
-367 -6 -15 -8 -35 -4 -45 5 -12 3 -14 -7 -8 -9 5 -11 4 -6 -3 9 -15 89 42
145 103 23 25 45 45 49 45 4 0 18 10 32 21 14 11 69 49 123 84 82 55 97 69 98
92 l1 28 7 -25 7 -25 14 22 c7 11 19 19 26 16 8 -3 35 5 61 17 47 21 48 22 46
63 -3 40 0 39 18 -11 8 -22 10 -22 39 -7 40 21 196 47 232 40 24 -6 28 -3 29
17 l2 23 4 -24 c3 -14 16 -28 34 -34 38 -15 37 -27 -1 -27 -16 0 -30 -4 -30
-10 0 -16 -27 -12 -45 6 -13 13 -29 16 -79 11 -121 -11 -270 -78 -457 -203
-123 -82 -128 -87 -122 -115 4 -21 2 -29 -8 -29 -12 0 -12 -2 0 -9 7 -5 10
-14 7 -20 -11 -17 -64 -13 -74 6 -8 14 -32 -5 -149 -123 -77 -76 -164 -166
-193 -199 -64 -73 -38 -28 43 75 59 74 85 121 94 169 2 14 6 28 9 33 11 17 42
343 43 451 l2 109 -24 -6 c-14 -3 -43 0 -65 8 -22 8 -71 17 -110 19 -68 5 -70
4 -76 -19 -4 -13 -11 -24 -17 -24 -15 0 -6 190 11 215 6 11 30 33 52 48 43 30
44 50 7 90 -10 11 -26 36 -35 56 -9 20 -21 39 -25 42 -11 7 -32 116 -25 128 3
4 6 49 7 99 2 67 6 92 15 92 7 0 15 -9 19 -19z m-878 -213 c-3 -8 -6 -5 -6 6
-1 11 2 17 5 13 3 -3 4 -12 1 -19z m-47 -8 c0 -5 -2 -10 -4 -10 -3 0 -8 5 -11
10 -3 6 -1 10 4 10 6 0 11 -4 11 -10z m114 -69 c-3 -33 -11 -58 -16 -55 -5 3
-6 14 -3 24 3 10 8 36 10 57 2 21 4 40 4 42 1 2 4 2 7 -1 3 -3 2 -33 -2 -67z
m2950 45 c39 -16 106 -80 106 -101 0 -8 -8 -15 -19 -15 -22 0 -188 76 -196 91
-23 36 44 52 109 25z m-4753 -54 c-7 -15 -11 -41 -11 -57 1 -53 -12 -106 -26
-112 -19 -7 -18 -53 1 -53 8 0 15 -8 15 -17 0 -22 -16 -48 -29 -48 -6 0 -17
-9 -25 -20 -15 -20 -15 -20 -16 3 0 13 4 32 10 42 7 14 6 23 -7 36 -16 15 -16
17 1 30 21 15 26 48 35 222 1 8 9 10 26 6 17 -4 25 -2 26 7 0 11 2 11 6 1 3
-7 0 -25 -6 -40z m102 8 c-5 -19 -23 -29 -23 -12 0 7 20 32 26 32 1 0 0 -9 -3
-20z m1284 -32 c-3 -8 -6 -5 -6 6 -1 11 2 17 5 13 3 -3 4 -12 1 -19z m-36 -31
c-8 -8 -11 -3 -11 19 1 25 2 27 11 11 8 -14 8 -22 0 -30z m386 -9 c-2 -13 -4
-5 -4 17 -1 22 1 32 4 23 2 -10 2 -28 0 -40z m-920 -70 c-2 -18 -4 -4 -4 32 0
36 2 50 4 33 2 -18 2 -48 0 -65z m140 50 c-3 -8 -6 -5 -6 6 -1 11 2 17 5 13 3
-3 4 -12 1 -19z m2250 -25 c-3 -10 -5 -4 -5 12 0 17 2 24 5 18 2 -7 2 -21 0
-30z m-3174 -8 c-9 -20 -21 -31 -25 -27 -5 5 1 21 14 35 30 35 31 34 11 -8z
m70 10 c-3 -9 -8 -14 -10 -11 -3 3 -2 9 2 15 9 16 15 13 8 -4z m-263 -89 c7
-42 17 -73 22 -70 6 4 7 -13 3 -42 -8 -57 -25 -117 -32 -111 -2 3 -6 56 -8
118 -1 63 -6 132 -10 153 -5 25 -4 37 2 33 6 -4 16 -40 23 -81z m1967 32 c-3
-7 -5 -2 -5 12 0 14 2 19 5 13 2 -7 2 -19 0 -25z m1676 0 c6 -21 2 -36 -7 -27
-10 11 -16 49 -8 49 5 0 12 -10 15 -22z m254 0 c-3 -8 -6 -5 -6 6 -1 11 2 17
5 13 3 -3 4 -12 1 -19z m-540 -10 c-3 -8 -6 -5 -6 6 -1 11 2 17 5 13 3 -3 4
-12 1 -19z m164 -70 c5 -239 4 -370 -2 -373 -10 -7 -15 64 -18 263 -2 125 1
182 8 182 7 0 12 -28 12 -72z m-2708 53 c11 -1 9 -31 -3 -32 -40 -5 -48 -16
-56 -67 -4 -26 -11 -56 -16 -67 -6 -15 -7 -12 -4 12 3 18 8 62 12 98 7 64 7
65 33 61 14 -2 29 -5 34 -5z m1077 -43 c-1 -38 -3 -48 -10 -37 -8 14 -3 89 6
89 2 0 4 -24 4 -52z m337 20 c-3 -7 -5 -2 -5 12 0 14 2 19 5 13 2 -7 2 -19 0
-25z m-1661 -10 c-2 -13 -6 -30 -9 -38 -3 -8 -11 -112 -17 -230 -6 -118 -15
-260 -20 -315 -6 -55 -12 -143 -15 -195 -7 -157 -17 -250 -25 -245 -5 3 -11
58 -14 122 -4 65 -8 141 -10 170 -2 28 0 55 4 60 10 10 0 203 -10 203 -25 0
-52 -121 -31 -135 15 -9 14 -60 -5 -150 -9 -42 -13 -83 -10 -92 4 -8 2 -43 -3
-77 -6 -33 -14 -92 -18 -131 -6 -56 -9 -25 -13 160 -3 127 -1 268 4 314 10 81
9 84 -13 102 -13 11 -38 19 -56 19 -18 0 -35 5 -37 12 -3 7 -12 4 -27 -11 -23
-23 -43 -22 -23 1 17 22 62 110 62 124 0 7 5 16 12 20 8 5 9 2 5 -10 -4 -9 -3
-15 2 -11 6 3 7 20 5 38 -5 27 0 38 35 73 22 23 53 68 69 100 17 33 42 69 56
81 14 13 26 27 26 33 0 5 4 10 9 10 10 0 -62 -146 -80 -164 -13 -15 -11 -26 6
-26 8 0 29 28 46 63 25 50 87 145 96 147 1 0 0 -10 -1 -22z m2811 -40 c-2 -13
-4 -3 -4 22 0 25 2 35 4 23 2 -13 2 -33 0 -45z m288 7 c7 -48 -9 -28 -20 25
-5 25 -4 32 4 25 6 -6 13 -28 16 -50z m-178 23 c-3 -8 -6 -5 -6 6 -1 11 2 17
5 13 3 -3 4 -12 1 -19z m-1517 2 c0 -5 -2 -10 -4 -10 -3 0 -8 5 -11 10 -3 6
-1 10 4 10 6 0 11 -4 11 -10z m201 -23 c-8 -8 -11 -7 -11 4 0 20 13 34 18 19
3 -7 -1 -17 -7 -23z m1956 -19 c-3 -7 -5 -2 -5 12 0 14 2 19 5 13 2 -7 2 -19
0 -25z m-2311 -45 c-11 -11 -19 6 -11 24 8 17 8 17 12 0 3 -10 2 -21 -1 -24z
m321 16 c-7 -25 2 -51 14 -43 5 3 9 16 9 29 0 13 5 27 10 30 6 4 10 -19 10
-62 0 -48 -3 -63 -10 -53 -8 12 -10 10 -11 -10 -1 -17 -3 -19 -6 -7 -2 9 -9
17 -14 17 -5 0 -9 5 -9 11 0 5 5 7 10 4 16 -10 12 11 -5 25 -17 14 -20 80 -4
80 7 0 9 -9 6 -21z m1349 -36 c-11 -11 -19 6 -11 24 8 17 8 17 12 0 3 -10 2
-21 -1 -24z m-3523 -127 c9 -120 2 -155 -24 -129 -12 12 -32 231 -22 245 2 5
12 8 21 6 14 -3 18 -23 25 -122z m1627 114 c0 -5 -5 -10 -11 -10 -5 0 -7 5 -4
10 3 6 8 10 11 10 2 0 4 -4 4 -10z m1896 -77 c-2 -27 -5 -52 -5 -56 -1 -5 -6
-5 -11 -2 -13 8 1 105 15 105 3 0 4 -21 1 -47z m461 -5 c-2 -13 -4 -5 -4 17
-1 22 1 32 4 23 2 -10 2 -28 0 -40z m-574 19 c3 -8 1 -20 -4 -28 -6 -10 -9 -7
-9 14 0 29 5 35 13 14z m-1819 -29 c7 -38 5 -42 -18 -25 -13 10 -16 20 -12 35
10 31 22 27 30 -10z m2926 -58 c22 -31 100 -203 100 -221 0 -26 -18 -1 -44 61
-15 39 -30 70 -32 70 -1 0 -18 -9 -36 -20 -31 -18 -36 -18 -57 -4 -12 9 -21
23 -19 32 2 13 13 16 51 13 26 -1 47 0 47 3 0 13 -34 36 -55 36 -29 0 -39 24
-19 45 23 22 40 18 64 -15z m-2093 -77 c-23 -23 -26 -3 -8 52 l16 50 3 -44 c2
-29 -2 -49 -11 -58z m2338 55 c5 4 5 2 1 -5 -8 -14 -36 -6 -36 9 0 7 5 6 13
-1 8 -6 18 -7 22 -3z m-1239 -46 c-12 -11 -18 7 -10 30 l8 23 4 -23 c2 -13 1
-26 -2 -30z m-704 -133 c1 -127 -1 -149 -20 -189 l-21 -45 0 75 c0 42 5 86 12
100 10 20 10 38 0 90 -7 36 -12 70 -13 77 0 13 30 46 36 40 2 -2 5 -69 6 -148z
m-1092 110 c0 -22 -13 -25 -29 -6 -8 10 -7 17 1 25 15 15 28 6 28 -19z m468
-13 c-2 -10 -7 -13 -17 -7 -8 6 -11 16 -7 27 8 21 30 4 24 -20z m2598 -64 c-4
-11 -19 -36 -34 -55 -24 -30 -29 -32 -41 -19 -12 12 -15 12 -24 -3 -7 -14 -6
-21 7 -30 9 -7 16 -18 16 -25 0 -13 31 18 63 64 10 14 22 26 27 26 5 0 -15
-37 -45 -82 -31 -46 -69 -110 -87 -143 -17 -33 -33 -54 -36 -47 -2 7 4 22 13
32 9 10 14 23 11 29 -3 5 -1 22 4 37 8 21 7 38 -7 76 -13 37 -14 51 -5 60 7 7
12 20 12 30 0 11 5 15 15 12 11 -5 15 1 15 20 0 14 5 26 10 26 6 0 10 -6 10
-12 0 -9 4 -8 10 2 8 13 11 11 16 -7 9 -31 20 -29 35 6 15 33 25 34 15 3z
m-3796 -27 c7 -9 10 -18 8 -21 -8 -7 -208 7 -208 15 0 4 19 8 42 10 23 1 44 4
47 7 12 11 100 3 111 -11z m4457 -7 c-3 -8 -6 -5 -6 6 -1 11 2 17 5 13 3 -3 4
-12 1 -19z m-5238 5 c0 -5 -4 -17 -9 -28 -8 -18 -9 -17 -9 8 -1 15 4 27 9 27
6 0 10 -3 9 -7z m29 -25 c-2 -6 -10 -14 -16 -16 -7 -2 -10 2 -6 12 7 18 28 22
22 4z m1316 -4 c39 -6 51 -12 67 -38 10 -17 19 -39 19 -49 0 -10 9 -35 20 -57
11 -22 20 -58 20 -80 l0 -42 -67 7 c-67 7 -121 32 -116 54 2 5 -15 20 -37 32
-36 20 -38 24 -22 35 9 7 33 14 52 14 19 0 41 4 49 9 18 12 -5 24 -76 41 -29
6 -53 15 -53 20 0 4 -3 22 -7 40 l-6 33 54 -6 c30 -3 76 -9 103 -13z m1133
-66 c-2 -13 -4 -5 -4 17 -1 22 1 32 4 23 2 -10 2 -28 0 -40z m-911 6 c24 -57
30 -98 13 -92 -8 3 -17 23 -20 47 -3 23 -11 47 -17 53 -15 15 -15 28 -1 28 5
0 17 -16 25 -36z m3664 -4 c0 -11 -7 -20 -15 -20 -18 0 -19 12 -3 28 16 16 18
15 18 -8z m-3330 -86 c0 -37 -27 -37 -33 -1 -2 18 -2 38 1 45 6 18 31 -16 32
-44z m37 -16 c-3 -8 -6 -5 -6 6 -1 11 2 17 5 13 3 -3 4 -12 1 -19z m-247 -13
c5 -14 6 -33 3 -42 -6 -15 -8 -14 -14 7 -15 55 -7 82 11 35z m3051 -26 c-35
-28 -51 -22 -17 7 15 14 31 22 35 19 3 -4 -5 -15 -18 -26z m461 -1 c-15 -15
-24 -6 -16 16 5 12 10 14 17 7 8 -8 8 -14 -1 -23z m-3370 -40 c-9 -9 -12 -7
-12 12 0 19 3 21 12 12 9 -9 9 -15 0 -24z m-532 -78 c0 -5 -9 -10 -19 -10 -11
0 -23 5 -26 10 -4 6 5 10 19 10 14 0 26 -4 26 -10z m-1003 -232 c-3 -8 -6 -5
-6 6 -1 11 2 17 5 13 3 -3 4 -12 1 -19z m4184 -15 c-3 -2 -5 -20 -5 -40 2 -46
-7 -63 -18 -37 -7 15 -7 13 -4 -9 4 -31 -9 -46 -18 -21 -9 23 3 81 20 95 8 6
11 15 8 20 -3 5 -2 14 2 21 5 8 10 6 14 -8 4 -10 5 -20 1 -21z m-2724 -35 c-3
-8 -6 -5 -6 6 -1 11 2 17 5 13 3 -3 4 -12 1 -19z"/>
<path d="M5580 1780 c0 -5 5 -10 10 -10 6 0 10 5 10 10 0 6 -4 10 -10 10 -5 0
-10 -4 -10 -10z"/>
<path d="M5576 1744 c-4 -9 -4 -19 -1 -22 2 -3 7 3 11 12 4 9 4 19 1 22 -2 3
-7 -3 -11 -12z"/>
<path d="M5517 1698 c-19 -42 -21 -58 -8 -58 13 0 33 56 28 77 -3 14 -8 9 -20
-19z"/>
<path d="M5118 1032 c-14 -26 -23 -53 -21 -59 6 -17 40 -17 49 -1 10 16 13 97
4 103 -4 2 -18 -17 -32 -43z"/>
<path d="M5080 1028 c-12 -22 -12 -22 6 -6 10 10 15 20 12 24 -4 3 -12 -5 -18
-18z"/>
<path d="M5216 1021 c-9 -13 4 -62 14 -56 9 5 6 52 -3 61 -3 3 -8 1 -11 -5z"/>
<path d="M5365 4360 c-9 -15 -13 -130 -4 -136 4 -2 23 14 42 37 39 45 44 87
11 100 -27 11 -42 10 -49 -1z"/>
<path d="M5647 4316 c-4 -15 -6 -31 -2 -34 10 -10 16 6 13 35 l-3 28 -8 -29z"/>
<path d="M480 4277 c0 -8 9 -22 20 -32 13 -12 17 -22 11 -28 -5 -5 -7 -16 -4
-23 3 -8 -2 -30 -11 -49 -39 -82 -44 -234 -8 -220 49 19 67 16 80 -11 16 -37
15 -47 -6 -70 -56 -60 -76 -115 -97 -259 -9 -55 -18 -119 -21 -142 -7 -46 5
-73 82 -173 56 -74 191 -278 243 -367 44 -77 66 -95 50 -40 -5 17 -13 79 -16
137 -4 83 -2 113 10 143 26 60 71 42 61 -24 -5 -26 2 -55 26 -112 43 -105 47
-107 108 -52 28 25 54 54 57 65 3 10 14 21 23 25 9 3 39 25 66 50 l49 46 -38
35 c-29 27 -44 52 -61 105 -22 69 -88 182 -132 226 -13 13 -29 36 -36 53 -6
16 -41 60 -77 97 -78 81 -110 144 -111 220 0 12 -6 24 -14 27 -8 3 -14 10 -14
15 0 5 -12 22 -27 38 -16 17 -33 41 -39 54 -6 13 -25 53 -42 89 -18 36 -32 71
-32 78 0 7 -3 11 -7 11 -23 -4 -33 3 -33 21 0 22 -38 80 -52 80 -4 0 -8 -6 -8
-13z"/>
<path d="M9320 4278 c0 -4 4 -8 9 -8 6 0 12 4 15 8 3 5 -1 9 -9 9 -8 0 -15 -4
-15 -9z"/>
<path d="M4950 4260 c0 -5 5 -10 11 -10 5 0 7 5 4 10 -3 6 -8 10 -11 10 -2 0
-4 -4 -4 -10z"/>
<path d="M7671 4227 c-9 -23 -20 -36 -28 -33 -8 4 -14 -4 -15 -22 -1 -15 -2
-34 -4 -42 -1 -8 -2 -19 -3 -25 -1 -5 -6 -3 -11 5 -8 12 -10 10 -10 -10 0 -14
-16 -56 -35 -93 -19 -37 -38 -86 -41 -107 -4 -22 -17 -54 -30 -72 -13 -17 -24
-38 -24 -44 0 -7 -6 -17 -14 -21 -7 -4 -26 -34 -40 -65 -15 -32 -32 -60 -38
-64 -14 -9 -32 14 -47 61 -27 88 -54 155 -59 150 -3 -2 -10 0 -17 5 -9 7 -25
-7 -59 -51 -52 -67 -156 -260 -156 -290 0 -16 3 -17 25 -7 18 8 31 8 52 -1 34
-14 201 -176 262 -254 53 -67 61 -64 86 26 9 34 37 100 62 147 31 59 49 109
60 165 21 117 39 210 56 295 21 105 50 330 46 359 -4 23 -5 22 -18 -12z"/>
<path d="M1027 4238 c-20 -16 -50 -149 -41 -186 4 -15 12 -36 19 -47 6 -11 18
-37 24 -58 7 -20 19 -44 28 -52 8 -9 12 -23 9 -32 -6 -14 -9 -13 -29 6 -31 28
-37 27 -37 -9 0 -16 -5 -30 -11 -30 -14 0 -7 -48 17 -130 13 -45 28 -66 79
-115 72 -69 82 -92 60 -134 -9 -18 -13 -41 -9 -56 15 -58 53 -138 74 -152 22
-15 24 -15 41 8 10 13 27 36 38 50 13 17 16 30 11 39 -8 13 -5 164 4 240 3 33
26 103 37 114 5 5 14 4 22 -3 12 -9 15 -6 19 18 4 30 -19 55 -44 46 -18 -7
-47 48 -58 108 -6 26 -22 76 -36 110 -14 34 -41 100 -59 145 -18 46 -41 92
-51 102 -25 24 -85 34 -107 18z"/>
<path d="M9326 4201 c2 -49 13 -81 27 -81 19 0 9 94 -12 107 -15 10 -17 7 -15
-26z"/>
<path d="M5612 4195 c-5 -19 -7 -33 -2 -30 4 3 14 -3 21 -12 10 -12 10 -14 2
-9 -7 4 -13 2 -13 -3 0 -6 -6 -11 -14 -11 -17 0 -26 -22 -26 -61 0 -34 17 -38
30 -6 7 15 8 6 3 -33 -3 -30 -9 -59 -13 -65 -4 -5 -11 -32 -14 -60 -4 -27 -9
-59 -11 -70 -3 -11 -2 -14 1 -7 8 18 24 15 24 -5 1 -11 10 -1 22 22 12 22 28
45 36 51 12 9 13 17 3 45 -6 19 -10 87 -9 153 1 96 -2 120 -14 127 -11 6 -17
0 -26 -26z"/>
<path d="M5502 4057 c-39 -91 -72 -168 -72 -172 0 -5 15 7 33 26 26 27 44 64
76 162 24 70 41 132 39 138 -2 5 -36 -64 -76 -154z"/>
<path d="M8687 4168 c-4 -12 -7 -31 -7 -42 0 -15 3 -16 15 -6 17 14 19 38 6
58 -6 10 -10 8 -14 -10z"/>
<path d="M7223 4102 c-20 -37 -30 -68 -26 -81 6 -23 19 -28 25 -9 3 9 6 9 12
0 4 -7 2 -12 -3 -12 -6 0 -11 -4 -11 -10 0 -24 21 -7 40 32 23 48 26 96 7 122
-12 16 -16 12 -44 -42z"/>
<path d="M7851 4129 c-20 -33 -48 -146 -38 -156 4 -3 9 3 13 13 19 56 58 133
64 129 4 -2 5 7 2 20 -6 33 -18 31 -41 -6z"/>
<path d="M830 4131 c0 -12 -4 -21 -10 -21 -15 0 -12 -30 9 -88 26 -70 50 -101
78 -102 17 0 5 132 -13 143 -8 4 -14 15 -14 22 0 8 -4 15 -9 15 -5 0 -11 10
-13 22 -4 28 -28 36 -28 9z"/>
<path d="M3755 4095 c-24 -40 -25 -48 -14 -78 10 -29 9 -42 -9 -94 -20 -58
-20 -62 -5 -112 15 -46 20 -51 51 -57 53 -10 62 9 62 136 0 149 -20 250 -51
250 -4 0 -20 -20 -34 -45z"/>
<path d="M0 3813 c1 -160 4 -223 11 -210 21 36 66 13 88 -45 8 -20 15 -25 31
-21 12 3 46 0 75 -7 120 -29 137 14 87 224 -17 72 -34 146 -38 164 -7 37 -41
59 -60 39 -16 -17 -44 -94 -44 -121 0 -35 -20 -86 -35 -86 -15 0 -22 17 -71
173 -20 64 -38 117 -40 117 -2 0 -4 -102 -4 -227z"/>
<path d="M3460 4033 c0 -4 5 -15 10 -23 8 -13 10 -13 10 2 0 9 -4 20 -10 23
-5 3 -10 3 -10 -2z"/>
<path d="M5582 4010 c0 -14 2 -19 5 -12 2 6 2 18 0 25 -3 6 -5 1 -5 -13z"/>
<path d="M9018 3982 c-3 -12 3 -22 17 -29 22 -10 23 -9 13 18 -11 33 -24 37
-30 11z"/>
<path d="M8040 3983 c0 -5 5 -15 10 -23 8 -12 10 -11 10 8 0 12 -4 22 -10 22
-5 0 -10 -3 -10 -7z"/>
<path d="M7185 3930 c-3 -6 1 -7 9 -4 18 7 21 14 7 14 -6 0 -13 -4 -16 -10z"/>
<path d="M8051 3920 c0 -8 4 -24 9 -35 5 -13 9 -14 9 -5 0 8 -4 24 -9 35 -5
13 -9 14 -9 5z"/>
<path d="M5066 3885 c-9 -14 -13 -25 -9 -25 10 0 36 40 30 46 -2 3 -12 -7 -21
-21z"/>
<path d="M7980 3879 c1 -31 15 -145 25 -194 16 -77 17 -98 8 -92 -10 6 -39
123 -35 140 1 4 -5 21 -13 37 -8 16 -15 38 -15 50 0 11 -7 20 -15 20 -8 0 -15
-4 -15 -9 0 -6 -22 -56 -50 -113 -27 -57 -67 -145 -89 -196 l-39 -92 48 -33
c105 -70 195 -203 271 -399 32 -83 57 -119 43 -62 -5 19 -4 25 5 20 7 -5 11 4
11 28 0 35 -13 48 -23 24 -3 -7 -6 7 -6 32 -1 34 2 41 11 32 7 -7 16 -12 21
-12 9 0 2 77 -13 125 -5 17 -18 89 -30 160 -12 72 -28 159 -36 193 -9 35 -13
70 -10 78 3 7 1 26 -4 41 -5 15 -14 62 -19 103 -18 138 -31 189 -31 119z m43
-364 c4 -34 3 -42 -3 -25 -8 25 -13 87 -6 79 2 -2 6 -26 9 -54z m44 -287 c-3
-8 -6 -5 -6 6 -1 11 2 17 5 13 3 -3 4 -12 1 -19z"/>
<path d="M2676 3867 c3 -10 9 -15 12 -12 3 3 0 11 -7 18 -10 9 -11 8 -5 -6z"/>
<path d="M8060 3843 c0 -4 5 -15 10 -23 8 -13 10 -13 10 2 0 9 -4 20 -10 23
-5 3 -10 3 -10 -2z"/>
<path d="M2204 3759 c-19 -39 -40 -109 -49 -169 -13 -86 -36 -147 -70 -188
-20 -22 -43 -58 -53 -79 -9 -21 -30 -59 -45 -85 -22 -36 -30 -64 -33 -115 -10
-164 -16 -211 -33 -292 -11 -47 -31 -142 -46 -211 -25 -113 -68 -230 -85 -230
-15 0 -32 115 -25 174 4 38 2 73 -5 91 -21 56 -21 201 1 374 20 161 20 199 0
306 -10 54 -30 105 -41 105 -18 0 -70 -182 -70 -250 0 -19 -11 -75 -23 -125
-19 -74 -27 -90 -43 -90 -16 0 -21 12 -32 70 -18 97 -33 155 -42 155 -11 0
-20 -82 -11 -99 5 -9 5 -25 0 -36 -4 -11 -8 -15 -9 -10 -1 6 -5 0 -8 -13 -11
-38 -27 -21 -25 26 1 36 -1 41 -13 31 -16 -13 -19 -33 -4 -24 6 3 10 -1 10
-10 0 -9 -4 -14 -9 -11 -9 6 -20 -21 -25 -58 -2 -11 4 -42 13 -70 l16 -51 3
35 c9 102 30 70 35 -53 5 -120 -6 -124 -65 -27 -22 36 -44 64 -49 63 -5 -2 -9
9 -9 23 0 17 -4 23 -12 18 -8 -5 -9 -2 -5 9 9 24 -12 32 -28 11 -8 -11 -24
-38 -36 -61 -12 -23 -30 -43 -40 -46 -11 -3 -17 -1 -13 4 10 17 -9 9 -32 -12
-22 -21 -23 -23 -7 -53 13 -24 18 -27 21 -13 2 9 8 17 13 17 5 0 9 7 9 15 0 8
3 15 8 15 11 0 32 -51 32 -77 0 -21 24 -70 41 -83 12 -10 18 -45 10 -59 -15
-23 148 -249 170 -235 5 3 8 2 7 -3 -3 -8 28 -59 49 -81 7 -8 18 -23 25 -35
27 -52 148 -192 148 -172 0 4 6 2 14 -5 8 -6 12 -19 9 -27 -5 -12 -3 -14 7 -8
8 5 11 4 6 -3 -6 -10 15 -42 93 -139 31 -39 35 -41 46 -25 7 9 16 49 19 87 4
39 12 88 16 110 5 22 19 92 30 155 44 245 53 287 71 362 24 95 75 363 84 438
17 136 66 342 108 450 52 135 64 172 47 150 -9 -12 -10 -7 -6 20 20 116 19
116 -5 134 -32 22 -36 21 -55 -15z m-909 -1018 c-3 -5 -1 -12 5 -16 5 -3 10
-11 10 -18 0 -7 -7 -5 -16 5 -14 14 -13 38 2 38 3 0 3 -4 -1 -9z m579 -507
c31 -38 33 -60 5 -74 -30 -16 -45 -7 -69 41 -24 51 -23 44 -4 63 18 19 32 13
68 -30z"/>
<path d="M2499 3733 c-12 -26 -25 -50 -29 -53 -9 -8 -60 -119 -60 -132 0 -6
-9 -21 -20 -33 -19 -20 -19 -21 -1 -22 13 -1 26 14 45 52 14 30 26 56 26 59 0
4 9 25 19 49 33 72 51 120 47 124 -2 2 -14 -18 -27 -44z"/>
<path d="M6762 3760 c0 -14 2 -19 5 -12 2 6 2 18 0 25 -3 6 -5 1 -5 -13z"/>
<path d="M8081 3764 c0 -11 3 -14 6 -6 3 7 2 16 -1 19 -3 4 -6 -2 -5 -13z"/>
<path d="M5582 3735 c0 -16 2 -22 5 -12 2 9 2 23 0 30 -3 6 -5 -1 -5 -18z"/>
<path d="M2796 3734 c-14 -35 -6 -91 18 -122 l24 -33 6 45 c5 32 2 55 -11 85
-19 44 -27 50 -37 25z"/>
<path d="M2557 3655 c-4 -27 -12 -86 -18 -130 -6 -44 -16 -91 -22 -105 -11
-25 -13 -33 -16 -77 0 -13 -7 -23 -14 -23 -22 0 -60 47 -53 65 4 10 2 14 -6 9
-8 -5 -9 5 -5 34 3 23 4 42 2 42 -2 0 -16 -35 -31 -77 -15 -43 -41 -102 -56
-132 -16 -30 -27 -60 -24 -68 3 -7 1 -13 -4 -13 -6 0 -10 -11 -10 -25 0 -14
-4 -33 -9 -43 -15 -27 -39 -131 -45 -197 -4 -33 -13 -105 -21 -160 -8 -55 -18
-121 -21 -148 -3 -31 -9 -45 -16 -41 -6 4 -8 3 -5 -3 3 -5 0 -34 -6 -64 -7
-30 -11 -76 -9 -103 4 -48 5 -49 18 -25 l13 24 1 -23 c0 -13 -7 -30 -15 -38
-17 -18 -20 -84 -4 -84 7 0 9 11 6 30 -6 27 1 37 86 120 50 49 97 90 104 90
25 0 13 -28 -20 -48 -19 -11 -62 -52 -96 -91 l-61 -72 1 -84 c1 -47 -1 -88 -4
-92 -4 -3 -7 21 -7 55 0 35 -4 62 -10 62 -5 0 -10 -7 -10 -15 0 -8 -5 -15 -12
-15 -6 0 -8 -3 -5 -7 4 -3 2 -12 -3 -18 -8 -9 -6 -14 5 -19 19 -7 19 -30 0
-46 -11 -9 -12 -16 -2 -31 10 -17 9 -23 -7 -34 -16 -12 -17 -17 -6 -30 9 -11
10 -18 1 -29 -6 -8 -10 -18 -9 -22 2 -5 -1 -10 -6 -11 -18 -3 -24 -29 -31
-134 -4 -62 -12 -109 -17 -109 -6 0 -8 10 -5 22 4 12 1 29 -6 37 -11 13 -15
122 -17 450 0 76 -9 40 -20 -85 -6 -65 -13 -128 -15 -139 -2 -11 -4 -29 -5
-40 -2 -15 -5 -12 -11 10 -5 18 -6 -11 -2 -72 4 -90 3 -103 -11 -103 -23 0
-20 -31 10 -84 29 -52 44 -65 44 -39 0 15 2 16 11 3 8 -11 12 -12 16 -2 2 6 9
12 14 12 5 0 2 -11 -7 -25 -16 -24 -14 -27 65 -147 44 -68 102 -170 129 -228
50 -104 75 -171 53 -140 -9 13 -11 13 -11 -3 0 -9 9 -25 21 -35 45 -38 136
-250 213 -497 31 -99 59 -198 63 -220 3 -22 10 -48 14 -57 6 -11 5 -18 -4 -21
-8 -4 -6 -6 4 -6 11 -1 21 -21 31 -64 9 -34 27 -99 40 -144 l23 -83 511 0 511
0 13 87 c7 49 25 138 40 198 15 61 30 135 34 165 4 30 22 135 42 233 19 97 39
221 44 275 15 146 70 510 105 687 16 82 28 171 45 330 13 123 13 120 -5 105
-12 -10 -15 -9 -15 6 0 11 5 26 10 34 9 13 10 13 11 0 1 -19 17 28 18 55 1 16
-1 17 -9 5 -8 -12 -10 -12 -10 5 0 11 -6 32 -14 46 -10 20 -11 38 -4 70 5 24
11 70 13 102 2 32 9 65 16 73 10 12 10 15 -1 12 -18 -4 -26 32 -10 42 14 9 6
40 -10 40 -5 0 -10 -8 -10 -17 -1 -59 -21 -155 -39 -193 -11 -24 -21 -54 -21
-67 0 -13 -6 -23 -12 -23 -9 0 -8 -4 2 -10 10 -6 11 -10 3 -10 -7 0 -13 -12
-13 -27 0 -22 2 -25 11 -13 7 12 9 8 7 -15 -3 -26 -6 -30 -31 -27 -26 3 -28 2
-27 -35 2 -48 -21 -163 -32 -163 -4 0 -8 35 -8 77 0 42 -4 73 -8 68 -8 -10
-117 -342 -167 -510 -69 -231 -183 -568 -185 -543 0 16 42 183 55 211 7 18 34
98 60 180 25 81 48 155 51 165 5 14 4 15 -5 2 -6 -8 -20 -42 -30 -75 -17 -55
-49 -140 -70 -190 -15 -34 -69 -208 -76 -243 -5 -22 -11 -32 -20 -28 -8 3 -15
-3 -18 -12 -2 -10 -9 0 -17 26 -12 39 -12 44 7 65 31 34 70 108 78 147 14 71
63 205 117 320 19 41 41 93 48 115 7 22 21 57 32 77 11 24 16 47 12 63 -5 20
-3 24 9 20 10 -4 16 2 19 19 3 14 1 23 -3 20 -5 -3 -9 2 -9 11 0 9 -4 14 -8
11 -5 -3 -7 8 -4 23 5 36 -13 48 -39 25 -27 -25 -40 -8 -29 40 7 34 6 41 -16
63 -13 13 -24 32 -24 43 0 10 -5 42 -11 70 -8 39 -15 50 -27 48 -24 -5 -39
-54 -24 -78 13 -22 16 -53 5 -64 -4 -3 -8 -13 -9 -20 -5 -35 -17 -55 -34 -61
-23 -7 -36 -46 -49 -155 -6 -47 -18 -125 -27 -174 l-17 -89 -18 38 c-11 21
-19 45 -19 53 0 14 -21 13 -64 -4 -9 -3 -16 -1 -16 6 0 6 -4 9 -9 5 -6 -3 -8
-44 -6 -93 l4 -87 -14 100 c-8 55 -17 106 -20 115 -4 8 -13 46 -21 84 -8 37
-28 96 -44 129 -17 34 -30 74 -30 90 0 15 -11 45 -25 65 l-26 37 7 -45 7 -45
-27 30 -27 30 3 -332 c2 -182 1 -330 -1 -327 -2 2 -7 59 -10 126 -4 84 -10
123 -18 126 -9 2 -13 -9 -13 -37 0 -23 5 -41 10 -41 6 0 10 -7 10 -15 0 -9 -6
-12 -15 -9 -15 6 -17 -19 -20 -213 0 -18 -6 -35 -13 -38 -9 -3 -11 5 -6 34 4
26 2 42 -8 52 -22 22 -29 74 -17 131 9 39 8 52 -1 58 -18 11 -21 70 -4 70 9 0
14 12 14 35 0 19 -4 35 -9 35 -5 0 -7 -8 -4 -19 3 -10 0 -22 -6 -25 -11 -7
-15 89 -11 251 1 33 -3 64 -8 67 -6 3 -9 -63 -7 -167 2 -228 -3 -311 -20 -297
-8 7 -13 53 -14 153 -3 268 -10 409 -20 421 -5 6 -8 28 -6 49 1 20 -1 39 -5
42 -5 3 -12 27 -16 53 -6 43 -8 45 -17 24 -8 -17 -7 -29 2 -44 9 -15 10 -23 2
-31 -7 -7 -11 -66 -11 -159 0 -92 -4 -148 -10 -148 -10 0 -12 19 -14 102 -1
54 -16 59 -16 5 0 -27 -6 -52 -15 -61 -19 -19 -19 -30 -1 -23 12 5 15 -17 16
-136 0 -78 3 -161 6 -184 5 -35 2 -46 -20 -70 -14 -15 -26 -31 -26 -34 0 -3
11 -18 25 -33 26 -28 33 -42 15 -31 -5 3 -10 -4 -10 -15 0 -12 -9 -33 -20 -47
-11 -14 -20 -37 -20 -52 1 -24 2 -24 14 -8 23 30 28 19 24 -58 -2 -41 -1 -75
2 -75 3 0 4 -20 2 -45 -2 -25 -9 -45 -14 -45 -6 0 -8 9 -5 20 8 30 -10 24 -21
-7 l-10 -28 -10 25 c-10 24 -11 24 -11 3 -1 -13 -6 -23 -12 -23 -6 0 -10 10
-9 23 4 45 0 78 -9 73 -10 -7 -20 106 -11 114 4 3 10 13 13 24 5 12 14 17 27
13 18 -5 19 0 16 92 -2 53 -5 110 -5 126 -1 22 -4 26 -10 16 -5 -8 -7 -20 -4
-27 2 -6 0 -15 -6 -19 -12 -7 -14 13 -13 118 0 38 6 75 13 83 6 8 9 17 5 21
-3 3 -6 2 -6 -4 0 -6 -9 -13 -21 -16 -15 -4 -19 -2 -15 10 3 8 6 22 6 31 0 13
2 14 9 3 16 -24 24 8 10 41 -12 30 -13 30 -21 9 -4 -12 -12 -19 -18 -16 -14 9
-12 99 2 113 9 9 10 17 1 31 -8 13 -8 76 3 247 7 126 16 249 19 274 5 48 -10
157 -26 176 -5 6 -11 31 -13 55 -3 24 -12 61 -20 81 -10 22 -16 67 -16 108 0
78 12 85 31 19 7 -22 21 -45 31 -50 11 -6 18 -21 18 -39 0 -16 4 -31 9 -34 4
-3 6 -39 3 -81 -6 -98 13 -101 22 -2 17 199 26 418 17 434 -5 10 -14 30 -20
46 -6 15 -15 27 -21 27 -6 0 -9 -4 -6 -8 6 -10 -12 -82 -20 -82 -3 0 -16 7
-29 16 -24 15 -24 15 -30 -23 -3 -21 -8 -49 -11 -63 -3 -14 -6 -36 -9 -48 -6
-38 -15 -38 -17 -1 -3 62 -4 68 -9 74 -4 3 -9 -13 -13 -35 -24 -152 -36 168
-15 417 12 141 9 227 -4 138z m-140 -327 c-3 -7 -5 -2 -5 12 0 14 2 19 5 13 2
-7 2 -19 0 -25z m-220 -820 c-3 -7 -5 -2 -5 12 0 14 2 19 5 13 2 -7 2 -19 0
-25z m3 -98 c0 -5 -2 -10 -4 -10 -3 0 -8 5 -11 10 -3 6 -1 10 4 10 6 0 11 -4
11 -10z m260 -74 c0 -16 -18 -31 -27 -22 -8 8 5 36 17 36 5 0 10 -6 10 -14z
m1560 -51 c0 -19 -4 -35 -8 -35 -4 0 -6 16 -4 35 2 19 6 35 8 35 2 0 4 -16 4
-35z m-1427 -44 c2 -10 1 -25 -4 -32 -6 -10 -9 -4 -9 19 0 36 5 42 13 13z
m1449 -66 c3 -13 1 -22 -3 -19 -9 5 -13 44 -5 44 2 0 6 -11 8 -25z m-1488
-236 c0 -41 -4 -168 -9 -282 -7 -187 -10 -207 -25 -205 -9 2 -23 -2 -31 -9
-17 -14 -17 1 1 142 6 44 15 145 21 225 6 80 12 156 14 170 2 14 4 29 4 33 1
5 7 7 14 4 8 -2 12 -27 11 -78z m1386 10 c0 -10 -4 -28 -9 -41 -5 -13 -12 -36
-16 -52 -5 -23 -8 -27 -16 -15 -13 20 -11 87 3 126 11 31 14 33 25 17 7 -10
13 -26 13 -35z m-1080 -39 c0 -27 -4 -50 -10 -50 -11 0 -14 83 -3 93 12 12 13
8 13 -43z m-730 -15 c0 -8 -4 -15 -10 -15 -5 0 -10 7 -10 15 0 8 5 15 10 15 6
0 10 -7 10 -15z m549 -97 c0 -31 -3 -37 -8 -24 -7 18 -3 66 5 66 2 0 4 -19 3
-42z m1328 0 c-3 -7 -5 -2 -5 12 0 14 2 19 5 13 2 -7 2 -19 0 -25z m-1952 -58
c3 -5 1 -10 -4 -10 -6 0 -11 5 -11 10 0 6 2 10 4 10 3 0 8 -4 11 -10z m1191
-88 c-11 -10 -14 3 -8 33 l7 30 3 -28 c2 -16 1 -31 -2 -35z m-379 -19 c-3 -10
-5 -2 -5 17 0 19 2 27 5 18 2 -10 2 -26 0 -35z m94 -203 l-5 -45 -7 40 c-5 22
-5 67 -1 100 l7 60 5 -55 c3 -30 3 -75 1 -100z m286 118 c-3 -7 -5 -2 -5 12 0
14 2 19 5 13 2 -7 2 -19 0 -25z m143 22 c0 -5 -5 -10 -11 -10 -5 0 -7 5 -4 10
3 6 8 10 11 10 2 0 4 -4 4 -10z m49 -54 c-3 -91 -19 -108 -19 -20 0 62 4 84
17 84 2 0 3 -29 2 -64z m-705 6 c3 -20 6 -50 6 -65 0 -39 -25 -30 -26 9 -2 56
-4 64 -13 62 -9 -3 -11 2 -11 20 0 4 8 8 19 9 14 1 20 -7 25 -35z m133 -44
c-2 -13 -4 -5 -4 17 -1 22 1 32 4 23 2 -10 2 -28 0 -40z m498 -28 c-10 -17
-25 -1 -25 28 l0 26 16 -22 c8 -12 12 -27 9 -32z m-320 -117 c-7 -38 -12 -50
-19 -42 -7 9 7 79 16 79 6 0 8 -14 3 -37z m52 0 c-3 -10 -5 -4 -5 12 0 17 2
24 5 18 2 -7 2 -21 0 -30z m139 -82 c-13 -20 -26 -11 -26 16 0 25 1 26 16 11
9 -9 13 -21 10 -27z m206 -28 c3 -27 3 -50 1 -53 -9 -10 -23 28 -23 63 0 54
17 46 22 -10z m-102 -3 c0 -5 -4 -10 -10 -10 -5 0 -10 5 -10 10 0 6 5 10 10
10 6 0 10 -4 10 -10z m1 -81 c-1 -22 3 -46 9 -54 14 -17 10 -37 -6 -27 -13 8
-27 116 -17 126 12 12 17 -5 14 -45z m-654 -31 c-3 -7 -5 -2 -5 12 0 14 2 19
5 13 2 -7 2 -19 0 -25z m40 -10 c-3 -7 -5 -2 -5 12 0 14 2 19 5 13 2 -7 2 -19
0 -25z m645 -283 c2 -19 0 -35 -4 -35 -4 0 -8 16 -8 35 0 19 2 35 4 35 2 0 6
-16 8 -35z m8 -84 c0 -11 -4 -23 -10 -26 -6 -4 -10 5 -10 19 0 14 5 26 10 26
6 0 10 -9 10 -19z m-100 -72 c0 -5 -4 -9 -10 -9 -5 0 -10 7 -10 16 0 8 5 12
10 9 6 -3 10 -10 10 -16z m-23 -96 c-3 -10 -5 -4 -5 12 0 17 2 24 5 18 2 -7 2
-21 0 -30z m-6 -95 l-9 -33 -1 36 c-1 20 2 39 6 43 13 12 15 -10 4 -46z"/>
<path d="M5566 3654 c-3 -26 -4 -49 -2 -52 3 -2 8 17 11 43 4 25 5 48 3 51 -3
2 -8 -17 -12 -42z"/>
<path d="M8090 3663 c0 -10 5 -25 10 -33 8 -12 10 -9 10 12 0 15 -4 30 -10 33
-5 3 -10 -2 -10 -12z"/>
<path d="M6767 3510 c3 -63 12 -140 19 -170 l14 -55 -6 80 c-3 44 -12 121 -19
170 l-13 90 5 -115z"/>
<path d="M3266 3601 c-15 -24 -18 -108 -5 -132 13 -22 14 -19 20 51 5 71 -1
104 -15 81z"/>
<path d="M5280 3601 c0 -6 4 -13 10 -16 6 -3 7 1 4 9 -7 18 -14 21 -14 7z"/>
<path d="M5547 3570 c-4 -14 -6 -36 -6 -50 1 -22 2 -20 10 8 6 19 9 41 7 50
-3 12 -6 10 -11 -8z"/>
<path d="M5217 3521 c-49 -68 -178 -293 -172 -300 11 -10 117 114 147 173 33
65 71 167 64 173 -2 2 -20 -19 -39 -46z"/>
<path d="M8690 3476 c0 -19 5 -38 10 -41 6 -4 10 10 10 34 0 23 -4 41 -10 41
-5 0 -10 -15 -10 -34z"/>
<path d="M105 3481 c-3 -12 -18 -24 -33 -27 -56 -12 -54 -10 -50 -87 3 -61 11
-87 51 -171 26 -55 58 -114 70 -130 47 -62 67 -140 77 -296 4 -69 15 -153 24
-188 9 -34 28 -124 42 -200 19 -103 31 -145 50 -169 15 -20 22 -38 17 -50 -11
-31 32 27 60 82 36 69 66 113 184 268 57 75 103 142 103 149 0 16 -144 250
-197 319 -20 26 -49 57 -65 69 -17 12 -40 45 -53 74 -34 77 -48 85 -85 47 -17
-16 -31 -33 -30 -36 1 -17 -1 -19 -9 -6 -9 13 -6 90 5 139 7 32 -25 97 -82
166 -56 67 -70 76 -79 47z m345 -596 c56 -29 45 -125 -15 -125 -26 0 -55 33
-55 63 0 17 29 77 38 77 1 0 16 -7 32 -15z m15 -468 c-5 -16 -4 -18 3 -8 6 8
12 9 16 3 7 -12 -36 -94 -53 -100 -9 -3 -8 4 4 22 10 15 13 26 6 26 -6 0 -11
7 -11 16 0 8 5 12 10 9 6 -4 10 8 10 30 0 23 4 34 10 30 6 -4 8 -16 5 -28z"/>
<path d="M5870 3358 c-6 -57 -10 -116 -8 -133 3 -28 5 -26 21 24 9 30 20 89
23 132 6 66 4 79 -8 79 -12 0 -18 -24 -28 -102z"/>
<path d="M3025 3274 c5 -118 12 -162 33 -228 15 -44 31 -81 36 -81 11 0 57
126 82 222 l18 71 -39 49 c-22 26 -48 54 -59 62 -11 8 -28 23 -38 33 -38 38
-41 25 -33 -128z"/>
<path d="M6095 3409 c-4 -6 -13 -8 -21 -5 -10 4 -14 -3 -15 -22 0 -15 -2 -34
-4 -42 -2 -8 -8 -35 -14 -60 -5 -25 -17 -70 -26 -100 -33 -112 -46 -176 -47
-235 0 -33 -5 -71 -10 -84 -6 -16 -5 -28 2 -35 7 -7 11 -7 10 -1 -5 22 1 35
15 35 8 0 15 8 15 18 0 21 44 74 54 64 4 -4 7 -2 5 3 -1 6 0 17 4 25 26 69 36
142 40 288 2 89 3 162 1 162 -1 0 -6 -5 -9 -11z"/>
<path d="M6824 3338 c9 -74 26 -102 26 -41 0 55 -10 103 -23 103 -6 0 -7 -23
-3 -62z"/>
<path d="M1328 3370 c-8 -24 2 -48 23 -53 21 -6 26 7 8 19 -8 4 -7 9 2 15 11
7 10 9 -3 9 -9 0 -18 6 -20 13 -3 8 -6 8 -10 -3z"/>
<path d="M6761 3354 c0 -11 3 -14 6 -6 3 7 2 16 -1 19 -3 4 -6 -2 -5 -13z"/>
<path d="M10208 3292 c-42 -26 -53 -54 -35 -88 9 -16 24 -44 33 -61 10 -18 21
-33 26 -33 4 0 8 45 8 100 0 55 -1 100 -2 99 -2 0 -15 -8 -30 -17z"/>
<path d="M6671 3274 c0 -11 3 -14 6 -6 3 7 2 16 -1 19 -3 4 -6 -2 -5 -13z"/>
<path d="M6990 3259 c-16 -22 -24 -54 -31 -117 -4 -48 -12 -107 -18 -132 -5
-25 -12 -101 -16 -170 -5 -69 -9 -138 -11 -155 -1 -16 0 -54 3 -84 7 -58 20
-75 90 -116 38 -23 45 -24 80 -12 32 10 44 23 80 87 24 41 45 79 47 85 8 23
17 -7 29 -96 7 -52 18 -103 24 -113 8 -14 7 -28 -3 -52 -8 -18 -14 -54 -14
-80 l0 -47 -65 6 c-76 7 -80 1 -37 -59 16 -22 32 -58 35 -81 6 -37 4 -45 -23
-71 -20 -21 -30 -40 -30 -61 0 -60 27 -34 84 81 34 68 41 77 61 72 19 -5 25 1
39 37 9 23 18 74 19 113 2 61 -1 76 -21 101 l-23 30 30 14 c46 22 53 53 55
244 l1 174 -40 49 c-109 134 -147 123 -138 -41 l3 -70 -25 30 c-14 17 -32 55
-41 85 -8 30 -26 87 -39 125 -13 39 -29 100 -35 138 -12 78 -25 117 -39 117
-5 0 -19 -14 -31 -31z"/>
<path d="M1475 3269 c-4 -6 -5 -13 -2 -16 7 -7 27 6 27 18 0 12 -17 12 -25 -2z"/>
<path d="M3702 3157 c-2 -40 4 -102 12 -137 8 -36 15 -94 15 -130 1 -63 27
-170 41 -170 3 0 19 28 34 62 25 56 26 63 12 74 -9 6 -16 17 -16 25 0 8 -7 23
-15 33 -17 22 -20 82 -6 90 5 4 12 24 16 46 6 33 2 48 -24 93 -17 29 -39 61
-49 70 -17 16 -18 14 -20 -56z"/>
<path d="M6717 3213 c-4 -3 -7 -13 -7 -22 1 -13 3 -13 11 2 11 19 8 33 -4 20z"/>
<path d="M5470 3195 c-7 -69 -7 -86 -4 -82 12 12 20 64 13 82 l-8 20 -1 -20z"/>
<path d="M8472 3145 c0 -16 2 -22 5 -12 2 9 2 23 0 30 -3 6 -5 -1 -5 -18z"/>
<path d="M6781 3084 c0 -11 3 -14 6 -6 3 7 2 16 -1 19 -3 4 -6 -2 -5 -13z"/>
<path d="M6700 3053 c0 -12 5 -25 11 -28 17 -11 18 -2 4 25 -14 24 -14 24 -15
3z"/>
<path d="M5657 3033 c-4 -3 -7 -11 -7 -17 0 -6 5 -5 12 2 6 6 9 14 7 17 -3 3
-9 2 -12 -2z"/>
<path d="M4907 3023 c-3 -5 1 -19 9 -33 l13 -25 1 27 c0 27 -14 45 -23 31z"/>
<path d="M3207 3013 c-4 -3 -7 -18 -7 -33 0 -15 -9 -53 -20 -85 -11 -32 -20
-68 -20 -80 0 -11 -5 -26 -11 -32 -9 -9 -7 -29 4 -80 42 -181 78 -408 92 -588
11 -144 47 -338 65 -358 4 -5 20 1 34 14 20 18 26 32 26 64 0 46 35 196 48
204 9 6 37 81 52 136 4 17 11 38 15 48 5 12 3 17 -8 17 -12 0 -15 17 -13 99 1
108 -7 131 -42 112 -31 -17 -57 8 -47 45 9 32 7 56 -5 64 -5 3 -8 26 -8 51 1
66 -11 79 -31 33 l-17 -38 -21 30 c-19 27 -20 36 -12 159 5 72 11 138 13 148
2 9 0 17 -5 17 -5 0 -9 -8 -9 -17 0 -24 -23 -83 -32 -83 -13 0 -21 49 -15 95
4 29 2 46 -7 54 -7 6 -16 8 -19 4z"/>
<path d="M5122 2941 c-31 -59 -41 -88 -36 -106 3 -14 10 -28 15 -30 9 -6 72
190 67 207 -2 6 -23 -26 -46 -71z"/>
<path d="M8231 3014 c-1 -7 6 -27 14 -45 8 -19 14 -27 14 -19 0 18 -27 79 -28
64z"/>
<path d="M4180 2965 c0 -8 5 -15 10 -15 6 0 10 7 10 15 0 8 -4 15 -10 15 -5 0
-10 -7 -10 -15z"/>
<path d="M4944 2917 c3 -9 19 -58 36 -107 30 -85 31 -93 20 -147 -8 -35 -24
-73 -41 -95 -16 -20 -41 -62 -55 -93 -23 -49 -24 -60 -14 -85 15 -36 42 -61
57 -52 23 14 52 111 55 181 1 39 5 65 9 59 9 -15 59 86 59 118 0 12 -11 38
-25 58 -14 20 -25 43 -25 50 0 8 -7 19 -16 27 -8 7 -27 33 -40 58 -14 25 -23
38 -20 28z"/>
<path d="M3942 2900 c0 -14 2 -19 5 -12 2 6 2 18 0 25 -3 6 -5 1 -5 -13z"/>
<path d="M6448 2881 c-2 -17 -1 -36 2 -42 4 -6 10 4 13 22 3 19 1 38 -3 42 -4
5 -10 -5 -12 -22z"/>
<path d="M8161 2854 c0 -11 3 -14 6 -6 3 7 2 16 -1 19 -3 4 -6 -2 -5 -13z"/>
<path d="M2873 2815 c0 -22 2 -30 4 -17 2 12 2 30 0 40 -3 9 -5 -1 -4 -23z"/>
<path d="M3890 2791 c0 -5 7 -15 17 -22 15 -13 15 -12 4 9 -12 23 -21 28 -21
13z"/>
<path d="M6439 2800 c-9 -46 -8 -69 4 -79 22 -17 33 47 12 68 -8 8 -15 13 -16
11z"/>
<path d="M1235 2780 c-3 -5 -1 -10 4 -10 6 0 11 5 11 10 0 6 -2 10 -4 10 -3 0
-8 -4 -11 -10z"/>
<path d="M6303 2776 c3 -7 1 -18 -4 -23 -6 -6 -5 -14 3 -21 10 -8 14 -3 15 24
2 20 -2 34 -8 34 -6 0 -9 -6 -6 -14z"/>
<path d="M6523 2689 c-79 -86 -193 -251 -193 -279 0 -16 -21 -22 -35 -10 -7 6
-17 26 -20 43 -10 48 -34 95 -52 101 -14 6 -15 -5 -10 -86 3 -51 13 -117 22
-147 l17 -54 15 32 c22 45 30 29 8 -18 -17 -39 -17 -43 5 -138 25 -111 69
-255 110 -358 15 -38 39 -104 53 -145 64 -187 84 -233 93 -219 5 8 10 133 12
279 1 146 4 283 7 305 6 46 45 511 49 580 2 46 -7 68 -18 40 -3 -8 -12 -15
-21 -15 -20 0 -20 49 0 76 8 10 15 29 15 41 0 15 5 21 15 17 9 -4 16 3 21 21
3 14 5 28 3 30 -2 2 -46 -41 -96 -96z m-4 -356 c12 -61 15 -136 5 -146 -3 -3
-14 -1 -24 5 -27 17 -70 2 -70 -25 0 -28 -15 -51 -28 -43 -5 3 -15 19 -20 35
-8 23 -5 40 18 94 64 151 100 175 119 80z"/>
<path d="M7550 2769 c0 -8 -2 -43 -5 -79 -4 -77 -7 -197 -5 -225 1 -15 4 -12
11 10 5 17 6 38 3 48 -3 10 0 24 6 32 9 10 10 45 6 116 -3 57 -8 105 -11 107
-3 3 -5 -1 -5 -9z"/>
<path d="M3935 2709 c-7 -33 -3 -45 14 -34 13 8 15 65 2 65 -5 0 -12 -14 -16
-31z"/>
<path d="M4856 2670 c-138 -146 -151 -205 -46 -212 l44 -3 33 80 c30 70 56
205 41 205 -3 0 -35 -32 -72 -70z"/>
<path d="M4252 2705 c0 -16 2 -22 5 -12 2 9 2 23 0 30 -3 6 -5 -1 -5 -18z"/>
<path d="M5586 2702 c-3 -6 -1 -14 5 -17 15 -10 25 3 12 16 -7 7 -13 7 -17 1z"/>
<path d="M5544 2676 c-16 -12 -16 -14 4 -34 27 -27 28 -52 3 -59 -20 -5 -30
-29 -32 -73 0 -14 -3 -19 -6 -12 -11 27 -21 10 -12 -20 11 -40 11 -72 0 -44
-7 19 -8 18 -16 -5 -4 -13 -8 -52 -9 -86 -2 -51 0 -60 11 -51 7 6 13 16 13 23
0 6 8 27 17 45 14 30 17 32 24 14 6 -16 8 -15 14 11 10 40 37 85 47 79 4 -3 8
-1 8 5 0 5 -4 12 -8 15 -5 3 -7 41 -4 84 4 70 2 82 -16 100 -17 17 -23 18 -38
8z m-3 -249 c-11 -13 -17 -15 -20 -6 -2 7 1 15 8 17 6 2 11 16 12 30 l1 27 7
-25 c6 -17 3 -31 -8 -43z"/>
<path d="M6240 2660 c0 -5 5 -10 10 -10 6 0 10 5 10 10 0 6 -4 10 -10 10 -5 0
-10 -4 -10 -10z"/>
<path d="M4265 2611 c4 -51 10 -69 19 -60 2 2 -2 29 -10 59 l-14 55 5 -54z"/>
<path d="M1307 2623 c-4 -3 -7 -11 -7 -17 0 -6 5 -5 12 2 6 6 9 14 7 17 -3 3
-9 2 -12 -2z"/>
<path d="M9548 2613 c7 -3 16 -2 19 1 4 3 -2 6 -13 5 -11 0 -14 -3 -6 -6z"/>
<path d="M6740 2596 c0 -9 5 -16 10 -16 6 0 10 4 10 9 0 6 -4 13 -10 16 -5 3
-10 -1 -10 -9z"/>
<path d="M5650 2561 c-5 -11 -12 -41 -16 -68 l-5 -48 30 29 c21 20 28 36 26
55 -2 14 -4 32 -4 39 -1 18 -19 15 -31 -7z"/>
<path d="M9535 2570 c-3 -5 1 -10 10 -10 9 0 13 5 10 10 -3 6 -8 10 -10 10 -2
0 -7 -4 -10 -10z"/>
<path d="M3817 2563 c-4 -3 -7 -34 -7 -68 0 -50 4 -66 21 -81 21 -19 21 -18
40 5 23 28 24 47 3 97 -20 47 -40 64 -57 47z"/>
<path d="M10156 2536 c-19 -25 -30 -53 -33 -84 -2 -26 -10 -72 -18 -102 -37
-143 -44 -186 -37 -220 4 -19 12 -34 17 -33 12 2 34 83 41 152 3 30 12 67 20
82 8 16 14 51 14 78 0 28 7 68 16 90 9 22 14 48 12 57 -2 14 -9 9 -32 -20z"/>
<path d="M16 2515 c-12 -33 -7 -55 14 -55 17 0 19 4 14 28 -9 36 -20 47 -28
27z"/>
<path d="M6611 2455 l2 -80 7 70 c4 39 4 74 -1 80 -5 5 -8 -24 -8 -70z"/>
<path d="M980 2513 c0 -6 11 -41 25 -77 14 -37 38 -118 54 -181 16 -63 41
-138 55 -167 14 -29 31 -73 38 -98 7 -25 18 -43 23 -40 6 3 9 8 7 13 -1 4 2 7
7 7 5 0 11 9 14 20 10 39 57 15 65 -33 3 -23 -13 -118 -30 -175 -7 -24 -6 -52
7 -108 9 -42 15 -78 12 -80 -2 -3 -12 10 -21 28 -10 18 -23 44 -31 58 -27 49
-44 97 -51 141 -11 72 -79 202 -137 262 -20 21 -37 45 -37 53 0 8 -11 32 -24
53 -13 20 -47 83 -75 139 -28 55 -55 103 -60 106 -11 7 -98 -86 -143 -153 -17
-25 -44 -61 -60 -79 -39 -45 -200 -287 -228 -342 -13 -25 -40 -70 -60 -100
-75 -111 -107 -182 -113 -248 -6 -73 -8 -71 113 -168 75 -61 195 -165 283
-247 17 -16 47 -37 68 -47 l37 -19 0 22 c0 12 8 58 16 102 19 94 20 126 5 178
-8 32 -18 41 -54 57 -47 20 -68 48 -63 83 5 37 56 34 121 -7 31 -20 60 -36 65
-36 5 0 19 -11 32 -25 l24 -25 -36 -33 -35 -32 -6 -164 c-5 -114 -3 -170 5
-184 6 -12 34 -45 61 -74 27 -29 47 -53 44 -53 -3 0 -32 22 -64 48 -65 54 -90
71 -79 54 3 -5 0 -12 -6 -15 -9 -3 -7 -9 6 -19 10 -8 16 -20 12 -26 -3 -6 0
-14 7 -19 8 -4 17 -20 21 -36 6 -25 4 -27 -26 -27 l-32 0 27 -28 c35 -36 35
-49 0 -27 -15 10 -36 18 -47 19 -12 1 -25 11 -31 23 -5 13 -15 23 -22 23 -18
0 -54 42 -49 57 3 7 -4 18 -15 24 -16 8 -18 14 -9 24 8 9 8 15 0 20 -5 3 -10
3 -10 -1 0 -4 -10 1 -22 12 -21 19 -21 19 -16 -3 8 -29 4 -29 -31 3 -16 14
-27 32 -25 39 3 6 -6 19 -20 28 -18 12 -26 13 -29 4 -2 -7 -24 7 -55 36 -28
26 -58 47 -66 47 -16 0 -66 48 -66 63 0 12 -26 37 -38 37 -13 0 -19 -33 -28
-150 -4 -52 -8 -108 -10 -125 -1 -16 -3 -41 -4 -55 -1 -46 -20 1 -20 51 0 25
-3 49 -7 53 -8 8 -10 20 -17 94 -3 29 -8 58 -11 63 -6 9 -13 37 -19 74 -2 11
-8 29 -12 40 -10 21 -75 135 -77 135 -1 0 -3 -27 -4 -60 -2 -39 2 -60 9 -60 6
0 9 -3 5 -6 -3 -3 5 -24 19 -45 13 -21 24 -45 24 -53 0 -9 8 -20 19 -25 14 -8
19 -22 19 -57 1 -25 6 -52 13 -60 6 -8 9 -21 5 -29 -3 -8 -1 -38 4 -65 5 -27
10 -78 11 -112 1 -35 6 -78 12 -96 9 -27 9 -35 -3 -43 -11 -8 -12 -12 -2 -16
17 -7 15 -23 -3 -23 -12 0 -15 -7 -10 -32 20 -112 21 -255 2 -207 -3 9 -6 6
-6 -7 -1 -11 -5 -24 -10 -30 -26 -26 -48 -83 -44 -110 4 -23 2 -26 -7 -14 -8
12 -9 7 -4 -21 5 -30 2 -40 -16 -57 -15 -14 -20 -27 -15 -41 4 -13 2 -21 -5
-21 -7 0 -10 -8 -7 -20 3 -10 0 -21 -6 -23 -6 -2 -8 -11 -3 -23 7 -19 8 -19
22 1 8 11 20 37 26 57 6 21 15 38 20 38 12 0 10 -24 -6 -45 -8 -11 -11 -28 -6
-44 l6 -26 1057 -3 c1041 -2 1057 -2 1057 17 0 31 17 33 37 6 l18 -25 211 2
211 3 -34 75 c-96 211 -240 465 -402 710 -31 47 -69 111 -85 143 -15 32 -34
61 -42 64 -8 3 -22 21 -31 41 -17 36 -17 36 -24 12 -6 -20 -7 -17 -8 17 -1 35
-7 47 -39 75 -21 18 -41 41 -45 51 -3 9 -10 17 -14 17 -5 0 -19 18 -33 40 -14
22 -28 40 -31 40 -4 0 -7 -21 -8 -47 -2 -86 -10 -156 -19 -165 -13 -13 -22 3
-47 76 -11 33 -26 62 -33 64 -13 4 -62 -90 -62 -120 0 -10 -4 -18 -9 -18 -5 0
2 35 15 78 34 105 42 162 21 162 -18 0 -32 -50 -22 -81 5 -15 1 -25 -13 -35
-12 -8 -23 -32 -27 -61 -12 -70 -12 -70 -40 -178 -47 -176 -43 -164 -44 -134
-1 15 17 100 39 190 67 277 70 293 70 325 0 36 -39 116 -79 159 -41 45 -70
107 -75 156 -5 64 -18 89 -86 176 -34 43 -78 103 -97 133 -20 30 -59 78 -86
105 -27 28 -60 71 -73 97 -27 52 -45 70 -37 36 l5 -23 -21 24 c-25 27 -27 46
-6 37 8 -3 15 -1 15 4 0 6 -4 10 -10 10 -5 0 -10 5 -10 11 0 6 -25 56 -56 112
-54 98 -94 154 -94 130z m-70 -772 c0 -22 7 -33 27 -43 14 -7 29 -19 31 -27 3
-8 0 -11 -6 -8 -5 4 -15 0 -22 -8 -13 -16 -6 -19 31 -16 21 2 33 -27 18 -45
-6 -8 -22 -14 -34 -14 -15 0 -25 -8 -29 -22 -5 -19 -8 -21 -16 -8 -5 8 -10 29
-10 45 0 17 -5 46 -10 65 -11 38 -4 110 11 110 5 0 9 -13 9 -29z m230 -88 c0
-22 -2 -25 -10 -13 -13 20 -13 40 0 40 6 0 10 -12 10 -27z m-190 -218 c0 -17
-2 -17 -10 -5 -5 8 -10 24 -10 35 0 17 2 17 10 5 5 -8 10 -24 10 -35z m14 -51
c3 -8 2 -12 -4 -9 -6 3 -10 10 -10 16 0 14 7 11 14 -7z m256 -11 c0 -20 -24
-11 -28 10 -2 12 1 15 12 11 9 -3 16 -13 16 -21z m-153 -100 c13 -19 12 -23
-6 -40 -18 -16 -19 -24 -11 -53 5 -18 8 -35 6 -38 -11 -11 -71 142 -61 158 8
14 57 -4 72 -27z m171 16 c-2 -6 -8 -10 -13 -10 -5 0 -11 4 -13 10 -2 6 4 11
13 11 9 0 15 -5 13 -11z m12 -48 c14 -27 13 -41 -4 -41 -20 0 -39 27 -32 45 8
21 23 19 36 -4z m162 -151 c3 -16 0 -34 -6 -40 -7 -7 -5 -10 7 -10 21 0 22 -8
1 -31 -8 -9 -19 -48 -23 -86 -8 -64 -8 -65 -10 -19 -1 58 -8 56 -20 -5 l-9
-44 -1 45 c-2 84 28 220 49 220 4 0 10 -13 12 -30z m-1112 -9 c0 -5 -7 -11
-15 -15 -9 -3 -15 0 -15 9 0 8 7 15 15 15 8 0 15 -4 15 -9z m696 -17 c10 -38
-11 -77 -37 -69 -11 4 -26 1 -34 -5 -12 -10 -15 -9 -15 4 0 9 14 25 30 34 24
13 29 22 25 40 -4 15 -1 22 10 22 8 0 18 -12 21 -26z m110 -48 c9 -10 23 -35
31 -55 8 -20 32 -72 52 -116 25 -52 38 -96 39 -125 1 -47 -15 -87 -25 -62 -3
7 -16 18 -30 23 -25 9 -25 10 -8 29 18 20 18 21 -3 43 -12 13 -22 31 -22 41 0
15 -13 52 -50 141 -5 11 -11 36 -13 55 -3 19 -8 46 -12 60 -6 24 -6 24 9 5 9
-11 24 -28 32 -39z m-118 -78 c4 -22 -30 -31 -62 -17 -24 11 -33 29 -21 41 12
11 80 -8 83 -24z m852 -73 c0 -22 -3 -24 -20 -15 -21 11 -17 40 6 40 8 0 14
-10 14 -25z m-126 -40 c9 -14 22 -25 30 -25 18 0 50 -37 38 -44 -6 -3 -17 -3
-26 0 -9 3 -16 2 -16 -2 1 -13 37 -54 47 -54 13 0 43 -72 43 -101 -1 -21 -2
-22 -13 -8 -8 10 -26 15 -50 15 -32 -2 -42 3 -60 29 -12 16 -22 44 -23 60 0
17 -4 58 -9 93 -6 52 -5 62 8 62 8 0 22 -11 31 -25z m-134 -45 c0 -13 -7 -20
-20 -20 -25 0 -26 16 -2 29 23 14 22 14 22 -9z m-859 -66 c24 -26 24 -26 29
-204 0 -8 -3 -41 -6 -72 -4 -37 -2 -69 6 -88 10 -23 10 -33 1 -44 -9 -11 -10
-38 -2 -110 14 -124 14 -189 0 -181 -12 8 -25 41 -45 115 -10 37 -17 124 -20
265 -3 116 -8 233 -12 260 -13 88 3 108 49 59z m839 -20 c0 -29 -16 -40 -35
-24 -24 20 -18 48 10 48 19 0 25 -6 25 -24z m0 -66 c0 -7 -7 -21 -15 -32 -8
-10 -19 -44 -26 -75 -12 -60 -27 -96 -36 -87 -11 11 49 206 63 206 8 0 14 -6
14 -12z m96 -4 c-3 -9 -6 -20 -6 -25 0 -6 -4 -7 -10 -4 -16 10 -12 45 6 45 11
0 14 -5 10 -16z m-428 -53 c3 -8 -1 -12 -9 -9 -7 2 -15 10 -17 17 -3 8 1 12 9
9 7 -2 15 -10 17 -17z m472 -37 c0 -18 -34 -36 -54 -28 -19 7 -20 11 -5 27 16
17 59 18 59 1z m-541 -137 c10 3 22 0 25 -6 9 -14 46 -14 46 -1 0 18 35 11 48
-10 15 -25 29 -26 35 -2 3 9 5 -25 6 -76 0 -52 -3 -92 -8 -90 -10 4 -152 131
-187 168 -17 17 -20 26 -11 32 6 4 15 1 19 -7 5 -7 16 -11 27 -8z m318 1 c-3
-8 -6 -5 -6 6 -1 11 2 17 5 13 3 -3 4 -12 1 -19z m-567 -85 c0 -13 -4 -23 -8
-23 -5 0 -9 16 -9 35 0 23 3 31 9 23 4 -7 8 -23 8 -35z m560 37 c0 -5 -5 -10
-11 -10 -5 0 -7 5 -4 10 3 6 8 10 11 10 2 0 4 -4 4 -10z m-1343 -200 c-12 -54
-33 -68 -30 -20 4 66 6 87 14 115 5 17 12 48 16 70 7 36 8 32 10 -35 2 -41 -3
-100 -10 -130z m2273 138 c0 -5 -11 -8 -24 -8 -14 0 -38 -12 -55 -26 -44 -37
-38 -12 9 37 39 41 41 42 55 23 8 -10 15 -22 15 -26z m-1508 -22 c8 5 9 -13 5
-57 -15 -150 -25 -199 -42 -199 -17 0 -22 33 -12 90 4 25 12 79 19 120 6 41
13 67 16 57 2 -9 8 -14 14 -11z m1522 -35 c8 -13 -20 -33 -40 -29 -27 5 -28
26 -2 31 13 2 26 5 30 6 4 0 9 -3 12 -8z"/>
<path d="M1230 361 c0 -5 7 -12 16 -15 14 -5 15 -4 4 9 -14 17 -20 19 -20 6z"/>
<path d="M4095 2511 c-3 -5 -1 -12 5 -16 5 -3 10 1 10 9 0 18 -6 21 -15 7z"/>
<path d="M7462 2500 c0 -14 2 -19 5 -12 2 6 2 18 0 25 -3 6 -5 1 -5 -13z"/>
<path d="M8361 2484 c0 -11 3 -14 6 -6 3 7 2 16 -1 19 -3 4 -6 -2 -5 -13z"/>
<path d="M7451 2444 c0 -11 3 -14 6 -6 3 7 2 16 -1 19 -3 4 -6 -2 -5 -13z"/>
<path d="M4708 2438 c-34 -26 -168 -413 -168 -485 0 -10 -7 -31 -16 -48 -17
-32 -23 -132 -9 -155 5 -9 17 6 36 46 20 44 37 64 64 78 46 25 87 108 148 301
66 208 65 201 26 241 -35 36 -55 42 -81 22z"/>
<path d="M6934 2400 c3 -19 8 -89 12 -155 6 -117 15 -155 34 -155 5 0 27 17
50 38 52 50 53 81 2 153 -21 30 -43 65 -50 79 -7 14 -22 36 -33 50 l-20 25 5
-35z"/>
<path d="M5200 2399 c0 -5 5 -7 10 -4 6 3 10 8 10 11 0 2 -4 4 -10 4 -5 0 -10
-5 -10 -11z"/>
<path d="M3980 2390 c0 -5 5 -10 10 -10 6 0 10 5 10 10 0 6 -4 10 -10 10 -5 0
-10 -4 -10 -10z"/>
<path d="M5 2370 c3 -5 8 -10 11 -10 2 0 4 5 4 10 0 6 -5 10 -11 10 -5 0 -7
-4 -4 -10z"/>
<path d="M2950 2345 c0 -19 5 -35 10 -35 6 0 10 16 10 35 0 19 -4 35 -10 35
-5 0 -10 -16 -10 -35z"/>
<path d="M8390 2354 c0 -8 5 -12 10 -9 6 4 8 11 5 16 -9 14 -15 11 -15 -7z"/>
<path d="M4847 2312 c-24 -26 -57 -128 -57 -176 l0 -40 50 75 c51 76 63 125
37 148 -11 8 -18 7 -30 -7z"/>
<path d="M4573 2304 c-14 -25 -53 -167 -47 -173 3 -3 9 0 15 6 12 12 40 113
31 113 -4 0 -1 4 6 9 8 5 12 21 10 37 -3 28 -4 28 -15 8z"/>
<path d="M6058 2242 c-14 -42 -29 -99 -33 -127 -4 -27 -10 -54 -14 -60 -21
-26 -19 -56 3 -71 13 -8 31 -30 42 -49 10 -19 22 -35 27 -35 26 0 36 36 40
150 1 41 -24 254 -31 262 -4 4 -19 -28 -34 -70z"/>
<path d="M3481 2294 c0 -11 3 -14 6 -6 3 7 2 16 -1 19 -3 4 -6 -2 -5 -13z"/>
<path d="M2822 2270 c0 -14 2 -19 5 -12 2 6 2 18 0 25 -3 6 -5 1 -5 -13z"/>
<path d="M70 2270 c-12 -7 -12 -19 -1 -77 14 -79 32 -133 43 -133 4 0 8 -15 8
-34 0 -25 -5 -35 -20 -39 -14 -4 -20 0 -20 12 0 10 -3 21 -7 25 -4 3 -22 53
-39 109 l-33 102 0 -320 -1 -320 52 -33 c28 -18 53 -31 55 -28 2 2 17 37 33
77 15 41 49 129 76 196 46 119 47 122 31 155 -8 18 -19 51 -23 73 -3 22 -16
58 -27 80 -12 22 -20 43 -19 47 1 4 -11 31 -26 60 -27 53 -51 67 -82 48z m40
-322 c0 -19 -2 -20 -10 -8 -13 19 -13 30 0 30 6 0 10 -10 10 -22z"/>
<path d="M4412 2255 c0 -16 2 -22 5 -12 2 9 2 23 0 30 -3 6 -5 -1 -5 -18z"/>
<path d="M3092 2235 c0 -16 2 -22 5 -12 2 9 2 23 0 30 -3 6 -5 -1 -5 -18z"/>
<path d="M8421 2224 c0 -11 3 -14 6 -6 3 7 2 16 -1 19 -3 4 -6 -2 -5 -13z"/>
<path d="M4097 2203 c-3 -15 -1 -36 3 -47 7 -16 9 -9 9 27 1 52 -4 61 -12 20z"/>
<path d="M4316 2180 c-4 -25 -9 -68 -10 -97 -1 -28 -7 -58 -14 -65 -10 -13
-20 -171 -22 -353 0 -54 -4 -85 -9 -76 -9 15 -18 4 -16 -19 1 -8 3 -24 4 -35
1 -17 3 -18 11 -5 8 12 10 10 10 -8 0 -13 -4 -20 -10 -17 -5 3 -11 0 -11 -7
-1 -7 -4 1 -8 17 -5 22 -11 -7 -24 -105 -10 -74 -23 -165 -28 -202 -11 -85
-12 -145 0 -152 10 -7 45 64 56 114 4 19 16 51 26 70 10 19 30 62 45 94 14 32
37 70 50 83 13 13 24 35 24 48 0 13 5 27 11 31 18 11 59 107 59 139 0 23 3 27
10 15 7 -11 10 -7 10 17 0 17 -16 68 -35 114 -20 45 -35 89 -34 98 2 29 -1 38
-26 75 -14 21 -23 42 -19 47 3 5 -2 21 -11 35 -10 15 -20 59 -24 107 -7 80 -7
81 -15 37z m4 -196 c0 -8 -4 -14 -10 -14 -5 0 -10 9 -10 21 0 11 5 17 10 14 6
-3 10 -13 10 -21z"/>
<path d="M2956 2200 c-4 -9 -2 -34 3 -55 5 -22 10 -33 11 -25 1 8 3 24 4 36 1
11 -1 29 -5 40 -6 16 -8 17 -13 4z"/>
<path d="M10213 2148 c-24 -70 -29 -108 -15 -108 19 0 43 77 40 126 l-3 49
-22 -67z"/>
<path d="M4131 2184 c0 -11 3 -14 6 -6 3 7 2 16 -1 19 -3 4 -6 -2 -5 -13z"/>
<path d="M8430 2168 c0 -9 5 -20 10 -23 13 -8 13 5 0 25 -8 13 -10 13 -10 -2z"/>
<path d="M8470 2159 c0 -31 12 -79 21 -79 5 0 9 10 9 23 -1 26 -29 81 -30 56z"/>
<path d="M5537 2143 c-4 -3 -7 -13 -7 -21 0 -12 3 -12 15 -2 8 7 15 16 15 21
0 11 -14 12 -23 2z"/>
<path d="M5090 2069 c0 -22 4 -38 8 -35 8 5 4 76 -4 76 -2 0 -4 -18 -4 -41z"/>
<path d="M6697 2103 c-10 -10 -8 -43 2 -43 9 0 21 24 21 41 0 11 -14 12 -23 2z"/>
<path d="M3055 2090 c-3 -5 -1 -10 4 -10 6 0 11 5 11 10 0 6 -2 10 -4 10 -3 0
-8 -4 -11 -10z"/>
<path d="M8461 2075 c0 -16 7 -46 14 -65 l14 -35 -6 45 c-3 25 -9 54 -14 65
-6 17 -8 15 -8 -10z"/>
<path d="M8490 2065 c0 -5 5 -17 10 -25 5 -8 10 -10 10 -5 0 6 -5 17 -10 25
-5 8 -10 11 -10 5z"/>
<path d="M2690 2053 c0 -3 7 -11 15 -19 13 -14 15 -13 15 4 0 10 -7 19 -15 19
-8 0 -15 -2 -15 -4z"/>
<path d="M2740 2039 c0 -5 5 -7 10 -4 6 3 10 8 10 11 0 2 -4 4 -10 4 -5 0 -10
-5 -10 -11z"/>
<path d="M6700 2040 c0 -5 5 -10 10 -10 6 0 10 5 10 10 0 6 -4 10 -10 10 -5 0
-10 -4 -10 -10z"/>
<path d="M2102 2005 c0 -16 2 -22 5 -12 2 9 2 23 0 30 -3 6 -5 -1 -5 -18z"/>
<path d="M6690 1999 c0 -5 5 -7 10 -4 6 3 10 8 10 11 0 2 -4 4 -10 4 -5 0 -10
-5 -10 -11z"/>
<path d="M6652 1950 c0 -19 2 -27 5 -17 2 9 2 25 0 35 -3 9 -5 1 -5 -18z"/>
<path d="M6690 1938 l1 -43 15 28 c16 29 13 57 -6 57 -5 0 -10 -19 -10 -42z"/>
<path d="M8521 1960 c-1 -26 25 -115 30 -105 3 6 -2 35 -12 65 -10 30 -18 48
-18 40z"/>
<path d="M5429 1935 c-14 -7 -34 -31 -44 -52 -11 -21 -26 -46 -33 -55 -14 -16
-8 -58 7 -58 14 0 40 35 76 104 19 37 35 69 35 72 0 7 -14 4 -41 -11z"/>
<path d="M2682 1890 c0 -14 2 -19 5 -12 2 6 2 18 0 25 -3 6 -5 1 -5 -13z"/>
<path d="M6643 1893 c-18 -7 -16 -23 2 -23 8 0 15 7 15 15 0 8 -1 15 -2 14 -2
0 -9 -3 -15 -6z"/>
<path d="M1982 1845 c0 -16 2 -22 5 -12 2 9 2 23 0 30 -3 6 -5 -1 -5 -18z"/>
<path d="M5236 1794 c-9 -22 -8 -24 8 -18 20 8 29 34 12 34 -8 0 -17 -7 -20
-16z"/>
<path d="M2741 1754 c0 -11 3 -14 6 -6 3 7 2 16 -1 19 -3 4 -6 -2 -5 -13z"/>
<path d="M5301 1763 c0 -5 4 -17 9 -28 8 -18 9 -17 9 8 1 15 -3 27 -9 27 -5 0
-10 -3 -9 -7z"/>
<path d="M5430 1750 c-12 -7 -12 -12 -3 -21 10 -10 14 -9 19 5 8 22 2 27 -16
16z"/>
<path d="M8443 1705 c0 -22 2 -30 4 -17 2 12 2 30 0 40 -3 9 -5 -1 -4 -23z"/>
<path d="M1570 1723 c0 -4 13 -17 28 -28 l27 -19 -16 24 c-16 24 -39 38 -39
23z"/>
<path d="M6361 1714 c0 -11 3 -14 6 -6 3 7 2 16 -1 19 -3 4 -6 -2 -5 -13z"/>
<path d="M7192 1697 c-14 -17 2 -42 22 -34 20 8 21 47 2 47 -7 0 -18 -6 -24
-13z"/>
<path d="M2736 1683 c-4 -9 -2 -21 4 -27 7 -7 10 -2 10 17 0 31 -5 34 -14 10z"/>
<path d="M6845 1659 c-4 -6 -5 -12 -2 -15 2 -3 7 2 10 11 7 17 1 20 -8 4z"/>
<path d="M6806 1579 c-8 -43 -8 -69 2 -69 5 0 9 23 11 50 2 57 -3 65 -13 19z"/>
<path d="M6841 1573 c0 -16 4 -37 9 -48 6 -15 9 -8 9 28 1 26 -3 47 -9 47 -5
0 -10 -12 -9 -27z"/>
<path d="M6231 1564 c0 -11 3 -14 6 -6 3 7 2 16 -1 19 -3 4 -6 -2 -5 -13z"/>
<path d="M6810 1440 c0 -11 2 -20 4 -20 2 0 6 9 9 20 3 11 1 20 -4 20 -5 0 -9
-9 -9 -20z"/>
<path d="M6850 1400 c0 -19 3 -21 12 -12 9 9 9 15 0 24 -9 9 -12 7 -12 -12z"/>
<path d="M9953 1355 c-10 -10 -10 -15 0 -23 9 -8 12 -4 13 14 1 13 1 24 0 24
0 -1 -6 -7 -13 -15z"/>
<path d="M9863 1328 c-22 -26 -37 -48 -30 -48 3 0 17 16 31 35 30 39 30 46 -1
13z"/>
<path d="M5155 1330 c-3 -5 -1 -10 4 -10 6 0 11 5 11 10 0 6 -2 10 -4 10 -3 0
-8 -4 -11 -10z"/>
<path d="M200 1311 c0 -12 5 -21 10 -21 6 0 10 6 10 14 0 8 -4 18 -10 21 -5 3
-10 -3 -10 -14z"/>
<path d="M2740 1248 c0 -17 6 -23 25 -24 16 -1 25 3 25 13 0 9 -6 13 -15 9 -9
-3 -15 0 -15 9 0 8 -4 15 -10 15 -5 0 -10 -10 -10 -22z"/>
<path d="M211 1224 c0 -11 3 -14 6 -6 3 7 2 16 -1 19 -3 4 -6 -2 -5 -13z"/>
<path d="M6850 1186 c0 -25 5 -48 10 -51 6 -4 10 11 10 39 0 25 -4 48 -10 51
-6 4 -10 -11 -10 -39z"/>
<path d="M480 1142 c0 -10 22 -32 32 -32 15 0 8 15 -12 28 -11 7 -20 9 -20 4z"/>
<path d="M2280 1130 c0 -5 5 -10 10 -10 6 0 10 5 10 10 0 6 -4 10 -10 10 -5 0
-10 -4 -10 -10z"/>
<path d="M2125 1070 c3 -5 8 -10 11 -10 2 0 4 5 4 10 0 6 -5 10 -11 10 -5 0
-7 -4 -4 -10z"/>
<path d="M6852 1060 c0 -14 2 -19 5 -12 2 6 2 18 0 25 -3 6 -5 1 -5 -13z"/>
<path d="M485 1050 c-3 -5 -1 -10 4 -10 6 0 11 5 11 10 0 6 -2 10 -4 10 -3 0
-8 -4 -11 -10z"/>
<path d="M2150 1035 c0 -8 5 -15 10 -15 6 0 10 7 10 15 0 8 -4 15 -10 15 -5 0
-10 -7 -10 -15z"/>
<path d="M2230 1038 c0 -7 12 -21 25 -31 24 -17 25 -17 25 2 0 11 -9 25 -19
31 -25 13 -31 13 -31 -2z"/>
<path d="M4066 1003 c-9 -26 -16 -60 -16 -77 0 -17 -4 -37 -9 -45 -14 -22 -21
3 -10 41 11 40 7 80 -8 85 -13 5 -30 -56 -38 -137 -4 -36 -12 -71 -17 -77 -12
-16 -35 -129 -48 -241 -11 -94 -32 -175 -65 -247 -30 -65 -76 -208 -85 -263
l-7 -43 81 3 81 3 7 73 c4 40 19 119 33 175 14 56 25 113 25 127 0 49 69 321
93 365 12 22 56 219 57 252 0 15 -5 21 -14 17 -9 -3 -17 3 -21 15 -10 33 -22
25 -39 -26z"/>
<path d="M6852 1008 c2 -6 10 -14 16 -16 7 -2 10 2 6 12 -7 18 -28 22 -22 4z"/>
<path d="M9810 849 c0 -5 5 -7 10 -4 6 3 10 8 10 11 0 2 -4 4 -10 4 -5 0 -10
-5 -10 -11z"/>
<path d="M692 838 c5 -15 28 -23 28 -10 0 5 -7 13 -16 16 -10 4 -14 1 -12 -6z"/>
<path d="M53 718 c-6 -7 -10 -30 -9 -50 1 -21 -2 -38 -6 -38 -4 0 -8 -18 -8
-40 0 -29 -4 -40 -15 -40 -18 0 -20 -16 -2 -23 8 -4 9 -8 2 -14 -6 -4 -12 -19
-12 -32 -3 -33 1 -27 45 84 28 71 38 110 35 133 -6 34 -14 40 -30 20z"/>
<path d="M110 708 c0 -16 5 -28 10 -28 13 0 13 20 0 40 -8 12 -10 9 -10 -12z"/>
<path d="M81 548 c-8 -32 -17 -55 -22 -53 -4 3 -5 -5 -1 -17 4 -16 2 -19 -8
-13 -10 6 -12 2 -7 -15 4 -14 -4 -47 -19 -83 -24 -62 -34 -131 -13 -94 5 9 7
22 4 27 -3 6 -1 10 5 10 6 0 9 4 6 9 -3 4 5 30 18 57 32 67 58 164 54 200 -3
24 -6 20 -17 -28z"/>
<path d="M3848 435 c-3 -14 -1 -25 3 -25 5 0 9 11 9 25 0 14 -2 25 -4 25 -2 0
-6 -11 -8 -25z"/>
<path d="M9148 173 c-8 -10 -21 -34 -28 -53 -7 -19 -21 -46 -30 -60 -30 -46
-32 -60 -6 -60 18 0 25 7 29 27 3 16 16 58 30 96 14 37 24 67 23 67 -2 0 -10
-8 -18 -17z"/>
</g>
</svg>
