<?xml version="1.0" standalone="no"?>
<!DOCTYPE svg PUBLIC "-//W3C//DTD SVG 20010904//EN"
 "http://www.w3.org/TR/2001/REC-SVG-20010904/DTD/svg10.dtd">
<svg version="1.0" xmlns="http://www.w3.org/2000/svg"
 width="1024.000000pt" height="768.000000pt" viewBox="0 0 1024.000000 768.000000"
 preserveAspectRatio="xMidYMid meet">

<g transform="translate(0.000000,768.000000) scale(0.100000,-0.100000)"
fill="#000000" stroke="none">
<path d="M0 3840 c0 -2703 3 -3840 11 -3840 5 0 8 4 5 9 -8 12 21 34 34 26 5
-3 10 -13 10 -21 0 -12 34 -14 215 -14 186 0 215 2 215 15 0 9 7 18 15 21 9 4
15 19 15 39 0 34 20 58 58 70 48 14 36 -66 -13 -85 -26 -10 -29 -17 -19 -44 6
-15 379 -16 4128 -16 2266 0 4126 4 4131 8 6 4 25 26 44 50 18 23 37 42 41 42
5 0 20 -21 33 -47 l23 -48 647 -3 647 -2 0 1425 c0 1392 0 1425 -19 1425 -10
0 -49 -9 -87 -21 -82 -25 -129 -67 -120 -104 20 -80 20 -75 -8 -75 -14 0 -43
9 -65 21 -36 18 -42 19 -73 6 -92 -40 -189 -156 -230 -274 -10 -29 -29 -68
-42 -88 -14 -20 -28 -57 -31 -83 -3 -26 -11 -68 -17 -93 -8 -34 -8 -61 0 -100
6 -30 22 -107 36 -171 22 -109 47 -170 80 -197 10 -9 11 -21 3 -56 -13 -56 4
-178 28 -205 9 -9 34 -20 55 -24 33 -5 43 -13 64 -49 38 -63 58 -126 47 -146
-5 -9 -27 -25 -48 -36 -34 -18 -38 -25 -41 -63 -3 -35 5 -61 38 -128 34 -69
50 -91 98 -127 31 -24 67 -49 79 -56 27 -14 38 -34 47 -83 6 -35 5 -38 -16
-38 -13 0 -59 27 -103 60 -44 32 -90 66 -103 75 -12 9 -31 33 -41 54 -27 52
-79 95 -146 120 -30 12 -60 21 -65 21 -14 0 -12 16 9 79 24 71 51 246 51 333
0 77 -27 161 -65 202 -19 20 -34 26 -66 26 -30 0 -54 8 -81 26 -21 15 -38 28
-38 30 0 2 15 10 33 17 56 24 61 36 63 180 1 73 6 149 12 169 6 24 7 53 1 79
-10 45 14 167 45 228 9 17 19 52 22 78 5 35 15 57 39 83 18 19 42 54 54 77 11
23 48 72 81 110 51 57 64 80 85 148 36 118 39 145 20 195 -9 25 -20 59 -26 76
-10 35 -36 61 -99 96 -45 26 -101 78 -84 78 5 0 2 5 -6 10 -22 15 3 12 53 -5
24 -8 65 -17 91 -20 48 -6 139 -45 151 -65 3 -6 25 -20 48 -32 23 -11 54 -31
69 -43 15 -13 45 -26 68 -30 22 -4 55 -17 75 -30 19 -13 42 -25 52 -27 17 -3
18 98 21 2310 l2 2312 -4518 0 -4517 0 -13 -52 c-8 -29 -16 -89 -19 -133 -4
-70 -2 -88 22 -150 20 -54 25 -80 20 -112 -8 -54 -47 -103 -82 -103 -36 0
-153 102 -250 219 -45 53 -53 69 -53 103 0 34 7 47 40 80 35 35 44 40 72 34
103 -20 128 -19 153 4 13 12 26 34 30 48 3 15 8 35 11 45 5 16 -27 17 -565 17
l-571 0 0 -3840z m656 3319 c29 -24 16 -39 -36 -39 -38 0 -54 5 -70 22 -11 12
-20 26 -20 31 0 13 108 1 126 -14z m-67 -97 c41 -20 79 -44 85 -54 15 -24 -10
-48 -51 -48 -18 0 -48 -6 -66 -13 -18 -8 -62 -20 -100 -27 -59 -11 -70 -10
-92 4 -42 27 -28 67 43 131 64 56 83 57 181 7z m5524 -278 c19 -20 -83 -104
-127 -104 -15 0 -43 -7 -63 -15 -63 -27 -113 -15 -113 25 0 29 55 66 140 94
22 7 156 7 163 0z m1911 -103 c8 -12 -20 -22 -39 -15 -19 8 -9 24 15 24 10 0
21 -4 24 -9z m-7258 -186 c2 -148 -1 -165 -25 -165 -42 0 -111 124 -111 202 0
32 77 98 110 95 l25 -2 1 -130z m6944 126 c0 -12 -20 -25 -27 -18 -7 7 6 27
18 27 5 0 9 -4 9 -9z m-2000 -76 c-6 -8 -20 -17 -29 -20 -10 -3 -33 -26 -50
-51 -22 -30 -50 -53 -85 -70 -28 -13 -63 -32 -78 -41 -22 -14 -29 -15 -42 -4
-27 22 -18 41 28 61 24 11 49 27 57 36 15 18 73 48 110 57 14 4 36 16 49 27
28 24 60 29 40 5z m-1180 -179 c0 -15 -18 -31 -26 -23 -7 7 7 37 17 37 5 0 9
-6 9 -14z m-451 -485 c21 -13 6 -39 -31 -54 -18 -8 -39 -25 -47 -39 -17 -32
-89 -74 -103 -60 -18 18 20 70 84 117 65 47 74 50 97 36z m-648 -92 c29 -29
18 -75 -29 -116 -103 -91 -129 -110 -175 -135 -44 -25 -87 -36 -87 -24 0 10
84 142 106 166 12 14 34 44 48 68 39 63 98 80 137 41z m4853 -151 c18 -27 37
-136 25 -144 -21 -13 -83 120 -72 154 7 19 31 14 47 -10z m-1154 -344 c0 -7
-47 -90 -78 -136 -29 -44 -59 -54 -40 -13 6 14 14 25 18 25 4 0 19 24 35 53
15 28 32 58 38 65 10 12 27 17 27 6z m1990 -381 c16 -46 26 -58 49 -61 33 -5
25 -23 -40 -87 -62 -62 -125 -156 -155 -235 -9 -25 -47 -88 -84 -140 -140
-199 -187 -330 -142 -402 32 -52 66 -79 116 -91 l47 -12 -26 -35 c-21 -27 -25
-43 -21 -69 7 -48 67 -133 120 -171 80 -58 64 -82 -22 -34 -26 15 -92 72 -147
128 -87 88 -107 104 -155 119 l-55 17 1 127 c1 71 6 144 11 163 6 22 6 49 0
73 -9 34 -6 44 41 125 27 48 57 102 67 121 9 18 34 52 56 76 21 23 50 67 63
98 17 36 41 68 71 94 55 45 91 102 100 158 8 46 27 65 67 65 22 0 31 -6 38
-27z m-44 -958 c-11 -8 -27 -15 -37 -15 -9 0 -33 -11 -53 -25 -20 -14 -41 -25
-46 -25 -14 0 -12 27 3 37 23 15 102 40 127 41 24 1 24 1 6 -13z m-7788 -21
l37 -15 -33 -30 c-20 -18 -42 -29 -55 -27 -28 4 -46 50 -27 72 16 20 31 20 78
0z m7221 -73 c10 -7 0 -14 -39 -25 -63 -19 -60 -18 -60 -7 0 32 66 53 99 32z
m966 -467 c26 -21 58 -46 71 -55 l24 -16 -25 -11 c-38 -17 -53 -15 -135 19
-94 40 -130 65 -130 91 0 19 4 20 75 16 69 -5 78 -8 120 -44z m-967 -511 c5
-18 -66 -16 -98 2 -24 14 -22 15 34 12 37 -1 61 -7 64 -14z m-355 -959 c11
-11 -3 -24 -18 -18 -8 4 -12 10 -9 15 6 11 18 12 27 3z m242 -104 c3 -5 -1
-10 -9 -10 -9 0 -16 5 -16 10 0 6 4 10 9 10 6 0 13 -4 16 -10z m124 -181 c42
-15 24 -29 -36 -29 -31 0 -43 4 -43 14 0 26 32 31 79 15z m-6119 -64 c19 -23
2 -87 -45 -166 -24 -40 -55 -104 -70 -143 -51 -133 -45 -123 -57 -102 -8 15
-7 33 5 70 9 28 19 65 22 81 6 31 63 171 97 238 20 40 29 45 48 22z m5670
-247 c89 -108 113 -149 95 -166 -10 -11 -135 138 -135 162 0 19 25 21 40 4z
m-5314 -354 c47 -23 44 -41 -6 -34 -21 3 -51 31 -44 41 7 12 11 11 50 -7z
m6149 -242 c0 -8 -18 -20 -40 -28 -51 -17 -75 -47 -75 -93 0 -20 -5 -43 -10
-51 -8 -13 -11 -12 -24 5 -27 37 -30 74 -7 99 12 12 21 28 21 34 0 7 9 21 21
33 16 16 30 19 67 17 31 -2 47 -8 47 -16z m-105 -269 c0 -7 -4 -13 -9 -13 -10
0 -21 25 -21 48 1 15 3 14 15 -2 8 -11 15 -26 15 -33z m-7876 -142 c8 -12 -42
-71 -60 -71 -21 0 -17 15 12 49 27 32 39 37 48 22z m6132 -76 c21 -32 9 -53
-17 -29 -20 18 -26 54 -9 54 5 0 17 -11 26 -25z"/>
</g>
</svg>
