<svg version="1.0" xmlns="http://www.w3.org/2000/svg"
 width="1024.000000pt" height="768.000000pt" viewBox="0 0 1024.000000 768.000000"
 preserveAspectRatio="xMidYMid meet">

<g transform="translate(0.000000,768.000000) scale(0.100000,-0.100000)"
fill="#000000" stroke="none">
<path d="M520 7560 l0 -120 -227 -2 c-195 -3 -228 -5 -228 -18 0 -13 45 -15
333 -18 l332 -2 -2 -353 -3 -352 -330 -5 c-284 -4 -330 -7 -330 -20 0 -13 34
-16 229 -20 l229 -5 -2 -340 c-1 -187 -5 -343 -9 -347 -4 -4 -106 -9 -226 -10
-165 -2 -220 -6 -224 -15 -3 -10 25 -13 115 -13 65 0 124 -4 131 -8 9 -7 12
-86 10 -363 l-3 -354 -123 -5 c-74 -3 -121 -9 -120 -15 2 -6 86 -10 226 -10
l222 0 2 -337 c1 -186 2 -346 2 -355 1 -17 -18 -18 -229 -23 -177 -4 -230 -8
-230 -18 0 -10 52 -13 240 -13 132 0 282 -3 333 -6 l92 -6 -2 -351 -3 -351
-330 -3 c-283 -2 -330 -4 -333 -17 -3 -13 28 -15 227 -15 126 0 231 -3 233 -7
2 -5 1 -165 -2 -356 l-5 -348 -225 -2 c-192 -2 -225 -4 -225 -17 0 -12 23 -16
125 -20 l125 -5 0 -350 0 -350 -127 -3 c-104 -2 -128 -5 -128 -17 0 -12 39
-15 247 -17 l248 -3 3 -357 2 -358 -247 -2 c-185 -2 -247 -6 -250 -15 -4 -10
73 -13 349 -15 l353 -3 0 -350 0 -350 -350 -5 c-302 -4 -350 -7 -350 -20 0
-13 35 -15 245 -17 l245 -1 3 -341 2 -341 375 0 375 0 2 337 3 338 345 5 c197
3 350 1 358 -4 10 -7 12 -80 10 -342 l-3 -334 377 0 378 0 2 340 3 341 350 0
350 0 3 -341 2 -340 375 0 375 0 2 293 c1 160 0 311 -1 333 -1 23 2 45 8 48 7
5 547 9 699 6 9 0 12 -75 12 -340 l0 -340 375 0 375 0 2 340 3 341 345 0 345
0 3 -341 2 -340 380 0 380 0 0 334 c0 200 4 337 9 341 6 3 163 7 350 8 276 2
342 -1 346 -11 3 -8 5 -162 5 -343 l0 -329 380 0 380 0 0 339 c0 187 3 341 8
343 4 2 161 2 350 0 l342 -3 0 -339 0 -340 386 0 386 0 -2 333 c-1 182 -2 337
-1 343 1 8 21 10 66 6 l65 -5 0 392 0 392 -60 -2 c-33 -1 -63 0 -66 4 -3 3 -6
165 -6 359 l0 353 66 3 c50 2 66 6 66 17 0 13 -29 15 -177 15 -98 0 -184 4
-191 8 -9 7 -12 84 -10 353 l3 344 188 3 c181 2 187 3 187 23 0 19 -5 20 -82
18 l-83 -2 0 354 0 354 83 3 82 3 0 389 0 389 -86 3 -86 3 2 344 c0 189 3 348
6 353 3 4 41 8 85 8 63 0 79 3 79 15 0 12 -30 15 -187 17 l-188 3 -3 349 c-2
249 1 353 9 362 9 11 51 14 190 14 150 0 179 2 179 15 0 11 -18 15 -82 17
l-83 3 -3 348 c-2 273 0 347 10 349 7 1 45 2 83 2 l70 1 3 393 2 392 -85 0
-85 0 0 120 0 120 -375 0 -374 0 -3 -117 -3 -118 -265 -5 c-146 -3 -305 -3
-355 0 l-90 5 -3 118 -3 117 -374 0 -375 0 0 -120 0 -119 -277 -3 c-153 -2
-311 -2 -350 0 l-73 3 0 119 0 120 -380 0 -380 0 -1 -62 c0 -35 0 -86 1 -114
1 -29 -2 -54 -7 -57 -8 -5 -413 -10 -615 -8 l-88 1 0 120 0 120 -380 0 -380 0
0 -120 0 -120 -182 -1 c-192 -2 -249 -2 -415 0 l-103 1 0 120 0 120 -385 0
-385 0 0 -120 0 -120 -232 -1 c-128 0 -246 -1 -263 -1 -16 0 -69 0 -117 1
l-88 1 0 120 0 120 -380 0 -380 0 0 -120 0 -120 -205 -1 c-113 0 -230 -1 -260
-1 -30 0 -95 1 -145 1 l-90 1 0 120 0 120 -385 0 -385 0 0 -120z m1675 -515
l0 -350 -352 -3 -353 -2 0 348 c0 192 3 352 7 355 4 4 162 6 352 5 l346 -3 0
-350z m1467 14 c2 -187 -1 -347 -5 -355 -7 -12 -64 -14 -352 -14 -189 0 -345
3 -347 8 -2 4 -2 163 0 355 l3 347 349 0 349 0 3 -341z m1461 327 c8 -20 9
-640 1 -671 l-6 -25 -347 0 -346 0 -3 345 c-2 189 -1 349 3 355 4 6 124 10
350 10 284 0 344 -2 348 -14z m1469 -332 c2 -208 -1 -349 -6 -355 -6 -5 -150
-9 -353 -9 l-343 0 0 355 0 355 350 0 349 0 3 -346z m1463 -9 l0 -350 -346 -3
-346 -2 -7 42 c-8 49 -7 611 1 646 l5 22 347 -2 346 -3 0 -350z m1465 0 l0
-355 -350 0 -350 0 0 355 0 355 350 0 350 0 0 -355z m-7542 -395 c10 0 12 -73
10 -347 l-3 -348 -347 -3 -348 -2 0 348 c0 192 2 351 4 353 3 3 571 2 684 -1z
m1470 -5 c2 -2 4 -152 3 -332 -1 -180 -1 -336 -1 -346 0 -16 -21 -17 -347 -15
l-348 3 -3 344 c-1 201 2 347 7 350 11 7 682 3 689 -4z m1465 5 c4 0 6 -156 5
-347 l-3 -348 -347 -3 c-275 -2 -348 0 -348 10 -3 282 2 683 9 687 6 4 540 5
684 1z m2930 0 c4 0 6 -156 5 -347 l-3 -348 -347 -3 -348 -2 0 348 c0 192 2
351 4 353 3 3 603 2 689 -1z m1210 1 l268 -1 -3 -347 -3 -348 -349 -3 c-265
-2 -351 1 -357 10 -11 18 -11 668 0 682 6 7 40 10 93 9 46 -1 204 -2 351 -2z
m-2665 -331 c1 -179 0 -335 -3 -348 l-5 -22 -348 2 -347 3 -3 348 -2 347 352
-2 353 -3 3 -325z m-4610 -767 l2 -363 -350 0 -350 0 0 359 c0 278 3 360 13
364 6 3 163 4 347 3 l335 -1 3 -362z m1460 359 c9 -7 12 -86 10 -363 l-3 -354
-348 0 -347 0 -3 358 c-1 231 2 358 8 361 19 8 670 6 683 -2z m1460 -4 c9 -9
12 -104 12 -365 l0 -353 -350 0 -350 0 0 359 c0 278 3 360 13 364 6 3 158 6
338 6 240 1 328 -2 337 -11z m1470 4 c9 -7 12 -86 10 -363 l-3 -354 -347 -3
-348 -2 -2 357 c-2 230 1 361 7 365 14 10 667 10 683 0z m1476 -9 c-1 -7 -2
-170 -2 -363 l-2 -350 -355 0 -355 0 0 353 c0 257 3 356 12 365 17 17 703 12
702 -5z m1450 11 c14 -5 16 -47 16 -365 l0 -359 -355 0 -355 0 0 358 c0 197 3
362 7 365 8 9 666 9 687 1z m-7109 -1109 l0 -350 -348 0 -349 0 1 349 c1 192
4 352 6 355 1 3 158 4 347 1 l343 -5 0 -350z m1465 348 c0 -5 1 -163 1 -353
l1 -345 -349 0 -348 0 -3 340 c-1 187 0 346 3 352 3 10 82 13 350 13 190 0
345 -3 345 -7z m1465 -348 l0 -350 -348 0 -347 0 -1 340 c0 187 0 346 0 353 1
10 74 12 349 10 l347 -3 0 -350z m1470 0 l0 -350 -352 -3 -353 -2 0 348 c0
192 3 352 7 355 4 4 162 6 352 5 l346 -3 0 -350z m1467 8 c2 -192 2 -351 0
-355 -2 -5 -160 -8 -353 -8 l-349 0 0 355 0 355 350 0 349 0 3 -347z m1463 -8
l0 -350 -349 -3 c-273 -2 -352 1 -358 10 -9 13 -9 662 0 686 3 10 80 12 356
10 l351 -3 0 -350z m-7125 -400 c14 -9 13 -682 -2 -691 -13 -8 -646 -17 -675
-9 l-23 5 0 349 c0 270 3 350 13 354 18 8 675 0 687 -8z m1466 2 c7 -7 5 -690
-2 -696 -11 -11 -681 -13 -688 -3 -9 14 -9 689 0 704 5 8 100 9 346 5 187 -3
342 -8 344 -10z m1465 -8 c12 -20 10 -677 -3 -685 -13 -8 -644 -17 -674 -10
l-24 6 0 350 c1 262 4 350 13 354 7 3 162 4 346 2 266 -3 335 -7 342 -17z
m1465 8 c7 -7 5 -689 -1 -696 -10 -9 -683 -13 -688 -3 -9 13 -10 690 -1 703 7
12 679 8 690 -4z m1472 3 c1 0 2 -157 2 -350 0 -192 -1 -350 -2 -351 -2 0
-157 -3 -345 -6 l-343 -6 -9 26 c-13 33 -10 666 3 686 7 11 67 12 350 8 187
-4 342 -6 344 -7z m1455 0 c4 0 7 -157 7 -349 0 -271 -3 -350 -12 -352 -7 -2
-164 -4 -348 -4 l-335 0 -3 345 c-1 190 0 351 3 358 4 10 73 12 342 8 186 -3
341 -5 346 -6z m-7525 -1093 c2 -273 0 -349 -10 -352 -7 -3 -165 -6 -350 -7
l-338 -3 -2 353 c-2 228 1 354 7 356 6 3 163 4 350 3 l340 -2 3 -348z m1454
348 c10 -4 13 -69 11 -343 -1 -185 -3 -343 -3 -349 0 -10 -77 -13 -350 -13
l-350 0 0 348 c0 192 3 352 7 355 7 8 665 10 685 2z m1462 -1 c14 -5 16 -46
16 -349 0 -206 -4 -346 -9 -350 -6 -3 -162 -6 -348 -6 l-338 0 -5 351 c-3 229
-2 351 5 354 16 7 662 7 679 0z m1481 -349 l0 -350 -350 0 -350 0 -3 353 -2
352 352 -2 353 -3 0 -350z m1466 351 c2 -2 2 -162 -1 -356 l-5 -351 -345 0
-345 0 -3 343 c-1 189 0 349 3 355 3 10 81 13 348 13 189 0 346 -2 348 -4z
m1464 -351 l0 -350 -348 -5 c-214 -3 -352 -1 -358 4 -10 11 -13 689 -2 699 4
4 164 6 357 5 l351 -3 0 -350z m-7533 -741 c2 -246 0 -348 -8 -355 -7 -5 -152
-8 -350 -7 l-339 3 -3 345 c-1 190 -1 349 2 355 2 6 124 9 349 7 l346 -3 3
-345z m1463 -9 l0 -350 -348 0 -348 0 0 348 c0 192 2 351 5 355 2 4 159 5 348
2 l343 -5 0 -350z m5863 2 l-3 -352 -335 -3 c-184 -1 -344 0 -355 2 -20 5 -20
12 -17 348 1 189 4 348 6 353 2 6 127 9 355 7 l351 -3 -2 -352z m-4400 1 l-3
-353 -345 0 -345 0 -3 353 -2 352 350 0 350 0 -2 -352z m1470 0 l-3 -353 -339
-3 c-187 -1 -343 1 -348 6 -6 6 -14 649 -9 695 1 4 159 7 351 7 l350 0 -2
-352z m1464 -3 l-2 -350 -352 0 -353 0 -3 340 c-1 187 0 346 3 353 3 10 79 12
356 10 l352 -3 -1 -350z m-5635 -391 l22 -6 0 -354 0 -353 -277 -3 c-152 -2
-313 -1 -357 2 l-80 5 -3 315 c-2 173 0 334 3 357 l6 43 332 0 c183 -1 342 -3
354 -6z m1481 -356 l2 -358 -355 0 c-195 0 -355 3 -355 8 -3 211 1 695 5 702
4 7 131 9 353 8 l347 -3 3 -357z m1470 0 l3 -357 -348 -3 c-281 -2 -350 0
-360 10 -17 20 -18 693 0 704 6 4 167 7 357 5 l345 -2 3 -357z m1446 354 c3
-5 6 -166 6 -358 l2 -349 -351 -3 -351 -2 0 353 c0 195 3 357 7 360 10 10 681
8 687 -1z m1471 -352 l0 -355 -350 0 -350 0 -3 349 c-2 273 1 351 10 358 7 4
166 7 353 5 l340 -2 0 -355z m1463 -2 l2 -358 -285 -1 c-157 0 -310 0 -340 0
-30 0 -59 0 -65 0 -11 1 -14 703 -3 714 4 4 160 6 347 5 l341 -3 3 -357z
m-7108 -743 l0 -355 -352 2 -353 3 -3 340 c-1 187 0 346 3 352 3 10 83 13 355
13 l350 0 0 -355z m1468 -2 l2 -353 -354 0 -355 0 -3 348 c-2 191 -2 350 0
355 2 4 162 6 355 5 l352 -3 3 -352z m1458 348 c5 -6 8 -147 6 -356 l-3 -345
-352 2 -352 3 -3 340 c-1 187 0 346 3 352 6 16 685 19 701 4z m1469 -346 l0
-350 -352 -3 -352 -2 -3 345 c-2 212 1 350 7 356 6 6 143 8 355 7 l345 -3 0
-350z m1467 348 c2 -5 2 -164 0 -355 l-3 -348 -354 0 -355 0 0 348 c0 192 3
352 7 355 9 10 701 9 705 0z m1463 -348 l0 -350 -352 -3 c-279 -2 -353 0 -353
10 -1 13 0 690 0 696 0 1 159 1 353 0 l352 -3 0 -350z"/>
</g>
</svg>
